<mxfile host="app.diagrams.net" modified="2023-09-21T06:34:46.813Z" agent="Mozilla/5.0 (Windows NT 10.0; Win64; x64) AppleWebKit/537.36 (KHTML, like Gecko) Chrome/116.0.0.0 Safari/537.36" etag="PlAM13rwEZlNqrichQIR" version="21.8.0" type="google">
  <diagram name="페이지-1" id="rqDuGwN5A4fiZlh9KJ_E">
    <mxGraphModel grid="1" page="1" gridSize="10" guides="1" tooltips="1" connect="1" arrows="1" fold="1" pageScale="1" pageWidth="827" pageHeight="1169" math="0" shadow="0">
      <root>
        <mxCell id="0" />
        <mxCell id="1" parent="0" />
        <mxCell id="FfbijCccqsYejIyYJcgs-3" value="Tree Prefabs" style="swimlane;fontStyle=0;childLayout=stackLayout;horizontal=1;startSize=26;fillColor=none;horizontalStack=0;resizeParent=1;resizeParentMax=0;resizeLast=0;collapsible=1;marginBottom=0;whiteSpace=wrap;html=1;" vertex="1" parent="1">
          <mxGeometry x="285" y="-2960" width="200" height="52" as="geometry" />
        </mxCell>
        <mxCell id="FfbijCccqsYejIyYJcgs-4" value="가장 상위의 나무 Prefabs" style="text;strokeColor=none;fillColor=none;align=center;verticalAlign=top;spacingLeft=4;spacingRight=4;overflow=hidden;rotatable=0;points=[[0,0.5],[1,0.5]];portConstraint=eastwest;whiteSpace=wrap;html=1;" vertex="1" parent="FfbijCccqsYejIyYJcgs-3">
          <mxGeometry y="26" width="200" height="26" as="geometry" />
        </mxCell>
        <mxCell id="FfbijCccqsYejIyYJcgs-8" value="Apple Tree Prefabs" style="swimlane;fontStyle=0;childLayout=stackLayout;horizontal=1;startSize=26;fillColor=none;horizontalStack=0;resizeParent=1;resizeParentMax=0;resizeLast=0;collapsible=1;marginBottom=0;whiteSpace=wrap;html=1;" vertex="1" parent="1">
          <mxGeometry x="50" y="-2492" width="290" height="52" as="geometry" />
        </mxCell>
        <mxCell id="FfbijCccqsYejIyYJcgs-9" value="Tree Prefabs Variants한 사과나무 Prefabs" style="text;strokeColor=none;fillColor=none;align=center;verticalAlign=top;spacingLeft=4;spacingRight=4;overflow=hidden;rotatable=0;points=[[0,0.5],[1,0.5]];portConstraint=eastwest;whiteSpace=wrap;html=1;" vertex="1" parent="FfbijCccqsYejIyYJcgs-8">
          <mxGeometry y="26" width="290" height="26" as="geometry" />
        </mxCell>
        <mxCell id="FfbijCccqsYejIyYJcgs-10" value="Tangerines Tree Prefabs" style="swimlane;fontStyle=0;childLayout=stackLayout;horizontal=1;startSize=26;fillColor=none;horizontalStack=0;resizeParent=1;resizeParentMax=0;resizeLast=0;collapsible=1;marginBottom=0;whiteSpace=wrap;html=1;" vertex="1" parent="1">
          <mxGeometry x="440" y="-2492" width="290" height="52" as="geometry" />
        </mxCell>
        <mxCell id="FfbijCccqsYejIyYJcgs-11" value="Tree Prefabs Variants한 귤나무 Prefabs" style="text;strokeColor=none;fillColor=none;align=center;verticalAlign=top;spacingLeft=4;spacingRight=4;overflow=hidden;rotatable=0;points=[[0,0.5],[1,0.5]];portConstraint=eastwest;whiteSpace=wrap;html=1;" vertex="1" parent="FfbijCccqsYejIyYJcgs-10">
          <mxGeometry y="26" width="290" height="26" as="geometry" />
        </mxCell>
        <mxCell id="M5O5Atzd3mQ9mtBAptJ8-1" value="" style="shape=image;verticalLabelPosition=bottom;labelBackgroundColor=default;verticalAlign=top;aspect=fixed;imageAspect=0;image=data:image/jpeg,/9j/4AAQSkZJRgABAQEAYABgAAD/2wBDAAIBAQIBAQICAgICAgICAwUDAwMDAwYEBAMFBwYHBwcGBwcICQsJCAgKCAcHCg0KCgsMDAwMBwkODw0MDgsMDAz/2wBDAQICAgMDAwYDAwYMCAcIDAwMDAwMDAwMDAwMDAwMDAwMDAwMDAwMDAwMDAwMDAwMDAwMDAwMDAwMDAwMDAwMDAz/wAARCAFSAlkDASIAAhEBAxEB/8QAHwAAAQUBAQEBAQEAAAAAAAAAAAECAwQFBgcICQoL/8QAtRAAAgEDAwIEAwUFBAQAAAF9AQIDAAQRBRIhMUEGE1FhByJxFDKBkaEII0KxwRVS0fAkM2JyggkKFhcYGRolJicoKSo0NTY3ODk6Q0RFRkdISUpTVFVWV1hZWmNkZWZnaGlqc3R1dnd4eXqDhIWGh4iJipKTlJWWl5iZmqKjpKWmp6ipqrKztLW2t7i5usLDxMXGx8jJytLT1NXW19jZ2uHi4+Tl5ufo6erx8vP09fb3+Pn6/8QAHwEAAwEBAQEBAQEBAQAAAAAAAAECAwQFBgcICQoL/8QAtREAAgECBAQDBAcFBAQAAQJ3AAECAxEEBSExBhJBUQdhcRMiMoEIFEKRobHBCSMzUvAVYnLRChYkNOEl8RcYGRomJygpKjU2Nzg5OkNERUZHSElKU1RVVldYWVpjZGVmZ2hpanN0dXZ3eHl6goOEhYaHiImKkpOUlZaXmJmaoqOkpaanqKmqsrO0tba3uLm6wsPExcbHyMnK0tPU1dbX2Nna4uPk5ebn6Onq8vP09fb3+Pn6/9oADAMBAAIRAxEAPwD9HA2KcGzUCvxTlfNeDqiLlhX2/T0qVXDCqof3pyy0aMotq+Kerc1WSUk8ninrIP8AIqHFgWQ1PD81XD04SZqBlgHFPU5FVw3FOV6ALCnBpytUCvkU8NzSauBOrcU9TioFcZ5NPBOKViHG+pOrU5WzUAkxTg/NIzaaJwcU5XzUIenB8UhFhW4pwbioFkp6yYpNFJlmOTeaeDg1VElSJNwO1QVcsg5FPVsVXEoPeniTih6gWA2KeDmq6vmniTNRYCYPgU+oFenrJg0gLSyYHPJ9qfuyaqiTB/rT0mOP8aALSnBp4bIquk4//XThJkcUmiJRLCtin1XWTBxTw+R1qTOxMGqRWqAPjrVbWfEFj4bsmudQvLayt0GWknlEaj6k8VMmkry2C9tWaSyfNTw+a8c8Rfty/DXwxOyf26NQdDgrZQtMM/7wG39axP8Ah478PPMxt17H977GuP8A0PNeHW4iyulLkqYiKfqcssxwsXZ1EfQCnBp6nNeSeEv22fhx4umWOPxBHZSvwEvY2g5+pG39a9Q0zVbfWLVZ7S4huYHGVkicOrfQjiu7C5hhcSr4eopejOinXpVFenJMvB6erYFVw3Ip4f3rrNScNmnK2KhD0oepaAsK2KlWbcf/AK9VQ+e9PVsVFgLYelRsD/69VllOetSiUY61Ng3LAkBp6tzVdX3e9OVttFmRYsA5pytioVk4pwbFIRYVsU7dUAenB80AWo5McVIGxVRX5qRJcf8A6qzcALQbJpwbFV1m5p6y5FRsBYDYNAOaiD+9PV6b1AeGxT0fmogRmjfg1IFmJ8JUqviqiSYPWnrLz1z+NTYCyH5p1Q+aMdacsmVpASUUgagHNIBaKKKACiiigAooooAKKKKAPj0NxSh/mqBZMU8PmvsTqsyx5mBTlbAquHpwfFKyJLCyc1Isn4VWElPV6WqHcsrLx9afHJuqsr804SUtGUWxJmnrJwKqxy4+lSJIGqHECyHzTw/FVg3NP8zbUDLAbNOVuKgV6eHoAn3805HzUCtTlkpWEWQ+acr1XV8U5XwamxDj2LG+nh6gElOD0iGmiwHpyvioA/NO30CLAenpJt6VXVsUokqbFXLiy5PH405WxVQNipElI/wpFFpWzTw3NVlmz/8Arp4alYCyHp4fiqyvzTw9RYCwr5qRZsGqwbAp6PikBajk3U/dj2qqGya+Sv8AgpV+3E3wY0ceC/Dd1t8SanFm6uEbmwhPp/tt+lY160aUHORx4/GUsLQdarsjpf2sv+CjOk/Ba9n0DwykGt+IkBSWQtm2sj6MR95vYfjXxV48+PPif4wasbzxDrF5fuWJWN3xFF7Kg4A+grx211eS5mMkkjSPIdzMzZLE8k5ra0/U8Ec1+WZ/iMVi21N2j2R+X47Oq+LneTsuiR3+m6gDita3uBMvvXE6dqfA5re0/Ucgcj8K/M8bgbO6Rywkbtdb8MPjl4o+D+pLcaHqlxbrnL27MWgl9mQ8f1rjbe5Ey+9S15dGtVw8+elJxkuq0OynUlF80HZn6Bfsy/to6X8b1TTNTWPSfEAH+qLfurr3jJ5z7HmvcA1fkjZ3sunXcc8EjwzQsHR0OGQjoQa+9/2Lv2m/+Fy+Ff7K1SQf2/paAOSf+PqPoHHv61+z8G8aSxslgsb/ABOj/m9fM+yyfOHWfsK/xdH3PeQ+aerZqBWzTt9fpR9IThuakD1XV8CnK/NFgLIbbTlaq4kzTlbFTYCyku01IkmTVUNTw+KmwFonmnhiPxqqsvP+NSLKP61NhWLKyZU/yp6ycVWDYpyyZ61JJZRqer4qusoNPD0CLAkzT1eqwbNP30AWkmz1qUPxVJWp6Pg1m4dgLgfNODZqss2TUgk5qdUBPnilFRB8GnBqWjAkDYqSOTFQqaU9aVn1AsxvuNPBxVVZNtPSb/8AVU27AWg2aWoVlBFO3ZFSBJRTVbmnUAFFFFABRRRQB8ZeYPWniSqe/inrNgV9m4NbHYWxJnvTw/FVEmycd+1Sh6l+YWTLCvTw/NVlkp4eixNiwHp4eq4fApytxSsiSyHpwfmq4fNPD0th3LAk4FSrLmqganK2KmyZVy4smaeHyKqRyYqRZg3tUuDGWlenq/FVlenCTFSBZV8inpJg1WV809ZOKQFgPTlfNV1bJp4kpWFYsq/NOV6rrJzTlalZkuBZD04NzVdXzTg3NSQ1YsA4p4fiq4anh+KCSwr5/wAakEnz9aqq1OEmDSsVcuJJuHNPD4qmsgx/SnrNgf54qR3LitTg9VRPz/WpFkqbDMX4t/Eyz+EPw01rxJfsBb6PavcNn+IgcD8TivxF+JPxd1D4v/EfV/EmpymS71a5adtx+4CflUewGB+Ffot/wWg+Jr+Dv2VodLik2P4h1CO3cDqyL8zD9K/KfT9R6YP61jiMK6lO5+Y8aY9yxMcMnpFX+bO9sNSwBW9pupZNcFp2p4I5re07UsHrXxuPwHkfIwnY7zTtT468Vv6bqOMc1wOn6lkD+db2m6lgda+IzDL7HXCZ31hqPTmti2uBMvvXD6fqGCOa39P1Ld9a+Jx2Aad0dkKhvV03we+I1z8KfiJputWzEfZZR5q5+/GeGB/CuTtboTp71NXkUatTD1Y1YaSi7o6qdRxkpx3R+rvh7W4fEei2l/A26G8iWZCPQjNX0k59fevGv2H/ABe3in9n/SxIxeWwZrU5PZTxXsCvzX9TZbilisJTxC+0kz9Pw9b2lKNTuiyG5pwfAqur7qXzCGrtsb3LSvTg2arK+c9qesnHFSMsq1PWTiqwfIpyvQBaVsilD1XD8U9ZMVNgLKz4Hf609Zqqh6eslTYC0j8Zp4PvVVXOKkSX1qbCsWUkyakEnFVQ30p4fA/+vUk2LSvmnBqrLLj1qQPQIsK9PWXBz3qqr08PStcC2k3rUqtVJX4pwkxU8gF1Wp6vxVRJ8CpElyeKjVAWByaAxU1EHzTg3FICbfxT0lwP8BUH3xQDilYC2smR2/GniTNU1enq+KmwFoPT81XSbJ7VIDmkBJRTQ/FHmUgPiYSYFOD1DvB9vpTieK+3s0dhOkmKeJvxqsr4Gaej0aPcC2sox1p4aqiSU5JCP/11HJ2AuCTHenq9VEm9akV+Kl3W4aMsh+etOV81XVxTw9ITj2LCtj1pweoFenB6RJYWTJpwfmq6vtp4kwanVBctLMcU9ZQ3tVQPzTxJxS0e4y6sgNKr1USTHc49qlWbJpOAyyJcU8S1XEmKcr5qBlhXzTw9QCTBpwekBYjkGO9OV+arq+RTw9KwE6vUgkqsj04S4qSWkWVkpwfBqur09ZM0jNqxOr5qRXGOarK9SB6CSwr8U4PtHpVZXqRXwKmxVz8/f+C/F49v4B8BDnyjfzE/XZX5s6bqW4Dmv1M/4Lu+BpPEP7LGma3DGWOgaqjyED7qSDYTX5KabqWMV7+Fwqq4VSPxnjG8M0lfqkd5p2o8da39O1LGPpXBafqHTmt3TdT96+ezDLz5+EzvtO1HgVvabqGcc1wWm6ljANb2malk9a+IzDLzrhOx3mnalgit7T9S6c1wmn6jwOa3dN1LGOa+Ix+X+R2Qmd5p+pdOa2ra6Eq9ea4fTtU6fyre07UvQ18TjsA1qjrhM++f+CckrD4RX2c7Rftt/KvokSV4b+wZ4fbQfgDYyyDDajK9x+BPFe1htwr+gOF6EqWU0IT35UfqeWU2sJTv2LStgU5XAqujECnLJkV7p2NNFjfmnLKVPPNQiTmnK/NTYLk6z/WpFkzVbOGzTg2PWlYq5ZWSn7qrCQGnpJkVIywH4pyvioFfFPWTigCcSZp6vVdWFPV6mwFjfnvUiS56mqvmZp/mYFTYC0p9KkEu0VTD1KJ+lTYVkWlkyKcHqssgNPjbaanUViyHp4fFVllyOn5U5ZuaCSysmRT0l2mq4fNOV6NwLSz1Kr56GqYbmniSo5ALavzTg2aqiUg1KsgIqGmgLAajfiolfApyvg0gJVlzTw/pUIYClLYFICys3FO8wetVVkzTvMqbID4oEuKVZM1XDZpwfNfdHbctrNn2p2cGqqttqRZNo+tS4hYnDYp6yVXWTPXpin7sHoamzWwiwH4pyPjpVcHFOVsml5MC4sm6nI/FVFkIFSLN0rPkYFpXp6vuqoJj7VKkmRSaa3DQsh6duFVw2advpEuJZVuKcr1XB4pyyYpWQtiyr08SVWD8U/tSs+gK5YEnvzUonwPeqLXsULYMiA+5qWKZZR8rBvoajnhJ2ur+qGpIupLmnK/NVAcetPWbaKHArUtrJmniTNVw+aUPmswLKtTw9VlbBp6yUAWFk4pyvUCtk0/fRYViwrZ//VSq3NQLJwPzp3mZqbEuHYsB809H4quslPD/AIVJDi0cb+0p8HLX9oP4F+JPCN0AV1iyeGMn+CTGUP54r+fLxt4R1H4YeONU0DVYngv9JuXtZ0YYwynH69fxr+kKOTBr84/+Cz3/AAT6ufFnm/FnwhZPPeQRga9ZwqWaRFHFwoHUj+L25r38jxcYTdCptL8z4XjXJpYmgsVRXvQ381/wD82tO1TGBW9p+o5PWuIt5zC3+eK19O1LBFerj8Anqfk9Ofc7/TdS3Ac1v6ZqOa4DTtRyRzW/p2o4x+tfF5hl+h2U5ne6fqWMc1v6bqW7oa4HTtR6c1vadqO0V8NmGAOuEzvNP1L5hg13fwm8L3fxJ8baZotkjPcahOsQA/hGeT+AzXk2magZGCjJJOAB1Jr9G/8AgnH+ytN8OfDo8Y6/AY9Z1OPFnBIuGtYT3I7M38q+boZA8XiVT+zu/Q97JsFPF4hQS0W78j6f8E+G4vBnhPTtKgAEVhbpCuPYVrI2KrhuKerZr9ThBQioR2R+vRiorlRaS4Hqaerbu9VA+Kekhz6/WqHuWhJtapFk3Cqyy+tOSTdmpsQ4ItJJTg3FVUyDUiyZpENNFgEEU5SAc1AJNpp6vSsK7J1lBP8AjTxKDVbNPTj/AOvU2KuWVenrJzVZGLfSnGURrliFUdSe1T0uMsh8U4PWFdfEHQdObbca3pEDDjEl3Gp/U1Z0vxbpWtf8eeqafdnt5NwkmfyJrL29JuymvvRHtIN2uvvNcOKeJOMVXBxSiStHEssq/FSrPVUPTg9Q0BbRwT/9anKcGqitUqzYFS0KxaEvrTkky1VhKM08PikKxaD805ZPeqyyk09WzSEWBJ709XzUAfNKGxQItpLtWpElz0qmr1IH5qHEC5upQ3FVBKamjl3D3qLNAT5GKMfWoi+aMmlp1A+JA1PVsVVEmz/9fWnrJn37191a+x22LQenCTmqyycf/Xp4f3qdhFlZKerc1WEuBTxJmkO5ZWXnnp9KkLYWqqvk9akEx9alq4bk4fHtTlfNQrNheeT9KchyP6VPK0InV6cJKrh8Gnh80rgWlmz1qRJKprJTw2ank7AW/MwaZf6pb6PYyXN1NFb28KlnkkYKqgdyTVLWvENp4b0e5v72ZLeztI2llkc4CKBkmvgX9pb9rnUPjn4gktLKSWz8N2z4hgDYNzj/AJaSf0HavIzXM4YKlzSV5dEePnGcUcBT5p6yey/rofQ3xX/b1sNMnksfCsC6hKpKm8mGIQf9kdW+vFeQ6x+0R4s8Yyt9r1u8RW/5ZwN5UY/BcV4ppepbSK39N1HNfiPEOb5ljG/aVGo9loj88xGeYrEy5pysuy0O7XXLm9+Zrmd27lpCc1e0zxfq2jSB7TU762Ycgxzsv8jXJ6dqHI5/+vWvBOJl96/Oqrr0Z3U5fezGFae93956v4G/a58UeFZkW+lTWLUcMs4xJj2cf1zX0J8LPjxoXxWgAtJvs96Bl7WY4kH09R9K/PzxL8avDvhfX4tNuNV04XZmEU8ZuVDWoIyGYenTjrzXS+D/ABnDqUUGq6JqCTKr5juLd+jD37Gvs8i43zfLOX6zepSfSW/yZ9ZQq5vgaSxGJoz9k7ayi0tdrPz6H6Jh6cspA9a8i/Zy/aCX4k2I0zU2SPWLdeG6C5Udx7+tesB8V+/5VmuGzHDRxWGd4v8AB9n5n1mFxVPEU1Vp7Mtq+RThJVVZzjrUiy5NdzidGpZWTNPSTmq6vnoacHqbDLAkxT95NQLJxSh6QFkSZpyvVdXzT1fNKwFgPxRLGlzA0ciLJHICrIwyrA8EEVD5mDT1bdxSs0S43Pzr/wCCg3/BGP8A4SzUb7xh8JYYLe8nJmvPD5YJHM3UtbnopP8AcPHoRX5reK/B2tfDbxFcaVrumX2kajasVltruFopEI9iP1r+kAPx1rjfi/8As9eB/j/o/wBh8Y+GdJ12EDCPcwAzRf7kgw6/gRXu4PPJwXs665l+J8HnXA9DEydbCPkk+nR/5H8+enanjvXQafqeV+9/9avZf+Cpv7M3hT9lL9o+10Hwbb3VrpV5p0d40M9w03luxIIVjzj6k14Ro0BmHXH4084x2Dw9BYis7RavsfI4fgvNqtV0aMFJrzOw0/UcAc13Hwy8Ga58T9fh0rw9pl7q+oTkBYbaMufqfQe54r0j/gll+zn4W/aM+Od/pfi21mvtPsLD7UkKTtEHcNj5ivJHtkV+tXw1+Evhf4QaOtj4Z0HS9FtgMMLSBUL/AO82MsfqTXx8KmGx0PbYd+6/Kx79HgHG0qnJjpKPktWfNH7Ev/BNKD4ZSW3iXx8sF/rSYe305T5kFm3UFz0dx+Q96+x42GwYGAOAMdKqCSpFlx0relh4UlaCPu8BgKGEpeyoK35stB6cr8VWWbnmpBL71qdxYVsmnq/rVdXpwepsBZDEU9JCVqsJMU9ZeakC0spx2FP355/nVQNnvTw+B60AWjJn1qRZvWqyS7h2FPD5H44pWIcSyr1X1jXrTw5pU97f3UNnaWyGSWaZwiRqO5JqtrmuWnhnRbnUb6dLWzsommmlkOFjRRkk1+XH7an7d+o/tJeLJtN0maey8IWUm2CBWKm8I/5ayDvnsO1edmGNWGp81rvojx82zWlgafNPWT2R9K/H3/gqbbabPNpngC3jvHQlG1O6X90D6xp1P1b8q+bfF/7R/jL4n3BfWfEep3Suc+V5xSJfoi4UflXimn6ptIra0rWo5Z2jWRGkjxvQMCUz0yK/I88xeOxbftJu3ZaI/P8AE5xicTK85adlsd7Be/aBktlj1NWba7ls5Q8MskTjkMjFSPxrm9N1HAHNbFpdiZa/O69GdKV02Zwmep/Df9rrx98Mp4/suu3V9aoRm1v2NxER6c8j8CK+uP2eP26/D3xeeHTtV2aDrr4VY5H/AHFwf9hz39j+tfn5QGKsCCQQcgjqK9vJuL8xy+ek3OH8stfu7HrYPNcRh3o7rsz9eFkz05FOD4r5K/Ye/bEl1ma28HeKLgyXJ+TTr2RsmX/pm59fQ9+lfWIev3nJs5w+Z4ZYih811T7H3eDxkMTSVSBOHpwfNQb+KeHr1LHUTrJipEl21W8zNP3+9TYC2snoacrc1UD4xUiyED2pWFYtJIc809ZMVXD5704GoJsWQ+KcshqusmT6VIr0CJ1fJp6ycVWVqkVsUAWI5itO88+1VxJkUtTyoD4mDbhTt2f/AK1VQ9PWU+tfbcnY9Asq5X6CnJNjqeagWUevNLuyf50vUVi0soanq+KrKcc05Jdx/pStfYlplkS1IJKrB8cU9XwKVmIsiSnpNgVWV6eJM0h3LIm+UcVIpytVVfiniTcKTQaMnD809ZMmq6Sc+1Qa1rEeh6NdXkjbYrWJpXJ7BRmo5WhS91XZ8g/8FL/2jJE1O38BabcFI0UXOplDyxP3Ij7fxH8K+U9P1HGOfpWL8TviVN8TPifreuzuWfU7yScHP3UJ+UfguBUWn6nz1r47N8LKtNykfh2bZlLGYudZ7bL0O907Uc4re07U8Y5rgtO1LpzW9YaieK+Cx+X9Gc0J9Tu9O1E+taGr65LYeHr2eDPnRwOyY9dpxXI6bqWADmtyyvxIu08qwxivjMTglGam1dJnbQrcs1PezTPz7sfG1xP4ivGvXZ7o3MhmMn3t+45zX2L+wbqtxqvhvXWO82gliCHtvw2cfhiqvir9ifwX468UnVZVu7SWVt0q20mwSn3/AP1Zr2vwB4P0rwB4at9J0e0jsrK3HyRqc5Pcknkk+prr4pzfB18N7PDp3dumx/TfGnjfgs64SWQ0aTVSXJe60jy9u/kdR4d1+58L61b39pI0U9s4dWHtX238N/G0Xj/wbZapERmeMeYB/A4+8K+F6+gf2K/FzNFqWjO/CkXEYJ6dj/SujwxzqWHzD6jN+5U/9K6fefifDuLdOv7F7S/M+hQ+RT1k4qr5nHFBnIFf0LY+7LiSYNPWQrz19qzzctjrUUl/Kg4b9Kdmxo2o5Nwp4kxXOSazOg4f9KryeJLpRxJj/gIqPZ9hc51yvxT0k5riT4qvV6Tf+Oio/wDhMNQT/lv/AOOD/Cj2TD2iO8D5NPV689PjbUP+e/8A44P8KQ+N9SH/AC8f+OL/AIUeyYvao9FVqeHwK83/AOE31P8A5+P/ABxf8KevjnUiP+Pj/wAcH+FHsmL2iPzL/wCC6zbv2vtK/wCwHD/6Ea+UfD33D9a+lv8AgtBq0+r/ALVOmSTtvcaPEM4A/iNfNPh77h+tedx0rZXTXkacNu+On6n3D/wRBOP2lNe/7Ax/9Dr9UVbFflb/AMERW2/tJa9/2Bz/AOh1+pok314fCn/Ivj6s9PPV/tT9ETB8mpA9V1finK9fSHilhZO1OD81XElPWTNKw7lkS4/+tUscm5aqCTHenLLgdT9KmxVy2rYp6vVZZ8e9SLN8tIZYD4FPD5qustOWSpsBZV8CnLJnt0quJPeia6W3iZ3O1EG5iewHU0g8z4a/4LEftXzeHLKx+G2kXPlyX8Yu9WaNufL/AOWcZ+vU/hXwDp2pdOau/tZfGGb4xftK+LddeQulxqEiQ8/djU7VA/AVyOnahwOa8rMcHKerPxPOMweLxk6rel7L0R6f8PUi8QeKrKznYrFNJ85B52jk/wCfevtvwj8PfBXj3wAdBbTLO1Zo1WG7iQLOjqMKxfq2PQk1+dVp4wk8La3Z3oJ8pcxuR/DnBzX0d8IP2iLbSbNLiW7UIBn73X2FfzR4tZHm08RRqYJySVnHlv8AF52/U/bPDTA5TUyerVxHK5u/Ne2kem5h6rayeGtfvNPlP7yzmaJvqDitHT9R6Vyev+Lv+En8U32oH5TdztL+ZzVyw1DOOa+grYGo6MXVXvWV/W2p+M1JQVaSpfDd29DubS7Ey89asVzunajuxzW1aXolXB618vicM4M2hK5ctLuWwu454XaKaFg6OpwVI5BFfpH+yf8AGkfGr4RWV9M6nUrQfZb1R/z0X+L/AIEMH8a/Nivo/wD4JuePH0X4n6jojOfI1W18xE7eZGf8Cfyr6rgPNZYXMo0W/dqaP16M97IsU6WJUOktD7k8zinh6rCX/Ip6vg/rX9BH3xYD808SVWV6eH5pAWBJxTg+agV+aeJOaVgJw+P/ANdSRzVWD05WxUtAWvPwfapFk/zmqivhqlExqWgLRkpyyZNVVnyfSpA1TYlos76PMqBZDS+dSJPiTfTlfmq+6nB819wegWVfFPWU1WV6eJOKALSS7j6U8HFVBJUiSYFQ4dgLQbC09ZN1V1kDD+lOU4FTtuJq5ZV+Ker8VURipqQS5/8A10WRNiyHxT/Mqsr4p4fNTawiyHx+NcD+1Vrsnh/9nDxrdRsVeLSLgqfQ7DXcB81xH7TWgv4r/Z88ZafGN0lzpFyiAdz5ZxTiruxzYzmeHmo72Z+Othqee/41mSfFT7VqHk2qDZBMvz+YVMm1huHpg8iqVjfkKRnHbHpXnV3a3/h3XpU8meSFpC0ciKWByc4OOhrx+JMFiI0ufD731PN8BMs4Xx+aVqXEsYy91cik7K99X01sfSPhHxX/AGsjfIqPGAzbScEH6112n6jmvHvhWt1aWb3FyrRG4UKkbfeAHcjtXoWm6njFfHLA1nh06/xHznivQyLDcU4mhw3ZYZNWUXeKdldJ9rnfafqWQOa29N1HaRXCafqPTmt3TdSwRzXy2Py/Q+ChM73T9R6c1vadqXA7VwOnajz96ug0/UegzXxGYZf0OuEztrW6E6+9erfsj3rWvxYVQeJbd1P5Z/pXiGnajnvzXtn7HsB1D4nGbBxb2zkn0zx/WuPhrC1IZ3h+T+ZHt5Q28XTS7n1csnams2aYJKaWJr+qUfqtuo5mqCaTGfSnupb+E/1qB4pCT8rVQmQytlapyMcVbls5mBxG5/CoXsZ/+eEn5U0jJlKSSoJJPmq2+mXJb/j3l/75qFtHuv8An2m/74NPRE2Kry46Ux5sn/CrDaHeE/8AHtMf+AUn9gXv/PpN/wB8GjQnlZAZjmnxzZannw/fH/l0n/74pV0C/B/49Lj/AL4NGgWZ+YH/AAWKbd+1Fp3/AGCIv5mvnTw99w/Wvub/AIK0/seeL/HWvaX470HRdQ1SGytfsmoQW8JklhUHKyBRyR646V8V+HvB2rh/L/srUvM3bdn2V92fTGK8XjiaqZdCMNWlY6uHYOGMk5aan2X/AMES22/tIa9/2Bz/AOh1+pQfmvgv/gkN+yZ4k+GF1q3jfxJYXOkf2nbi1sLW4QpM6ZyZGU8gHtmvu5ZMCvK4YoTp5fGNRWerPSzecZ4qTi77Fjeaer1XV8mnK9e/Y8vlRZVuacH5qujU8PSIcexOrZNPD4qAPTlbBpEFgPmnK2TVffT1bH0pWHcsJJtzUglGD1qqr89KeJMVNirltZOK574vam+l/CrxJcoSHt9LuZFPoRExrbWfPX9KzPHWknxN4J1fT1GWvrKa3A9S6Ff604JcyuZV7ulK3Zn89F3rTT63dOxJZ5nYkn1JrUsNRrlvE0cnh/xlqllKCklrdyxMDxgqxFWtN1LaRk17uMy+8b2P55c2ptPud3ZXi3MeyQBlIwQeRWxoSW9g2YYkjz6Vxenahgjn9a3dP1T3r4vMMC0nF7HXTrStaLO8sNRxjtW9p2pZxz0rg9O1LOOa3dP1PBHNfDY/LzohM7/TNR3kc89K9++F/wCy/B400ZLqbXp7XUWgYR2yqptixIKlzjdkcjg459q+TtQ8UnRY7SXPyC5TefQdf54r6J+CnxwJ8r9/1xjmvxLxH/tPB0ISy6XJe93a+3Q/Y/DfhfB5pRrYjFrmt7qXbTf/ACM7WdJuPDGt3Om3qGO5tJDE6n1H9K9K/Y2v2sP2jPDhQ/6yR4z7gxtXn/xs8XQeJPiNcXULD544w5HdgoBr0L9hbTm179ofRiBuWzWS4Y+gCkfzYV18Lxr162ErSVpScW1+Z8fVwscNmjwtN3UZ2T+Z+i0cmVp6NVeN6kV81/VDR9/1JfMYVIsm6oRJ6Uqvz6VNh3LCvzTw+KrLJsPNPWXjgUiiwrU/fUAenK+BSAsLJTw/FVg1PD0rAWFfmniXpVZX5p4k5qWgLQnGO9LvquHxS+b9amwHxKsue3606OTcKqh+KckmK+4cTsLganB6rLPjr+dSK+elTZoCwHp4eqwbinhqQFlWp6yECqyvT1egC0kmD+FP3f5xVUPxT45QoqHECxvwex+tSJLnrVcS5XOP1p4cYFTqhWRZWTPvSXdsl/ZywPykyFGHseDUSPjp+VOSXcaW+pMo9Gfih+1F8L5/gV+0J4m8PSIyw2t48lqSMboHO+Mj/gJx+BrlNO1EH/Gv0S/4Kx/skTfE/wAHw+O9CtTNrPh+Ix30Ua5a5teTux3KHJ+hNfmnbXJhPtX0dOMcRRUlv1P5/wCIctll+OlT+y9Y+jO607UenIre0/VMYrgdN1L5hzXQabqGD1r5rH5de55lOdjvNO1Xn2re0/UOnNcFp2o5Wt3TdUwor4jH5f5HZCZ3enamBz6DNec+Kf2qTF4hlsdMtA8NpOoM5uCjSFW+YYAI2nBFdPbXhlt2UN95SBXy3428Mav4D8aXUcltcy200rPFKkZcHJzjjoa+YeURnzStqj928C8r4bzHNqtLiJKS5fcUpcqvfV372PtT4MfGD/hY1rdebbx2txa4YrG5ZXUnGee9fcn7EHhJ7Hwje61Mu03z+VESOqL1P5/yr8+f+Ce/wU13x7ruxraaD+09iKsikGKEHLSMOw9M1+sXhPw7b+DvDdnplogW3s4hGvHXHf8AHrV8I8OpZg8bNe7DRev/AAD1+LckyPD8V4iXDySw0EkkndKdveSfZGysu01Isoqosn4U8PX6o4p7GBbV808NVVZcVJG+8VDi0Msq/NODkVXD09ZOaRLj2LCyc07fxVcPT1filbuTZlhXxTw/vVYNzTw3FTYCyr05ZMHt+VV1fBpwegdy2soP1pwPzZ7+tVVfmpFnP1qXFMa8i0rbRTw+TVZZcrUitUWaGWA+acsmar76eklICdXzTw9Vw9PV6ALCnmnK/NQK2ad5nFKwrFhX5p6tVYPTw1QZ8pYD4p4fNVxJxTg1BOxYEnGKkilwarK+BTkfNFgufhr/AMFWvgRP8Af2yfEOyEx6X4jf+1rFh90rJywH0bI/CvF/hf4euPiD4w07R7Ztkt9MI955Ea92P0Ga/ZX/AIKm/sUD9rn4FPc6ZCG8XeGEe600qvzXK4y8H4gZHuPevxt+DviOT4XfF21a+R7aW3d7eRZQVMT9MEHpyMV9BjsZWlklathFetCDsvNLT/M/JsVw/Shn1PD4h8tGrJa+T3R+jfhn/gnz8M/GfwgOj2cU1n4k8hTFrJlLSvKoJG9c7dhJ5AA4xzxXwz4j0S68C+KtQ0e9XZd6bcPbyj0ZSQa+zPgz8fYrO3FxLdJHDEu92ZsBQOSc18cfHv4lWvxH+N/iPWbPH2W/vZJI2H8Qz1/Gv5f8FcdxFi8xxuGzScqtL4k5fZk3qk+z7dD7/wAWOH8sy6jh6mDioSell1S2f/BJdO1PJrf07Uc45rgdO1D3re0/UcY5r9mx+XH4zCdztXSPWLB7eYHY45I7H1q/4Mtb3w9P8mpMYc8L5eG/PP8ASuZ0/UsHrW9Yaj05r4nM8vjUg6VSKkvNXPay3Ocbgub6pUcObR2e531lqzTNuZiWJySe9fbv/BLr4cSi01nxbcJiOYCytSR1wcuR7ZwPwNfFXwJ+HOqfGz4g6d4f0mJ5J7yQB5AuVt4/4nb0AFfrd8LPh9Y/CjwFpmgaem220+FYwe8h7sfcnJrPhrIL4xYqS92G3r/wD6XhfCTr13iZ7L8WdUDmniTaKqLKcdamEmR1FfpbVz9CcblgSDPWnhqqhqk8zb6UrEODLANKORUKvkU4HJqSSYS7Vp6yBjUAbil3bamxVy0Hpwf3qsshA71Kr8ZqRk6tT1bioA+RSo/NAFlXpd1QK2aduNKwHxGPrS8rUQlp/WvuLHYSI+KeHqECjJU1IFtZs+lPEvPWqgk4pwfIpWuO5dV805XxVRJMVMsm0VFmIsK1OD5FVw9ODYFICwrZqRX547VWRqer0AWlm9akDZqoJM09HxUOPYCw6JNEUcBkYEFWGQwPUV+df7fv/BM2+8O6rfeM/h5ZteaVOWnvtJhXMtox5Z4lH3k7leo7cdP0PWb1qUNuX1FbYfE1KEuaJ5Gc5Lh8yo+xrrXo+qPwSjle1mKMpUqcEEcg1sadqm0V+rH7R3/BOD4eftDzz6gbWTw7r03zG/04BfNb1kj+6/14PvXwr+1j/wAE7/En7Jvhk+IJ9Z0rWdA+0JbrJEHiuFZzhd0ZBH5Ma9f6xRxKstJdj8izPg/McE3KMeeHdfqjy/TdSxjnrW9p2o7gOa4TSb0yYxzXV+ENNufEeu2Wnw4We9mSCMvwu5jgZNfJ5p9Vpu1SpFP1ODDZPmNV2p0JP5M63TdRxjn8K7/4RfC/WvjJ4li0/RNPN5MSN8hX5IF/vMx6Cvffg9/wSoFnLFceM/EAnC4Js9MBAPsZGGfyX8a+sPh18MtC+FWgJp2gabb6dap1Ea/NIfVm6sfc14ryP2k7ydkfW5VwdiqslPGe5H8f+AYf7OX7P2n/AAF8KC3jKXWqXIBvLvby5/ur6KK9K8wNVVHpwk5r3qOHp0oKnTVkj9Nw2HpUKao0lZIs/Q04Piq6y49KkR9554NVyvobWJQ/FSI+KgxgUqNil6iLKyn1zUscm41UVs04ORUuKa0AuCTNOEnvVZJsU4TcVHKxloODTlk4qAPT1fIpE8vYnDU9Xqur08NSJasTrJT1fNV1anq9K3YRYD1IkuD61VDcU8PzS9SrlvzQKcHz3qorVIsmO9LlT2GWw3NOV+arRyZP4VIGwKhpoLlhXxTgc1XWSnq+TUjLAfmnq9Vw/NOR6NwLCvz/APXp6ycVXWTBpytxU27EtIsrJuNODZqur7aeGpEOPYsLJtWvgv8A4Kcf8Ek0+Pl3eePPh5HBbeK2XzL/AEviOLVCOroeizfXhvr1+70kyKerYrowuKqYep7Sm9Tzswy6hjaPsa60/Feh/N/4lXxN4B1G58P602s6dcWTmKexu2dGiI4wVNQabqPA5r97/wBpb9iL4bftZ6b5fi/w/DNfIu2HU7U+RewemJB1Hs2R7V+cf7c//BHIfssfDHWPHfh/xkdT0LSijSWF/a7LsB3CjbInyNgkdVWvosLjcHUXJGChJ9kkm/kfmWc8KZnGTqKTqxW13ql6M+SdN1LGPSt7TtS6VwmmXbS42966fRoJbm5iiBAMjBAT2JOK8TN62CoNxrVIp+Z5GF4fzWu7UcPJ/I7PTdRx1NenfAX4K+Kf2gPFMek+GNNmvZsjzZsbYLZf70j9FH6+gr66/Z9/4Iq6Dp0NlqXjfxPc615kazfYdOj+zQ8gHDSHLn8Atfavw0+Ffh34PeHItH8M6TZaPp8XSK3j27j6serH3JJr5ytl9Oo79D6fLOD8VOSli/cj26/8A4r9kL9kvSP2WvBPkRFL/Xb0Br+/K4Mh/uJ3CDsPzr2FXzUAfApyP+ldVOhCnHkgrI/SMPh6dCmqVJWSLAbinrJiq3mVIrnFVY3J92RUyyAAc1UV6cGzSAtq9PWXnrVSOTFSJKD2FKwmrlpZMmnq+KrA4pySHNTYycWi0rUofH/1qgWTcaeHpCJ/N57Yp6Pkf4VXVqdnNTYdyyH5pfMqvvKmned7GkUfEnmZNODZ71XEmRThJmvtzvsWUl2ipA+8VWD+/wClPV9vfrQTZk/U9qUHFRrLk07dxSsIkD5p6yY71BvGOtH2gCpswLizY9fzp4lBqh9tUDqaX+04kHJP5VPKmBpBsU5XzWYuuQR9S3/fNB8S2q/xN/3zS5Wg9DVV6kV6xh4stB1Z/wDvigeM7IH77/8AfBpWYjbDc1Ir5FYI8a2I/jf/AL4NOXxxYj+OT/viizC6N9ZP/r5r5Z/4K/n/AIxJbH/QVtv/AEKvokeObAfxSf8AfBr5j/4K0+JrXVv2UmihLl/7UtjymP4q3wcbV4+py45/7PP0Pzm8On7lek/B9v8Ai6nhv/sJQf8AoYrzbw7/AAV6R8H+Pip4c/7CMH/oYr8b4x/5GkH5r8z6jh1y+pteR+y6uB3pyvgdar5w3vmlWQ55/lX6qkmeBystB6csnP8A9eq6yZ6Gnh84osSWQ9PWTAqsH4p6yUgLSSe9KJN5H86rK9SB6Vh6FnkUB81DHLgY5p6uM96hxfQLE6vg04PioA9OD4FLXqIspKcU+ObmqyyU4PS5UwLav708P71VjlIqQTjFRytAWA+KeHxUAenK9SK19iwr08PVZXqRX5oJtYnDe9OV81B5macr1NuwiwJcGpElIqsr4p6yUttyr9yykv8AkmpVfNUhNilW5UN/9ak0mHoXt/vTw1UG1SNPWkOtxA8k/lUWY7o0lfinhuayf+Ekt0/if/vmj/hLLROrP/3yaLMLo2VbAp27NYf/AAm1ivV5Pp5ZpP8AhO9PH8Uv/fs0cr7C5kdAGp6vXO/8LC08D703/fs0o+IWnEfem/79mo5GJuLOkElfNv8AwVybP7A3jf8A3bf/ANHpXuH/AAsTTwPvTf8Afs187f8ABV3xrZar+wj41giaXe6QYymP+WyV1YOD9vD1Ry4q3spW7H4y+HTgCuy0FsavZf8AXZP/AEIVxfhs5UV2ehf8hSy/66p/MV+d8f8A/IwXqfU8Kt/VH6H9BvhJ/wDimdO/69o//QRWkr59ayfCb/8AFM6f/wBesf8A6CK0ll4r7SGsF6I+el8TJw2amSUHv0qp5lPV+adguWw2elOWSqyyYHFSeePekMsq/FOV8VWSXcOKer81DXYCyH5pweq4kzTxL70rAWFfHSpFm6VWD5pwfmkBbVvSnrKaqLKcf/WqSOTI9fxpWE4plkSVIj5qtu3CnLLj1/GlYzcbFkNS7qgWQU7zP84pEHxGG4pytzVffT1evtj1CwJKcsmKrq+afvqbAWFkzT1bcP161XV8GnCSkKxKWpGfJphkAHT9aYXoJaHM9QSnJp7NUErUEsjkfBqu70+Q5NQu3FBA12yKic7TSl6ryPuPWgTHF6A5AphbIpM8UEkyvmvnf/gp4+P2aG/7Cdt/6FX0EDivB/8AgpD4fu/EH7Ml61rEZvsN3BczBRyqK3J/Ct8NpVjfucuMu6E0ux8AeHzkr9a9H+EZx8T/AA9/2EYP/QxXnHh3+CvUvgN4fuvE/wAY/DNnZQvNPJqEJCqM8BgSfoBX4txgnLNYRW91+Z9bw9/ubfkfsD5vNPV91VVkxTlkxX6vyaHhlotmnLN/kVWWbmpUfcM1LugLAcNTw+KrA8/4U9XwPWi6ZPKWEkp6yc1WSTNSB6mxJYV8U9ZKrq9PWTNICwj7TUqyhl54qoJMU9ZM0D0ZaOQKA1QLJ708S5PPNRyBYnD09XxUJOeeaUSECp1EWEl5qRJsjmqqvzTlkzSsmBcWSnB+aqpLipElz1rNxaHcsq/FPVsVXWTPSnrJSFyp7FgPmnLJVcPxT1fNBBKx5phIppbmmF80JBYJDlqqyt81Tu2BVOeTg1VrCkiO4kytVJZs1JNLuPpVZ35pkDXfAqF2zSyvu/8ArVE7bRVWIY7OKTdUZkB70gkB71PKySZWrwP/AIKbv/xhV4wH+xCf/IyV7usvOAa8e/b48Cal8Sf2UPF+maXC1xem2WdIlGWkEbq7AD1wDXThNK8W+5lXTdKSXY/H7w6PlX8K7TQudUs/+uyf+hCuP0OBoZdjKVZDhlIwQRXovwp8F6h8QviBoei6ZbyXV/qN5HDFGgyTlhk/QDJJ7AV+Y8epyzBJb3Pq+FdMK79j97vCTlvDGn/9e0f/AKCK0hJzWfo0B0/RbSA/ehhSM4PcKBVxW4FfaQTUFfsjw5xu3YnD05ZPmqur809WzTMix5lOVqrh8GpFagCdZOfSnrLj3qurcU4PU2Hcto+RT9+KpiQ5qVZCDUlFkPTw/NV1k3U8SGlYCwHp4bFVxJxTlckVIFgSVKJ89qqpJzTw+KQFpZFNO8we1VlkJ7mneaaAPiUSHNOWQbqrLLmnpN2Nfb2OwtCQ07fmqySY75FPWQGpsBPvp6NmoA+T1pwfJqQLGeaXg1CHpytUtAS+Uj+1L9iRh3P41DNdx2kJkmdY0UZZmOAK4/XPj7oejymKB3vpAf8AlkPl/M/0rzcxzfBYCHtMZUUF5/5HLicXh8OuatJI7UaZA55B/wC+jSDRLVj0b/vo15hJ+0NdXOfs9nAg/wBtix/pSQfH7Ukf57a1Ye27/GvjJ+KnD0J8ntJevKzyP9Y8vvZSf3HqDeG7TH3G/wC+jSf8IxaH+Bx/wI1xekftA2k7bb22kh/2kO4D+tdrofiey8RQeZaXEcy9wDyPqK+lynijKsz0wVdSfbZ/cz0MNmGGxH8GabBfDFn/AHX/AO+zTx4Wsv7jf99mroORSjivd1OyyKn/AAiViw+6/wD30aZe+AtJ1Ozlt7iDz4JkKSRyHKup6gjvV8PTw+KV2Fl2PB9V/wCCY/wm1TVXu49M1Sw81txitb91iBPopBx9BXffBf8AZO8DfAa+a70DSiL9lKfa7qUzzKp6hSfu/gBXfRy4I9OtSLLuNcUsDQdX28oJyXXqaQnKMeSLsiyH5p6vVcPzTleuggso9PWTHtVYPT/MCjJOAKALSS7R61IkoJ964XxP8dvDfhKRopb5bidesVuN5B9+w/OuXu/2rreQ/wCh6ZI49ZZAufwANfL5lxfkuCfLiK6T7LV/gebXzjBUXadRX8tT2MnJp8bECvFYv2q5hJ+80mPb32zc/wDoNb2g/tM6LqDgXcN1ZMTjJG9R+XP6V5+F8QMgxEuSGISf95NEUs8wFR2VT79D09ZR6809XyaytE8Q2XiK1E9lcw3CHnMbZxV9XJ5zmvr6dWnVgp02mn1WqPRVpLmg7otB8U5ZKrCXB5p6virsBZD08ORVZXpwepAtrOSMUqyGq6yU4PzRYZaDbhTt22q6PjvUiyDH41DiFiZXxT1eoVYFe9AkqdhFhZMGpVnzVRXp6vilZMC2j5p6vzVRZcetSJLjrUcrQFkHNKoBH/16hEmO4p6uCKQWuPMCOeR+tB06InofzoDflWH4o+KXh/wUcalq1nav/caTLn/gI5/Ssa9enRjz1pKK7t2MpzjBXm7G1/Y1u5+ZSf8AgVIfDtqT91v++jXnN1+174OtGws19ce8ducfmcU6x/bB8HXUgV5L6Dtue3OP0Jrw/wDWzJebk+tQv6nH/aeEvb2iPRB4Wsm/gb/vs0f8IhYydUk/7+Gszwr8V/D3jMgadq1pPIf+We/a4/4CcGukDivYoYmlXhz0ZqS8nc64TpzV4NNGePBmn/8APOT/AL+GpF8Eae3/ACzf/vs1dDZ71Ir+hre7L5YsoDwPp/8Azzf/AL+GnDwHp+eUkP8AwM1orNnrUivu71F5oOWPY8R8af8ABNj4LfEDxBNquo+CrP7dctvmkt7iW28xj1JWNlGffFdX8F/2O/ht+z/qrX3hTwrYadqDrs+1szzzhT1AdySB9K9FVuaer7RWE6UJy55pN9zSMpRXLF2RYDYp6ucVXV8U8N71Yiffg08SfjVcPinK1KwrFkGno+Kp3N7FYW7STTJDGoyzO20Ae5NcF4m/ar8DeFJDHLrcN3KvGy0BmP5rx+tcWLx2GwsebE1FBebOetWo0lepJI9L3GnB8GvEX/br8GI+BFq7D1FuP/iq1tC/bN8Ca7MqG/uLItxm5t2UfmMivLp8U5PUlyQxML+pxxzLCSdlUR60H4qQNWP4d8Y6X4rtfN02/tL2MfxQyh8flWkDmvchOFSPNB3XdHbGSavHUsLLtNPWY/Wqwk5p4aixVy2rhulOD4qqrYHWpEnxwakosrJzUivVVZA1PV6VgLIel3CoFel3ewqbMD4kD05TzUAal34r7c7C0j81Ismeo/Kqgenq9AFsD86kVs1SD5FSrMHxk0gLStisTx/8RNP+G/h99Q1CUKBxHGD88zegFXNW1q30HSri8upVhtrWNpZHJ4VQMk18VfFn4z3PxZ8Zy3ruy2UbFLSEniNPX6nqa8PPM0eCoXhrN7f5nz3EOeRy6iuXWctv8zuPHnxw1X4k35Mz/Z7HP7u2jb5QP9r1NUtO1DgDNcFYaj05rc07UuRX8+5zSrYqq61duUn1Z+VVMXUrzdStK7Z32najxWvBcCZa4nTtTzjmt7T9Szg57V8DjcA46o1hM2y20c1NoviCTTbhLmyudrdVeNshv6Gvm39sT9qLVPhnrmm6Dodz9guZ0Nxc3IRWbb0VBuBHPfiuX+AH7S2ur4r0ixu9Q+0abNcCF7fyUVAsjkkjAyCCx/lXXR4extOgsdB8r3Xc/beGfBPPc5yX+3cJVhGPLKSi2+ZqP+dtD9Gfht8Vk8ThbW82RXqjg9BJ9Peu2V91fM9vO9rMskZKuhypHY17b8NPGv8AwluiDzCPtUGEkHr71+2+G/Hc8yX9m5g71Uvdl/Mv81+J8xkGcyxH7iv8XR9/+CdaiinBcGqwmx3qUOPWv1yx9OShjTg9RE5NANS0BZSXB61Kr7l/xqkH5pZbtLKB5pGCRxqWZj0AFS7dQvbcZ4q8Y2PgrRJ9R1KdLe1gXLMx6+w9TXy58Vf2qtU+IlxJa6ezadpOSqqjYkmHqx/oK4j9pj9omb4u+NpLe1mZdE09yluiniUjgyH1z29q4nTtRPHzV+YcV5viK18Phnyw6tbv/gH5ln3Es61R4fDO0F17/wDAO80/U95/nXQadqWAK4DT9T245re0/UM96/Gcfl/kfMwmzt4ZvNWnE1iafqfTmvLf2r/2obj4MWunWGkeQNV1El2lmTzFgjH+z0JPvXztDKa2JrqhRV2z6jhrIcXnuYU8swVvaT2u7L1Z754e8UXvha+W4sbl4JF/unhvYjvXvHwo+NkHjhFtLsJbaio6Z+Wb6f4V+ZPwa/a11yLV7K1vZbKXT5LgmWJINpO9skhskjk9OntX1nY3slncRzQuUkQhlZTgj0r6vKc7zLhjExi5c1J7x6NeXZn3PFXBuecDV6FPMXGUaybXK7rR2foz7A3ZYd6kDkD0+grifg98Rx458PDziPttuAso/vf7VdismT1r+lstzGjj8NDF4Z3jJX/4B2YevCvTVWGzLCSbj0xTw2KrlsinLJgc59jXduaOPYsqacr81WST1/8A109ZMnrSsSWRJUivxVUHNPV6kC0r5FPjfc+KrK+acr5FFrjuWilKGwwqur8U5ZMVHL2CxZVqdUIbcO1KDt71OwixG9Z/jLxvpvw/8PT6pqt3FZ2duuWZz94+g9SfSm63r9r4Z0e5v72ZILSzjaWV2OAqgZNfnh+0l+0/ffHjxtKVmki0O0crZ24Pykf3z/tGvKzbMlhaXNFXk9keJnedU8BSvvN7L9T1v4v/ALcuseOrmay0AtpGl5KiQf6+YepP8P0H515hb6w97KZJpWkdjlmY5JP1rgNMv+BzXb+HfBPiLWNGbU7TRNSudKiRnkvI4swptOCCc5z+Ffg/EWJqV5Orjqm+13ZeiufnE8Vi8fUcneb306I6HT74AAdq0AdwrktP1AjHzVu2GoZGDXweLwXLqjKEkaUMrW8geNmRlOQynBBr1P4WftUaz4KkjttTZ9V04ED5z++jHs3f6GvKkcOOKWjLM3xmX1VVwk3F/g/VHdh8VVoS5qMrH3h4M8baf470KO/06dJoZBk4PzIfQjsa1Q+BXxT8HPi1e/CvxLHPE7tZSsBcwZ4dfUe4r7G0DX7bxJo8F9ayLJBcoHRgeoNf0hwfxXSzrDe97tWPxL9V5H3+VZnHF09dJLc01bFOV6rq/FSK1fY7Hr3LSSlvSno+Rmqgf3p6v/nNTZMfoW1fmnq2TVRZSoqVH3VLiO5YD4ryf9pT9rzQ/wBn+w+zApqWvyrmKyR/9X/tSH+Ee3U1nftkftT2v7N3w+3wPHJ4g1MGPT4DztPeRh/dX9TX5v6n40vPFuu3GpajcyXV5eSGSWWRss7Gvnc7zSph4ezofE+vY+T4g4h+qv6vQ+Pr5f8ABPY/iP8AtJ+J/jNftJrGoubbPyWkJ2QRj2UdfqcmsnTtQyK4bw+8up3kUFujzTzMEREGSxPQAV2OqeDfEHgeK2fXdG1DR/tW4xC5QDzArFcggkdsjnoRX4fnHLUrcuIqJzlsm9X6I+H/ANprxdeSckt3q0jobS8Ey9asVzunX+D1ratLwTIK+PxOFcHoghJM2fDXi3UvBuppeaXez2dxH0eNsfn619NfAT9tWLxDPDpXiryrS7bCRXqjbFKf9sfwn36fSvlSivTyPiXHZVUUsPP3esXsz08FmFfCyvTenbofpekwkUOrBlYZBHQinh6+Y/2N/wBoiSaePwlrU5fPGnzSHn/rkT/L8vSvpgPz7V/R+Q53QzXCLFUPRrs+x9/gsZDFUlVh/wAMT7jT42z1qur5pyvXs2Owsb8mnq2D+tV1bFPV6nlHcs+dgU7zar+ZuNG6kUfFHmcU4PUNKrYr7Y7rE6vTw/HWoM5FOD1NiScPinh8VXBp2/JpAeFft6fFF/DHgix0GCTZPrMheXBwfKTGR+JI/I18sabqPAya7f8Ab88WPqPx+Npu/d6bZRRoPQtlz/MV5JF4gh0+ASTypDH0LMa+Rzuh7SbnLZH4rxBXr4/N5UaMXJ35YpK7+SPQtP1Hkc1u6fqHPX/69eZeF/Glvq6/LNGJPMeMIGyTtYgHPTkc/jXXafqGVGDX55jcHGV+XU4cdlmOy+caeOoyptq65otXXdX3O90/UcEYrf0/Ucgc1wGmaiRjmt/TtQ245r4zH5f5GUJ3PNP2wP2bdT+L1zaazoJjfUbRSjxOceavpnt0/wA5rM/ZS/ZG8S6V4xtNY8VRRadZ6bIJorUSiSS6cdAcfdXPrzXvun6hwOa3NN1Hgc15mLznGQwf1NJdr9bH6dkvirxBluUyybCVUqbTV7e8k90mb9dD8MvEDaB4qgOf3cx8txnjmuYtbkTr71Zt5DFcIw6qwNfH5XjKmCxtPE03aUJJnxmFrOlVjVhumfRqyZpySYNZ2i3f2vSbeUnl41b9Kthsmv7aoVVVpRqraST+8/X4yU4qXctLNj0/GnpLuNVkmxT1cEVqOxZDA+leIft3fF1/hz8IDY20hS912T7MpBwVj6ufy4/GvaUfaP5V8M/8FNvGjXPxf0jSw58qxsfMK5/idv8A7GufFJuk0j5zirGywuXTlHd6feePabqe7Ga3rDUOlef2WsLFEWdlRF6szAACtbw74qj1MkIyZWQxhd6ktgA5GD05r86zDAxT1Z+SYTL8biKbq4ejOUVu1Ftfekej6bqHSt3TtSwwrhNO1HGK3NO1HHOa+Lx+X2voRCZ32n6lwOa8T/bT+AurfFS2stY0NftF7Yja0OceYvoK9M0/U8Yre03U8ivmaUqmBr/WKSu1+R9Jw9n+KyfHQzDBO04bdvQ+X/2Xv2XvFniTxdbXGuadLouk2Ugkmedhvmwc7UUE5z69K+20TYuB24rC03UOPetm2uBMnvXzHEGPrY2v7SaslskfVcaeIOZ8VV6dbMbJU1aKWyvv82db8IfFb+FfGts+79zOfKkHsa+kllDDP8q+R4ZDDMjjgqQQa+ovCWpf2j4YsZz1khUk++K/W/B3M5To1sBJ6RtJfPRlcKYhuM6D6amyshHeni4qskmKeJM1+1WR9eW1elWQg/8A1qrxzbR7U9ZQT6VnZoPUsRTZJ7YqRZMiq2eO1OV9g/8Ar0aMnlLSvmnK+DVZZ8n0qRHyKViSwJKcr1XV6er8VIFkP781Ik2eDVUSU5HoHe58pf8ABT/47v4a8O6d4Osptk2p/wCkXm08+UDhV/E18X6fqWSK6r9uv4kN42/ai8Rt5m+KwmFnEAeioMV5tpuo7cc183m2EdSXMz8Rz/MXisfOXROy+R6BoeqINQtVkPyzTKh57d6+5vgN8XoLDT4LWMqLZVEYj/hx9K/Oq8uJbizVoG/fwsJE56kV6X8JP2gZNJCpPHdCaMcr5Z/n0r+ePFfgfGZrRpyw0XJRvouj7/8ABP1jwqzjKsLh68cXOMKj1u+sbbL/ACPWv2h9MtPDXxg1KOxCx2dyVuI0XgJvGSB+NYGnalnFct4k8ez+NvEUuoXB+eXAUZ+6o4Aqzpup5xzVYbKK1DAUqOI1nGKT9T8yzPE0auOq1MN8Dk7eh3mn6hkda0VcOOK5DT9R245rcsdTVdoLKN3ABPWvncXgpJ6IyhM1K+gP2OfiO0i3Ph64kJEYM1vk9B3X+tfPyNvXNdX8E9ebw78T9JnU4DTiN/cNxXfwnmc8vzWlWjs3Z+j0PXyvEujiYzW2zPtRXp4fFVkmygPrTg/Nf1j5o/TbFgSc08PzVdZOKcr0rIRZDUr3CQRM8jhEUFmY9FA65qFWzXmX7ZfxBb4afsw+MNVjfy5l094ImHZpP3f/ALNSszLEVlRpSqvaKbPzm/a++P8AL8d/j5rGqCQnT7WU2dgmeEhQ4GPryT9a4jT9Q6ZNcFY6oZW3buWOTW7p2pYxzXzWZYBybk0fhNXFyr1ZVZ7t3PeP2ZfFdvo3jaa6k2mS2VUjyOVJ5J/LH619b+KPEtl8V/g3q2nXux2jtmuLd25MUiKWBB7dMfQ1+b+l+Jrrwrr32yESSQTgeZs5KEcZxXs+iftGzN4TntLUXAe5jMTO4K7QRg4zz0r+Z+P/AA+zHF55Tx+Hi2k4tNdErX9PM/oDhrPsko8KyoVakVLlkpRe7k9vUfZX+HxnoccGt7TtSzXBadqXIOa3dO1Dvmvqsfl2lup+HwqI7qzvPOXn86s1zWm6nnArasNRS53KHVmj4YA8r9fSvj8ThJQd0jqhPoaGn38ul30NzA7RzQOJEZeqsDkGvvz4MfESP4mfDvTtVGFlljCTqP4ZF4b9f51+f1fTn7AniVp9H1zSXbK28iXMYPbcCD/6CK+48NMzlQzL6o37tRfitj6XhzEunifZdJH0eGFO3VAjc809WGetf0FY+9cCfdTg/NVw+aer8VJDi0Th6XcahV6duoJPi6iiivtD1AzShqSigB6vnpT1OahBwaXfSJsfnz+3hK1h+05rIb+OKB1+hiX/AANfOfxT8RzWl9pvJ8j5vpu4/XGa+r/+CoXg99G+Jmh+IFQ+RqlmbZ2x/wAtI2yP/HWH5V8x3dha+ILXyLqPzUPb0rjzPK1icO4bXR+W5DxIuF+MlmlaHMoSbt1s1uvNdBvgjxe80sKISXdwFA9civbbLUwJeteS+C/Bum+GLgTW8bNKPuvI5bZ9M9K7nTtSAIr8/p8PSwqlzO7Z9h42eLeG41xOFeDpuMKEWry+JuTTfolY7/TdQwa29P1PnrXCabqe0jmt3T9Q5r5zH5efi0JneadqfyDmt/TdRzjmuB07Ut2K1Z/Fdp4fsTdX11DaW6Y3SSvtGT/Wvicfl976HoYWFStUVKjFyk9ktW/RHo1hqfStqyuhOBzzXkvgz4v6P4mcRx39otw0zwxxCYMZQpwGGPUYIHvXpXhKRtU1W2gj5aWRVFfH4nKputGmlq2l957GIy3G4SpGli6UqcpbKSav6XPozwsdvh6zB7QqP0rRV81UsYvstqkY6IoUVMr1/YmCoujhqdKW8Ypfcj9dox5acYvokWQ/FKr8VAHpVbNdHKaFkPg1+df/AAUple1/aZbfwsmnwlc/Vq/Q9Wr4T/4K2eD5LDxp4a8RIv7q6t3s5GA6Mp3L+harpU+eXIfG8d05SytyX2WmfHHxU8Ty2K6eilvJdyWA7nHGan8F+LtmNn3iQffNP1HS7bxLY+RdLuU988j6VZ8F+ArHw7eicSz3DocoJGBVf05r4ziLhmeIqqrB6H6J4R+O+UcMcNTyvF05OoueySup8y6vp5nsljqm9xz1AJ5745rd0/UcjrXAadqOcc10GnajXh43LmlY/matiPbVp1krczbt2u72O707UenNb2m6nwOa4PTr/kc1vafqGAOa+KzDLvI0hUO80zUdwHNb2n6luQc/nXAWmtpaQGSWVIY1GWeRgqqPcnirvhn4g6frErxx3Vt5iTGFVMyZlIAOVAPI5r4nHZa2m0j18Jg8VXg6lClKSW7UW0vuR6Va3YlUc819N/DglfBOm5/54CvlHw5M19qUEKjJlcIAPc19b6Fb/wBmaRa23/PKJU5+lfc+EmXzhisRX6WS+d7n1/CEW51J9LWNNZaeH96rq+TTt9fuh9yWQ+BTw9V1fFOWSgC0shPXNPE2KrK/NODYNK1wLYbNOB5qssxVe1PSck1nytAWFm9ak3Gq+c0oYgcUE8paV+Kdv+U/Sqwnx1FPV9y0muxNj8afj/qDD48+Ld5+f+1Jtw/4EaxtO1LOOa6n9vDwq/w8/az8W2pDLHdXX2uIkfeV+RXnGm6jjFdWKwPPBSR/O+OTp4qpCXST/M7vTtQ3DrW9puo9Oa43R4by8tWnhtLua3jBLypCzImMZywGB1H51qadqPI5r4nG4KEnJRd2tHZ7eoK6s2tzvdP1HgVuadqWMc1wunal71u6dqXTkfWvisfl251Qmd1Z6sIl3E4VRk+1fSH7OXhnwld6Zbya1pdnqly5Eqtcpv8AIJBGU9DgnmvkTVb6VtDuPJPzhMjHfHNd78Dfjh5QhVpdpUAEZ6V+NeI2TY2pgE8LJx11cdH5bH7H4UZfgsVXrTxKTlFKyfbqz2b44+A7f4beNfLsHL6Zep59vuOSgPVfwNY3g+Xd4n04qeftMfTt8wqr8UvimvjW4sFR94tIyN3uTVv4JWj6/wDEbSLdRuzcK5A9F5P8q8nhfA4ydDDLE39o2l66nzOf4fD0s6qUMH8HNpY+37JwbWPn+EVOr/lVNG8tAPTipBIa/s+NNqKR+gq6Vi2rU4PVVJiTUgam1YLIso+K+cv+CrtxJD+xjrZiPH2q334P8O//ABxX0OG4rx79vzwRJ8Qv2RvGtjEpeaKxN2igZJMRDn9FNaULe0SZ5ub0pSwNWMd+Vn456bqXyitzT9S6VwlhqBVsZ6cGt3TNQ3OPy4rtx+A0bP5+hM7zTdS6c1v6bqWSOa41rO+0Qx/bLO8tPNzs8+Fo94BwSNwGeQRWnpuo89a+GxeDjOPNTaa8ndHak4u0lZ+Z3um6jwK3dN1PBGTXB6fqXI5/Wt/TtRzjFfF5hl/kdUJnpHgiWHVvEdpazuVSViWwcEKOv9Pzr6u0X4WeDfHXga4srPT7PTtSdQ8d5AgWSWVUCr5h/iGABzXwTdeMZfDHiWxuwSImjMRPoc5r6E+Dnx+TT7VZHnGFG7r1r8A8S8nzNYilWwUpJJJq17N31v37H794eZVldfJKtbEKLbbUm7aJbencqFjaXckEnDxOUYehBxXv/wCwQxHjbXf7v2NP/Q6+aLnxEdW1q6uv+fiVpMemTmvqX/gn9pTNY67qhHyu0dshPfGWP/oQr9A4JwNV5zh5NarV/dqfmeTJPMUqesU39x9MK/HWnq+TVdXzT1bFf0ifpRYDmnBsmoN2KcH/ACpWAsB/lo31FvpfM+n50rMnlR8c0UUV9kdwUUUUAFFFFAHlX7Y3wSPxy+Ct7YW0YfVbA/bLH1LrnKj/AHlJH4ivzN3SafdNHIrJJGxV1YYKkcEEV+wxGa+Lv29/2NbiDULvxz4YtzLBNmXVLONctG3eZR6H+IduvrXZhpx/hyPzbjzh+piIrH4ZXlFWkvLv8j5h03U+BzW9puocda4e2uTC9bWn6jtA54rix2Bvqj8khM7zTtR4HNb2nalggZrgdO1H3re03Udw6/jXxOYZf5HZCZ32n6l05ryX9rvxRc2k+hx7mFpudj6Fz0z+ANd1pupYxzT/ABZ4R034iaR9i1KISxHoc8r9K+TnhIU6l6i0PuuAeKIZBnlDNakOaNN6rrr1Xmjxf4e+LZWv7ZICTO0qCLaOS2RjHvX6U/s2eFZNSvW1acfurcbI8/xORzj6V8x/stfsc6Zc+MI5dMguJTAQz3dy5dbYf7I6bvTvX3j4c0O38L6NBY2ibIYF2gdz7n3rp4e4ZhiMcsdNe5Dbzf8Akj984+46w/G+MwuKw9Nqlh00pSVnKTaf3L8TZV/l609H45Oapq+Kljm21+qnzpZD5p4eqwcN3H5U9X2j+XNKwFkSYryr9s34If8AC+vgXqWmQoG1K0H2uy9fMTnH4jI/GvT1k+anrJRGTjJSRz4vCwxNGVCptJWPxWYS6VeyQTK0csLlHRhgowOCCK19O1H5etfVH/BRT9jOfTtVuvHvhi0aS0uCZNVtY1yYW7zKP7p7+nWvjy3ujC3tXqzpxxEOZH875tllbLcU8PV+T7rudxpupbSOf/r1v6fqOe9cDYaltAwc/Wt/T9Sx3r5XH5fvocsJneabqeABmt7T9R6c1wmm6h0rc07UcCviMfgNzshO5yf7WvjS50zR9JtUZxaTylpsdHIHANcF4G8X+VPE8WFfepBX72civafGfgrT/iVof2HUEJQ8qw6qfarP7Nf7Fltqnj23S0e81WdX3IJsCG3A/ibA5x714GIwNOdNU4L3trdz+rvCDxoyrh3IZ5ViaTdX3uVKN+fmXV9PPyPrP9lHwnL4u8QQajcKfs9jEjuSODIVHH519OK9c38NvANt8OvCtvp1tz5YzJJjmR+5roAdor9B4ZyNZZg1SfxPWXr/AMA+Ly7CewhJtWc25Ndru9vlsTLJx/h2qVJfeqqtinK2TX0B6BcSQdaeHqmj4qSOftU8o9y2G4pwaqyTZapA1SIsK/FPRsVWU808PmgCyGqRJc1VD8U9X4pNXAtg5NLnniqyS49qkSUGs2mtgPhD/gst8B5Z49F+IFjCWEI+wagVHQdUY/yr4Z8GQNrniGxsd203U6xZ9MnFft98RfAmmfFPwRqWgavEtxp+pwNBKvcA9CPcHkfSvx4/aS/Z9139kX4zGxuo3ktYJ/tGnXWPkuos8c+uOCK9SlUnVwdShS/iWfL620/E/KuLMljSzGnjpr91Nrn8tdfvR+l37Ltx4b8E/D238N21hZNpjw+XcwvGGW5JGGL/AN4n3r4o/bQ+Fun/AAU/aA1PTtITytIulW8tI85ESOM7R9DxW98Fv2u9HstNiuLrU4Lby1y8cj4cH0x1NeTftG/Hn/henxSm1dAyWsUa29uG6si9z9a/knwp4S4iwXFWKr4xTVKSl7TmvZzvpa/X06H6D4pVsm/sehHCSi5XXJy2vy212INO1LpzW9puo5xXB6bqOcEGt3TdS5HpX71j8v30PwaE+532m6njvVyx0PTzei48hVkzk7WIBP06Vyem6lnFb9hqOSK+LxuElG6R2Ua84O8G16Ox3emalkAV9OfsM+BZLy+uvEU6fuYQbe3J7sfvEfSvm34JfDvUvi94xt9K09DgkNPMR8sCd2Nfob4C8HWnw+8KWWk2S4gtIwnu57k+5NHC/DntcYsZUXuw283/AMA+14Uy6det9an8MdvNm+rZp6vzVdXGfT0p4PpX6pZo/SCdWqRH2niqyvT1kxRowLSTUy+sodVsJra4QS29zG0MqHo6sMEfiDUQepEmKip5LaoNHoz8M/2vvgZefs3ftC+IPDk0bLbRXLTWTnpNbudyMPwOPqDXafsGeEtL8TfE06lrEEV3aaQqvHDKMo8pPBYd8Yz9cV99/wDBTH9iQftT/DhNY0SJR4v8Oxs1sB/y/RdWhPv1K++R3r8wfgn8Sp/gr42u7TUVls1d/KmDqQYJFJBDDtWPHFLG5jwxiaOW39s4203t1t52PzXKMnwmX8UUlmGlBu6b2v0T9GfqR8fPC+h/tH/s96tZXltbPqmmWcl1pdztHm20iLuwrddrYwR059q/MyyvzFIVPY4NfQ+q/ty6X4T+Gt9FY3sV7qd7bPBBHE27YWBXc3oBnNfLFlq/muST8zHJr8O8C+GM4y7L8VRzCMlSc7wUr3296yfT9T1/F7EZdPMKX1OUXPl97lt8r26neabqWMVvafqGMc1wWnah0re07U896/UMwy8/KozudvHJDqVsYZ0WWM9VYVr+GrO10f8A1CbCeMlix/WuO07Ucgc1vafqW7qa+Kx+Cly8vQ7qWInGLjGTSfnueg6PdPdTxxxgvJIwVVHUk9AK/Rv9nP4d/wDCrvhTpmnSgC7ZPPucf89GGSPw6fhXy1+wJ+zXceKdSg8aa1CU0u0bdp8Tj/j5kH/LTH91e3qfpX2qG2iva4RyFUHLG1FrLRen/BP0fhTLpQh9aqaX29C2G5p4eqiSc1Ik3HNfcOHY+zLSvzT1eq6vTleoAshqM1CHp3mH2oA+Q6KKK+wOwKKKKACiiigApHQSIVYBlIwQRwaWigD5i/aT/wCCc+lfEK5udZ8ISRaLqshLyWbDFpcN1JGP9WT7cewr4+8f/BLxd8H75otf0K/sUU4WYx74JPdZBlT+dfq9UV9bx3lo8csaSxspBV1DKfqDXTDEO3LLVHxOc8DYHGSdak/ZzfbZ/I/JHS9VxjJresNTx3FUPiRGsXxa8SxoAkaarcqqKMBQJWwAPSrWlwIYxXyPFWdYfLNKsHL0Plsq8OsZjZ2p1YpedzrfC9te+ILtILG0ubyZuFSCMux/ACvoX4N/sc61r8kd34jLaRZcHyAQZ5B6Y6L+PPtXa/sA2sS/BJpBGnmG+lBcL8xGF717puqctwOHxtCGLmtJK9j6fB+H9DC1WsXP2jXRaL/Mp+EfCWn+B9GjsNMt0treMdB1Y+pPc1qB6hD04PX0cacYrlgrI+yhTjCKhBWSJ1enK3FQK1OD8UFFlX4pyy7vWq6vmnB6ALaNuHvTskVV8zNPjkw3egCxNFHcwtHIFdHG1lYZDA+or5I/ak/4JlWXi64udc8BvFp1/ITJLpkh228zdT5Z/gJ9On0r6zWQfSpFlz74qqdSVN3iedmeUYXMKXssTG66PqvRn48eNvhj4k+FGqtZ+INGv9KmU4HnxEK/urfdYfQ1X0/UsEc9K/YbWdDsPEti9tqFlaX1uww0VzCsqH8CCK/Jr486Zb6H8e/FNlZQx2tpb6jIkUMSBUjX0AHAFdFWrGpSlUmvhPzDMuAqlCcVhqt1J7Pcbp2p7gPmrf0m7e5kVI1aRmOAqjJJ+lcxpVqjQ5r7m/4Jp+G9NuPhpqN/JYWcl8l8UW4eFTKq7egYjIr86oZ3g8fjfqNKLT11e2h6lLwwzCNJV69WKj5XbPOfgf8AskeKviXPFPe20uiaUcEz3SbXcf7CdT+OBX2P8KvhLo3wj0NbLTIcMQPNnfmSY+pP9K3lkxTg+4V9Lhcto0Jc8Vr3Pr8o4ewuXq9P3pd3+nYtLNjoePepEmDCqqS4HpTg1dx7di0km4U4kAVWDYHBp8cnrQSTK2Fp26owwJpwAJ9KmwEokyKlWfNVc7KcHqWu4FxZM05WxVNX5qRJcH+lS49gLavUgbFVUmBFSB80tQLAfinK2Krq1OWSkBZD4/OuK+Pn7P3hv9pHwLNoXiO0EsbDdBcJxNav2dG/p0Nder09XpptPmjuZ1qNOrB0qqvF7o/I79qT/gn741/Zs1S4uksptc8NKxMeqWkefLXsJUHKH36e9eK2d7tOCea/d1ws0ZR1DowIZWGQfrXz7+1J+w18MvG/gfXdcfw3babq9nZzXSXOnf6MWdVLDcq/KeR3FetDMfaL2dZfM/M828P9XVwE9P5X+jPzA0zUsYrf07UugzXF6czPOy9NrEV0mn2pVAc18vxDmmX4F8uJlZ+SueNl/A+c4v8AgU01/iR1mnalkjmvcv2dv2W/FXxyvYpIbWTTtHyPMv7hCI8f7APLH6ce9fRv7F37JfgJPhH4b8S3OhwajrF/apcSS3h85UY/3UPyj8q+lbZEtY1jiVY0UYVFGAB7CvOhltHEJVW/dep9Jl/As6c746W3Rf5nM/Bb4KaL8D/DK6fpUOZCAZ7lx+9uG9Sf6V2qycVW35p4evXp0o048kFZI+9o0oUoKnTVkiyHp4fPvVUPx6VIknFWa3LavuFAbnpVcSYPv9acknzfSpcQsT7sGnh6iEoYc8U5Rxmos0InSTFfKX7d/wDwTI0T9peK58R+GBb6J40275CVxbamR2kA+6/+2Px9a+p84pyyYrajXnRnz03ZnHjsBQxlJ0cRG6/L0PwX+K3wQ8W/ATxI+l+KtCv9GukJC+dH+7mH95HHysPcGsjT9R/z6V+9njLwNofxI0GTTfEGk6frFhKMNDd26zJ+AYcH3Ffmt/wVl/ZH8C/s4WHhjV/BumPpUmt3c0NzAs7tAAqqRtVidv3j3xXu0swjiv3dRe8fl+Z8CVqF6mFmpR7PRny1pupdOf8A61b2n6l05rjdGQz45/KvYf2SfhlpvxV/aG8LeHNY859N1S6Mc6xPsdlCM2A3bkCvis1znLaVdYaUnzt22Fg/D/O60PaRguXu5Ir+F4brX7+K1sra4u7mZtscUEZd3PoAOTX2t+yV/wAE5b3UZbfXPiBC9pajEsOlbv3kv/XUj7o/2ep74r6i+E37PPgv4I2nleGdAsNOfGGnVN87/WRssfzrt1kx3rP+zKLnzTVz6bKeDaeHaqYuXO+y2/4I/TrKDSbGK1too4beBQkccY2qijoAKnV6gWTinLJmu7lWyPs7W0RZV805Xz1qur/lTlelZoZZEnPWpRPtPf8AKqgfNPD0DLiyZFG41WWTH/1u9O80+v6VPIUfKNFVGmcH71RS3bqfvGvrbM6rmhRWVLfzKOHP5VWl1S4HSQ0WFzI3qK5p9YuR/wAtWqJ9buwP9e36U+UOdHVUYzXJHX7zH+vb8hUZ8RXoX/Xt+Q/wp8gc6Oxps3+qb6GuO/4SO8/57t+QpJPEV4UP79unoKFHUzlVVj80fiV/yWDxR/2Frr/0a1W9MG2IfSs/4gMZPir4kJ5J1S5JP/bRq0tNObb8q/MPE/4ka8G/E/Vn3L+wF/yQxv8Ar/l/kte4V4f+wF/yQxv+v+X+S17exwK+v4Z/5FVD/CdmO/3ifqLShsVDJIVBqJpm2/er3TjuXQ2acHxWXNdSKPvGojfyoOHNOwnY2w2acGxXOTavOBxIfyqFtcuQMCZqXIRdHWBuKcr4rjm127H/AC3ageILsD/Xv+lLkDmR2gfBp8cmDXEHxDeA8Tv+lA8RXv8Az8P+lLlYudI7sSbhX5N/tF8/tHeMP+wnJX6WL4kvSP8Aj4f9K/Mr47StP8fPFTscs2oOSfWnUX+zVfQ8zMJXqUrdxmjjbbGvuv8A4JoN/wAWd1P/ALCB/wDQa+FdI/1B/Cvub/gms234Q6l/1/n/ANBr8S4V/wCShfpL8j7rFf8AIvXyPpVZeKcHquJPanq+K/Z7HzZYDYpyyc1Ar8U4PU2AsCTFSLJ+VVQ+BUitU2YFjfinpL+QFVVfFSIw/wAaRNiysu4d/wAqcTmqrTbT1/Sg3jA9qBWLQHGacH5qk9623tUZ1Rh/dqbCNQSYqRJiBWE+vSJwAtMPiSZegT8qLMVzplf5etOEma5RvFlwoPyx/lTT40uYx9yP8qnkDmR2AbmnB647/hOroD7kP/fNIPHt0D9yL8qnkYuZHaiSub+NbZ+D/if/ALBdx/6LaqP/AAntz/zzh/I1zvxf8b3U/wAJ/EiFYsNptwCQP+mbVpSg+ePqjOrJcj9D8gtOOL2X/fP866qx/wBSK5TS2zdP/vH+ddXZnMS/SvzDxL/3g9Xg3+GfrT+xycfsy+Dv+wdH/KvTQ2415d+x+2P2aPBv/YNj/lXpiy59K+4yyP8AsdN/3V+RzYj+LL1LKttHXinLMD7VUE5A5pPtRVeMZ967bPqYOxoK+acr4rLbVHQ9jUcutyRnotLlINtGxT1eubPiSZTwENMbxZcxjhYvyNLlYuY6pW4qRZMfhXHHxndA/ci/EGg+Orpf+WcP5H/GjkbHzLqdoJvmp2PT/wDVXD/8J/dr/wAs4R+f+NL/AMLCvEP3IfyNJ0iedHcqSK+DP+C6jf8AFC+Af+whc/8AoCV9er8Rbsj7kX5GviT/AILR+Jptf8E+B1mWNfKv7gjaP9hK68vptV0/X8jix817B/I+IPDvLrXv/wCwHx+2F4F/6/2/9FPXgHh45kWvfP2CX8v9r7wMfS/P/op6/Gs//wCR3D/EvzPs8o/3CXofsB5u009Js1WMu85HQ0qPX6k4nzZbD5FSK9VFmI61IrZFRa24aPcshqdv4qvvp6PSJcSdWxT1fNQJJTg9KxJOHp24VCr0vmUuXsB8ov0NQT/0qy8LkfdqGW1kb+E19Xc7CpKM4qpN901oyWErD7hqtLpc7D/VtTRNjPkqB+laD6Pcn/lk1RPod0f+WLUxWZQPSo3+7V86FeY/1DUxvD14R/qWqkFmUKR/uH6Ve/4Ry9/54N+dH/COXn/PBqS0ZlZtH5l+PP8AkqfiP/sJ3P8A6MatHS/+PavoX9oH9gPxB4g8d3Wu+ForeRNRkMtxaTSiIxyH7zKehBPODjqaxPCn7BHxAvL2OG7tbDT4SRvmkulcIO/C5Jr858QMBisbKP1aDlfsdfDK+rSl7bQ99/YDGPgVn1v5f5LXtz/drnPhN8NbP4SeA7HQ7ImSO1XLyMOZXPLMfqf6V0ZGRX12S4SeFwNLD1Piikmb4qaqVZTXUiccfjUUgx+VTuhqJ4WbtXqI5SrOOPwqB+lW5baRx901E1jKR9w0AZs5qBjgVfm0ydz/AKtqgfSLnH+parIKTvzTc1abRbpv+WL0z+w7sH/UvQIrhtoPIpqtg1aOhXZ/5YP+lN/sG9/54tVJkcpHG+Rzivzb+N3/ACXfxR/1/vX6VLoF7n/j3avlX9p39hbxPrXxBuvEXhbT/t0Oot5lxaiRUkjkxgldxAIP1zWdf/d6kV1RxYujOUoSS2Z8/wCknFufwr7j/wCCbrbfhBqXb/Tz/wCgivm3wx+xl8Sb25SB/DU9pvIBkuJo1RPcnca+2f2dfg6nwO+G1tpBlWe7Yma6lX7rSHqB7CvyHhXKcXHOp4qcGoJPV+Z9jisRD6lGmnqeipLmpI2AHHSqYkzT1lx3r9YPCLaybjTw1VvNyBTll3KefpUtDLO6nq3FQB+OtOD1IiwHpweoEenB6VgJS1NLYpuc4phJxzS5RMc7Z6/Wopz1P9KWViq9KgkyT0IosQRu1Qu2TT5QT/CfyqB9w/hb8qdjMbI4/KoM+9OaJ933T+VReU/9x/8AvmiwmKZPSl835c8U1oXI4R/ypFgk2/6t/wAqCbMf5m8jpXP/ABaP/FrvEP8A2Dp//QDW8tvJ/cf8qp+JPDp8SeH73T5FkVL6B4GYKflDKRn9aqFlJNkTTcWkfkZpHNy3+8f511lrxCPpV/4l/s8eKfg540u7DUdHv/KWVvIuUgZ4bhM8FWAx07VtfDP4LeJvidrltpmk6NfzzzsFLGBhHEP7zsRhQPevy3xEpzrYqKpJu76I9jhP93TftND9Nv2QJM/s1+Ds/wDQOj/lXpauAa5P4ReCB8NPhpoug7xIdMtI4GcdGYDk/nXTB6+7wNKVPDwpy3SRzV5KVRyW1yXPJpsjcUzzeaa7EiuoxCV+frUErbuD25pZSQOmarzZ3dKZAyR+arseKlkVvRvyqAo3ofypEMaXx/jUMkgJp0qvt5VvoAai8lyM7H/75NUhBvxQz5pPJf8AuP8A980nkybvuP8A980W0FbQckm7vXxr/wAFhW/4o7wXx/y+3HP/AABK+yFhkB/1b/8AfJr5+/4KL/s5638ePhLYy6Day3eqeH7lrlbZR89xGy4cL6twCB7Gt8JOMaqcjjxcJSpNRPzs8O/fWvev2ERj9rnwP/1/H/0U9eM6Z4H1nSb0291pGqW88TbXjltXVlPoQRX1x/wTb/Za8S6z8ZtO8Y6lpt5puhaHvljmuIzEbqUqUVUBGSBuJJ6cCvxzN8LVrZ7BU4t6r8z7PLakYYB8z6H6SD7opQ2BUSSjvT+vSv05o+dJVfBp6vVdWx604SUvUC2ktPD+9VBJinq+ank7AWxJTt3NVopOetSBxnrUaoCwGzRuqEPgUb6QcvY+aqKKK+nOwKKKKACiiigAooooAKKKKACiiigAooooAKKKKACiiigAooooAKKKKACgUUUAODYpyvxUdAOKBWJg9ODVAH5p4fNJ6k8pOGzTlOKgD07NQIsBqeG5quHzT1bmgCxHJzUgk2HrmqofFPD0AW1kz9aeGqqsmTzzUinBqbAWA1PVsCq6vk08Ng0rATh+aeH5quGp6tUtATpJ365qQOP8mqwanhs1NrAWFbcfT2qRZecH+dVlanK9IVi0jg+1PBwKqA1IsnIoJ2JydvTmlWT3pitTgaVhDw4ZcEA/WpEcL90Yz6VXDfNTlbmosgLKy4FSCQZ61VDcU9HpNXAthqcr81BG+8e9OWTIqNgLAfinq+arqacG5oAsLJz1p4f3qBWxTlegC0ko+lPD5qqHqRZSKhxfQCyren5U4Sg+1QJJuFOB3VOvUVkywrcVIj4NVg+Fp6vkf/Xo0ZNidgspyyqfcipVmPrVZWxTweajltqK7LG7JqRJSBVUSU8PgUDuWxPjtT1bcKqq+KernHelYNGTk4pwbFQrIcU5PmGajlYicNkU5ZMVCKcr8UeoFhZjj1p/mH0qsHpd9S4pgfO1FFFfRHYFFFFABRRRQAUUUUAFFFFABRRRQAUUUUAFFFFABRRRQAUUUUAFFFFABRRRQAUUUUAFKh5oooAfTlPJoopGY6nJ0ooqAHp1qRf6UUUAOU/LUsBzmiigCSnIciiik9gHoeafRRUAKh5p+aKKAHjpSqeaKKzAkp6/doooJkOz8/41P0oooJFQc0N96iipYCp0p6feooqQHg4qcdKKKT2KWwo6VJRRUEjk6U4UUUAPHSnoeKKKAH7iBUkJyDRRUMCVetCff/GiioQ5bE1Kv3qKKb2Mhyfdp6H+VFFQA9OtPzRRQBJmpYzz+FFFSxscx+WhPu0UVnIQ9OlOooqgP//Z;" vertex="1" parent="1">
          <mxGeometry x="80" y="-2880" width="601" height="338" as="geometry" />
        </mxCell>
        <mxCell id="M5O5Atzd3mQ9mtBAptJ8-2" value="사진 출처 : Uniry Learn" style="rounded=0;whiteSpace=wrap;html=1;" vertex="1" parent="1">
          <mxGeometry x="85.5" y="-2540" width="590" height="30" as="geometry" />
        </mxCell>
        <mxCell id="M5O5Atzd3mQ9mtBAptJ8-3" value="" style="shape=image;verticalLabelPosition=bottom;labelBackgroundColor=default;verticalAlign=top;aspect=fixed;imageAspect=0;image=data:image/jpeg,/9j/4AAQSkZJRgABAQEAYABgAAD/4QAiRXhpZgAATU0AKgAAAAgAAQESAAMAAAABAAEAAAAAAAD/2wBDAAIBAQIBAQICAgICAgICAwUDAwMDAwYEBAMFBwYHBwcGBwcICQsJCAgKCAcHCg0KCgsMDAwMBwkODw0MDgsMDAz/2wBDAQICAgMDAwYDAwYMCAcIDAwMDAwMDAwMDAwMDAwMDAwMDAwMDAwMDAwMDAwMDAwMDAwMDAwMDAwMDAwMDAwMDAz/wAARCAFQAloDASIAAhEBAxEB/8QAHwAAAQUBAQEBAQEAAAAAAAAAAAECAwQFBgcICQoL/8QAtRAAAgEDAwIEAwUFBAQAAAF9AQIDAAQRBRIhMUEGE1FhByJxFDKBkaEII0KxwRVS0fAkM2JyggkKFhcYGRolJicoKSo0NTY3ODk6Q0RFRkdISUpTVFVWV1hZWmNkZWZnaGlqc3R1dnd4eXqDhIWGh4iJipKTlJWWl5iZmqKjpKWmp6ipqrKztLW2t7i5usLDxMXGx8jJytLT1NXW19jZ2uHi4+Tl5ufo6erx8vP09fb3+Pn6/8QAHwEAAwEBAQEBAQEBAQAAAAAAAAECAwQFBgcICQoL/8QAtREAAgECBAQDBAcFBAQAAQJ3AAECAxEEBSExBhJBUQdhcRMiMoEIFEKRobHBCSMzUvAVYnLRChYkNOEl8RcYGRomJygpKjU2Nzg5OkNERUZHSElKU1RVVldYWVpjZGVmZ2hpanN0dXZ3eHl6goOEhYaHiImKkpOUlZaXmJmaoqOkpaanqKmqsrO0tba3uLm6wsPExcbHyMnK0tPU1dbX2Nna4uPk5ebn6Onq8vP09fb3+Pn6/9oADAMBAAIRAxEAPwD9HAacr5NVw/FPEnNeDZmZZVyoqRJd3WqoenLJmjR7lXLYbAp6tVVJMetPSXc2Khw7FFkPmpA3NVlanh81AFhWzT1ORVcPTg3NAFhX2inI9QK+acJMGkwLG+nhsCqyvUmc96XKzOSuThs09G4qur4FPD1JPK0T5pyvjrUIf3pwegksB+KcrZFV0k5pwk5qeUdy1HLk84qQNVNXyetSI3IqSrlsNkU8PiqwmBP/ANapFfIoGWFfinq1Vg+aeJOKiwFgPTqrrJgVIsuDSAtRP8q08tmqnmc06OTBoAtxsc+lSK24VXWQU7fvWk0Q4lhWwKeDiq6vt5608SAjrUGbi0ToeKeHxVSS6jtkLySLGo6lmwBXM/E3406H8KfBtxrV/eRSQw8JHE4Zpn7KMdzWNfEUqMHOrJJLV3IlUjBc0nZI7JJc/wCzUivkfeX86/PD4vftueNPiXfyrZX0mg6XkiO2tG2uR/tOPmJ+mBXnen/FXxNpV8Lm38QaxFODnet5JnP51+bYrxOwVOryUaUpR73S+5Hg1eJaMZWhFtdz9V1bFOHIr4Z+Ff8AwUg8Q+EdDmtPEFgniKVExbXHmCGQH0fAIYe4Gaqap/wUt8eXF6z2dnoNnDniPyGkOPclv8K9L/iImT+zU3KV30tqvXodH+sGE5VJt37WPvMNTlbFfI/wb/4KWrqmqQ2PjDS4LNZmCi+sy2xCf7yEk49wfwr6usNRh1OyiubeRZoJ1DxupyrKehFfR5TnmCzKDnhJ3tutmvVHoYTHUcTHmpO5cV8mnq2KgEnFOWTmvU5TsLAPFSRyc4qsHzT1bAqQLW6nDO2qoepUlBGPQVHKFrllJM9akDc1WVwxp6ybe9LUlxLAOacG5qqJsnpUgagksB8GpA9VlbNPD0AWY5MGpQaqLJmnCTnvUShcC4rZpwOKqpIc/wCNSiXFRZpgT/epR71EHzT1fFLcB6vjpT0fmoVIzSlsGlYC3GxYdqdVVWwM5pyybT/nmp5QLStxTqrifPapAcVIElFND04NmgAooooAKKKKACiiigAooooA+PQ+RTg+ariTHenq+TX2B1crJ1finBsVCr05WoJLCvTg9Vw9SB6nVBcnWQgcVJHJu61WD04PmjR7lXLe409JOKqpMQKkjk3ms3HsMsI+DTw/FV99PR6kZYV+KeHqsHzUgkzQBMJNtPV6gVsinB6VgLCvmnB+arq/FSId3SpszPluyffT1kqvuIFOV8UiXFosBqcr4NQB8inB+KCSysmKesxHeqytzThJU8pXMW1mDU8PnoRVNHxUiPg/SpHctq9PD81VWbPWpFfigZZD04NVdXp4ep5QLCv0pyvjoarrJzUivUgWUl3da+dv24f26Lf9muzj0XR1gvfFV9HvVXOY7JD0dx3PoK9213xLp/hTSpr/AFS9tdPsrcbpJ7iURRoPdm4r8aP2mPiyfip+0H4o1pbtby3uL51t5FfcpiU7V2n0wM/jXmZrWqU6LVLd9ex81xNm0sHQUaT96Wnou513iv4+eKvihqkl5r2vajqEshztkmIjT2VB8oH0FGna7I67WkkK+hY4rzHStXwR83610ulavkivxzNsDObcpttn5xHEym7ybb9T0W0u1nUD+Kp65fS9WBC/NXQWV6twvXmvgsVhJUpHXCfcsUUUVxGoV9efsgftoeHPBPw1ttA8WalcW11ZylLeUwvIgi7AlQcYr5Dor1slzrEZXiPrGGte1mns0dWDxlTDVPaUz9YPCHjnR/HulrfaLqVrqVq/SSCQMB7H0Psa11bmvzC/Z8+NWpfBL4hWeoWk0n2OSRY7yDcfLmjJ5yPUdQa/THS9Uj1bTbe6h+aO4jWVD7EZr944V4nhm9Ftx5Zx3XT1R9zleZrFwd1aS3RfV8mnBs1XR+KkV819UeqWA9ORsVXD05ZM1PKBYEnvUqzZNVQ2aer8VFgLQfIp6tsNVFbNSpLnrSaAspJvpytVdW44p2+p1J5SyHzT1bFVxJjr+dPWT8aCSdZOaejVXDU8PmgC0JqkWQetVFkzSh+ahwQFwPUgaqonyP5U9Jc1FmgJycjrTicVCHzUgfilowJFbFOWTbUIPFOzilqBYSbNSK+elVFfAp6SYHBqbAWg3NOzmoBMMfzp4OakCSimq3NOzQAUUUUAFFFFAHxiJVxT9+aqCSnLLgV9o4djsLivzTvMqrFJlsVKGwKmWj1DTqWFbmn76rK/NPD0rE8rLAenh81WDVIpyKViScScU9ZNtVw+KcrZqbMCwspz96phN939aqK+aeHqdHuVzFoPkcGpFkqmrY6VIkpZsUOHYotLJTw1V1enhveswJ1bNPR8Gq6tTxJQBZSUZpxYZqur5p280AWA/NOWTAqHzMUK+anlJcUWQ9PV8mqwbFPU8VJnKNiwGpweq4bNPD4FBJZjcGnpLiqyvTlc5qeUrmLazhvanq9VFenpLUjuWw/Nc58YfizpfwQ+GGseKtZl8vT9Ht2nk5wXIHCj3J4rbSY556V8df8ABcbVNQsf2LG+xtItvLq9ut3s/wCeeeM+2a1w9H2lRQ7nDmmKeGwlSvHeKbPgj9p79ubxh+1n4ymvNYvpbbRY5D9h0qKQi3tk7ZX+J8dWNcFperYx81ea6Vq3A7V0ul6r0+atMyyu2h+EzxlStN1Ksrt9z0rStVzjmui0zV8ED+teb6Vq2K6PS9Vzj5q/PszyvexvTqHpOlar935q6XSdT5HNeZ6XquMc102lavwOfxr89zTK32O6lUPRrK/E6gHrVquT0nVcsuWrorG+EqgE18Li8HKnK6O6nUuWqKM0V55sXPD2ky6/r1nYwrumupkiQepJAr9T/BunNonhfTrNjua1t44yfcKBX5TRStBKrozI6nKspwQa+6P2EPj1e/FDwZc6Tq0zXGpaLtCzMfmliPTPqR0zX6b4Z46hSxc8NP4prR9NOh9Hw5iIQqypveWx9DB8U4PkVVV6kV8H2r9tsfZ3LAkyetOD5qvHJuY1Jv4qSidGp6viq6txTkegCyrcU5XquH4pyyYqeUCysmDUiy881VEhFODcVLiBcEmVpyOQOuKqqcinJLtPtU8oWLaP609ZMCqySnofSnbvpUk8pZD1IrYNVRNUgf5aCSwr5FOR6rq9PD4NAFtJMdakWTIFUg3NPD5FQ4IC4r8U4PmqqzFRUkcpZqhpoCwrZp2ahVqcrcVOgEu+niX/AGqhB3U7pRYCwkuDzT1lz3qqGIpyNU2AtBuafniq6S8/MakD5qQJKKaH5o30AfEvme9PWTmoUbeOafuyM9q+3s0dhMslOSXHTiq+7HNOWTPtR6gWkmzUisM+tVFfinxybTxUuPYC2JMGnh6qif2qRJd1RytBo9ywJNwpyvg1AH5p4kzUkuPYsCSnK+KrpJTw9BJOJKcr81Ar8U9XxU8vYCx535VIs3PNVQ+aeHwKPUq5bR8jNPV8mqiSYapFmz96p5ewFoPinLLgVXST0pwfNZ7FFgPk1IHquHxThJQBYR6cHqBXp4fmlYCdXxT0lqvu4pwkxU2JaLAkwakDmqyyZp6vSM5RsThs08PzVcPTlegksLJivCf+Clvizwb4a/Y38XDxx5j6Ze25t7eGLHnS3J/1QTP8QbnPYV7krcV+Z/8AwcJeLb9B8P8ARVaRdNkE926g/K8gIUZ+gJruy3DqriYxvb/gHjcQYz6tl9Spa+lvvPzWsr7ypO+M8ZroNL1bp8xrlKsWd80DYzxX22MwUaiuj8EjUsz0bStV24+auk0vVsEc15rpWrjb/wDXrpNK1bJ618HmWV76HdTqHpWl6qMD5q6TSdU3DrXm+largrzXRaXqnA+avz/M8rOynUPStK1fLL81dJpeqcD5q810zVM45rpNL1bj7xr89zLK1qd1Ooekaff+YmDVwHIrj9I1XgfNXRafqIkXk8V8HjMDKnK6O6nU6F6vqv8A4JpeF7iO+8Qa0ystsyJaoccO3U/lXg3wH+Ecnxs+IFvosd3DZoymWWR+uwddo7tX6GfDjwDpnww8KWuj6XCsNrbr/wACkbuzH1Nfc+HeQVa+KWYz0hDbzf8AwD6jh/AzqVfrD+GP5nTK2aeH4qsrYPFSLJkc9a/cT7RxaLHmUJJtaoVfinB6Nybk6z/hUqyhhVYPineZjpU8pSkWVfinb6qrNmpVODUlFhXxTg+KgElOD8UAWBJTlbFV1anq9TygWfN+XbTo5tq1XD04PU8oFsOCKeJPQ/rVMSVIJeeKnlAtLNmpBLmqqSbs05GINSTyloNmnh8Gq6y49KesmehoJJ1fJp/mVXVuacr0AWknwKkSTcPSqivzT1kzUciAuK/NOEuaqpJipEkwOTUcrQFgPQGwKiV6ej0twJFkzTw+RUQfijPFKwFoTYHSl88e9Vlel3GpsgPihZcGnedn/wDXVcNinCTNfdHbctJMGPNODZJqqrcVIr4HWpcR7lgGnCTFQpKCvP8A+unqwNTy2JJ1kyKcsuBVcnbTlfJpeTAtpLup6viqaPg1IJfeocOwFoPUgkyKqLM2O1PSTcKlxa3DctJJgU8Pmqwfinq3FSTyllH4pyvzVcNxTlfJosSWA9OEmagDHNcN8VP2htD+Ff7iVmvtRIyLaE8r/vHov864sdjsPgqTr4qajFdX/WpnWr06MOeq7I9ER+9SCcgV8v3n7cutNcsbfRdPjhzwryOzY+ox/Ku1+GX7ZGleKryO01q1GjzScLN5m6En3OMr+PHvXzGD4/yPFVlQhVs3tdNJ/Nnn0c9wVSXIpa+ase3Ry7ulPWTmvNfEn7UHgvwzOYm1QXci8MttGZcfiOP1p/hb9qPwb4nuVgTVPsszcKtzGYwx+vT9a9Z8QZV7X2CxEObtzI7P7Qw3Nye0V/U9LV6cr4qrFcLPGsisrKwBDA5BqQSV63mdhY31Ir4FVw9OElAFhZKcr5NVw+TUgelZBYnEnFPV8VXVs05GzS5WTylhXxXzT/wVA/YnuP2y/gjHForQx+KvDsjXWnCT5VuRjDQk9tw6H1r6SD04PxWlCtKjNVIbo48ZgaeJoyoVleMtz+bvx38Ptc+F/ia50bxDpN9o+qWblJba7hMcikex6j3HBrHr9bv+C9nhH+0P2b9D1eGxgkkstWVJrkQgyIjKQBuxkDPbpX5I1+g5fjPrNFVWrH4Ln2Vf2di3hk7rdPyZNaXbW79eK6DStW6c4NczU1reNA454pYvCRqR0PLhOzPRNL1UjHzfrXSaVq3A+avNdL1g/LXS6RquRXw2ZZX5HZTqHpWl6r935vyro9L1bkfNzXmulav0+auk03VMkc1+e5llfkd1OoelaXqvC810el6p0+avNtJ1MuRjLdsCvZvgd+zf44+NF/DHpOh3qWbsA97cRmK3jHrubGfouTXwWOyWpVlyU4tvyPSwsalWXLTTb8j3j/gnlpNxrnxrF3GrG30+1d5GxwN2ABX3iHzXmn7N/wCz/pv7PfgiPT7VvtWoXGHvbsrhpn9B6KOwr0ZWyK/R+F8llluCVGfxN3flfofq2S4GWFwyhPd6stCfA71Ij7hmqgk5p6ykCvoz1i0r4PFSCT1qqs2BzT1kLg0uUlxTLKtg08PVZT/tU9ZOPmqbGfK0WA4YU9HxVcPtNOWTmkSWBLipEkytVQ2RT0c4qeUpMsLJ81P31XR/WvH/ANov9svQvgSzafDGNY17Gfssb7Ug9PMbBx9Bz9K4cdmGHwdF18TJRiu/6GdfEU6MOeq7I9qVvSnh8e1fAGs/8FHPiHf3jSWraTp8WfljS08zA9yxJNdl8If+CluopqcNr4y0+1mtJG2teWSFHi9ymSCPpg/WvlMP4g5RVqqlzON+rWh5VPiDCSly3a82tD7QElPWTivnvxr/AMFGfAXhaXy9P+369Jj71vF5cY/4E+P0FUPCn/BTLwbrWoLDqWnappEbnHnMFmRfrt5/IGvVlxTlEansniI39dPv2Ot5rhFLl9oj6VDZqVZsVi+FvFmm+NNDg1LSry31CxuF3RzQvuVh/nsa0g+RXuRlGUVKLun1R3RkmrotiT/ap6tzVQPTxKT3o5SrFrzSDT0m3VWEuDjNOzgd6mxNi0Hpyvg1XRyfpUgORQSTrJzT/M4qurcU4NmgC0ku2pI5s1UV+aeHxUuIFzfTlaqqzE96kScVnytAWN9Lx/k1Er59KdupAfEIbFOWSqol2jtTo5uPmr7m1zt5WWxJTxJmqwbmn78VOwiwHzUiyYNVlkxT1kyaB3LSz8c80/dkcVUV81IJMd6lxHoywpIpyvxUAm2jvmnody5qeWxJOr8U5JOag3bfWlD5qb9wLYm9akSUZ4qmsmBUiNzxS5EwJb3UYdNs5Li4ljhhhUvI7nCoB1JNfOnxN/4KEWOmanJZeFrNNQ8slTeTkrET/sqOSPckVg/8FKPjTdeGdG0vwnZzNCdWVri7ZTy0akAL9Cf5V8k6VqvA5/8ArV8NxNnGKov2GFfL3fX5HwvEXEVWjXeFw+lt31v2R9SW/wC3D4yvhIpk09fMBAC2+NufTmuJl1mbW7qS4uZWmuJm3u7HLMTXmulavgrg10mmaxnbzX4nn0sdi9MTUcuXa7ufL1MwrVre1k5ep01FQ2t2Jx7/AFqbNfGyg07MaaYUV5j4r/at8J+G/FK6WupRzTW9wIbwrE7LEMHO1gMFgcZH1rtPA3j7S/iJov27Srhpod5Rgy7XjPow7V0VsBXpQVSpBpM+gxnCec4TBrMMVhZwou1pOLUddtfPofUf7GvxYuLyabw3fTNKkaebas7coB1X6d6+ho5MN14r884LiS1kDxyPG46MrbSK734bftG+I/h9exbr6a/sQR5lvcMXBH+yTyD9K/UuEvEalgsNDA4+MpJPSS1suia8jpyviCNGmqNdN+fkfaYlB/ip6ScVz/gvxlaeOvDVrqdm26G6Tdjuh7g+4rajlx1r9wozhVpqrTd01dPyZ9rCalFSjsywj4qRJMmq6vkcU5ZKdiywHpwaq4k5p4ekBYWTJpwYioQ/FKr5FKwHN/HH4NaL+0D8LtW8JeIIfO03VoTG+PvRN/C6n+8DyK/HX9pv/gkv8WPgP4ium0nQbzxl4d3lre/0qPzpAnYSRD51YDrgEe9ftkJPc04NXoYHMquF0hquzPns74bwuZpSq3jJbNfr3P527v8AZ1+IFhp91d3Hgjxbb2tihkuJpdJnSOBR1LMVwAPeuNzX9KOq6fb69plxZ3kSXNrdRtFLFINyurDBBHuK/Mv9r3/ghlqzeJLzW/hRfWdxY3UjStol9L5MlsSckRSfdZfQNgj1NfQYLP4VZctZcvbsfn2c8C1sNTVTBt1O6tr8u5+c9tcmBvat3SdVyB81afxy/Z58Xfs3+M08P+MtJbSNUkhE6RGVJd0Z4DAoSMVk+HNDV8tI27/ZFRn+ZYLB4b6xXenS2rZ4+T8LZnmFf2FGHK+rlokdPpOr4xzXSaTrHTnNejf8E+/2OtJ/a6+K2oeH9S1jUNGt7KxN2stpGkjsd2NvzcYr9HPgR/wSk+FfwU1eHUZbXUPFGo25DRy6rKrxRsOhESqq/wDfQNfDrFYTMKPt8Pez7qx9BLgPNaFb2NblVut7nmP/AASm/ZNvraRviF4ksWhhliMWkwXEeGcHrLg9uwr70hwEwvAHYDGKpw7LeNUjVUjjACqBgAfSpBLmijh40o2ifomV5fSwVBUYfN92XA3NOVqqpJg1KsmelaHpFhWyaerVWEoJ6/rT1fNTygWM04Pk1D5me5pVepAtxy8c1Ir56VTDcU/zMUAWw/HanLJg81VWXd3x+FSJLupWJcUxdU1m30PTZ7y8mjtrW1QyzSyNtWNQMkk+lfFXx8/4KuyrrVxpfw/tbf7PCxjOqXabzKR3jj6Ae7Z+laf/AAV8+Od54E+GGj+F7GZoG8SSs10ynlokx8v0Lfyr88tL1Xgc18rxBjMTBeyoPl7vr8j4XiLPKtGt9VoO1t319D6ftf28Pihe3Rkbxbdjd/AkMQUfhtrkrjxJceJNQmu724kubq4cySSyNuZ2PJJNeY6TqvI5rptKu7kI0jWt4kMZUec8DrE24ZG1yNrcehNfjud069XSvNvtd/lc+bjia9ZXk3K3zsdVRVWwvhMgBq1XyFSm4OzKTugooorMo+gf2AfjnN8PPiR/YV9eLFoutAgiaTbHBKBkNk8DOMH14r71sdRt9RhEtvcQ3EZHDxuGU/iK/IkjNdJ8OPi54i+E+sxX2hancWckbAmMNmKT2ZOhFfoPDHHLy2gsJiIOUE909Un5HvZbnbw0FSmrr8j9WQ+KeDxXmv7NHx4h+P8A8NYNXWNbe+hYwXkKnISQYyR7HII+teiCTiv23C4iliaMa9F3jJXR9tRqxqQVSGzLCtUiy7ff8arCTNPEmfWtrGhaSXcPT8aejZ/+tVQS46VJHKVHFTygWVcqf8TT1l98VXWUGnq2RzUk8pYDU8Pk1XWTB9RTjKAaCSwr05XqFW5pyyYoAsJITzT/AD29qrLJTvNqeVAfEscuRUhbNUw+BTg1fbcmuh6BcEpNOjlyCT2qqJ+B1p6vvHejVbhYth6cr1VBxyOtOjlyfmqbXJ5S0kh3VJvqt5maer0uVklgTZpweq6vTw9IdyyJzipQc1USSnh6nlHoyxv2nmvAP2xP29tJ/ZtH9i6XHDq3iyZN4gLfurNT0aQjnJ7KOT7V7Z4l1v8AsLw7fXzfMtnbvNgd9oJr8SPGPxMvPiR481XXtQmaa81a6kuHZjnG4kgfQDAHsKPYylFuJ8fxdnlTL6MYUNJz69l39T1v4k/H/wARfHPxSNY8SXy3d0qeXGEjEccSZztUDt9cmodM1XgYNeZ6ZqxyPmrpdK1jgfNXxmaZa5Ntn5TLETqSc6ju31Z6Tpeq5C810mlax0ya820rVg2MNXSaXqu4Dmvz3Msr30OqnVPSdL1XpzWhr99LL4Wv/s5/0j7O/l4/vbTiuJ0nVs45rpNM1XgDNfBYzAOlUVRK9nc9DD1+San2af3H5vweIbjRvE15a3m+O7guXEqv97O48n69a+zf2ChdX3hHWr+RXWzuJo44WI4kZQd2PpkCuv8AEX7MvgXx/ry6lqmh21xdZyW+7v8ArjnHtnFei6Ro9r4f0yGzsbaGztLdQkUMKBEjHsBXo8ScSYbF4f2VCDUna99l6H9FcX+OX9t8LrIIUHGUuXmbasuX+X1/As0UUHmvgj+fz6o/Yykm/wCFYzeZu8sXTeXn0wM17CJOK8E/ZO+MVve6dH4YmhjtbiEFoHXpOOpz/tV7gZGH8TfnX9VcF4ijVyeh7CfNyqz8mt0z9LyipCWEhyO9lb5lxXzUscu0VmNOw/ib86ikuXA++w+hr6rlbWp6fqbaS7mqQS4rl5dQlX/lq/8A31VWTVp+00o/4FU+yJ9odosmBT0k5rgm1i6X/l4m/wC+qhbXLpePtE3/AH2aPYsPaHowenLJxXmZ168H/L1cf9/DR/b95/z9XH/fw0exYvao9PSQk9acGxXlw1+9/wCfq4/7+GlXxBfE/wDH1cf9/DR7FsXtUfmt/wAF2Tn9sDSf+wHF/M18o+HhkV9Jf8Fmrqa8/an0tppHlb+xoxlmyfvGvm7w6flrzeOY2y2mv7ppw3rjpvzPuH/giIcftJa5/wBgc/8AodfqiHxX5Wf8ESDj9pDXP+wMf/Q6/UxXzXh8Kf8AIvj6s9TPI3xcn5IsB+aer4FQB6cr8V9IeKTo/NPEpU8VXD5pyvg1PKBaWUnr/KpI33Cqqy7ad5nFDiXzFwNzTlaqaSGpllBqRllWzTw9Vg1OEnNTygWUkr5T/wCCh/8AwUtsf2TUXw14djt9T8bXce8rJ80OmoejOB95j1C/ifSvqC+vfsFjNNhm8pGfA74Ga/nr+PvxW1D4pfHbxTrmozSSXV9qUzHec7QHIA+gAxXXhMG612uh8nxbnNTA4eMaOkp6X7I9G+JH7SPi34/6+NQ8X69eaxcJkRec2I4AedqIOFHsKo6bqBUqd2a800zV+ldTout7AFblTWGMwNLEx9jiPdeyl+j8j8oeInOXPN3fmes/DW9tr3xbYw3OGhLeY6k8FR1/PivuPwD4n0Xxv4NOgX9vbyabNH5Yj2jEXHBX0I9q/NaXX5/D1/a6hDueOIFZAvYHnNe4fCD9pm1061V/tBkkVciNTyT71/LPjBwLm1XF05UIy923Ly7KXfT8+x/Qfhricnhk1X6xKKm2+fmtfl6b9LfibWtp/wAIz4ov9PL7hZzvED6gHFaGn6kJ+GNcFeeLZPEOt3V9M37y6kaRufU1s6Rq3K810YjK6iox9p8Vlf1tqfjtSrD2svZfDd29L6HY5oqhYamsgA7VfU7lz2r5upSlB2ZopJhRRRWZR9kf8EvIbmHw14mmZW+xyXMaoccFwvP6EV9XB6+G/wBg39pj/hBtcg8G6lHCNN1Sc/ZZwuGhmbsx7qx455B9q+3kfI4r+iOBsVQqZTThRldx0fk/62P0DI6sJYSMYvbcsK+TThJg1X34FSB+a+wPYJxJT1bmq6yU4PzU8oFjzDUiykHNVRJnvT1fApOIFtZh+dOaQiqu+nrLio5QLYkYjtTlkzVfzwfWnhs4qbE8pZ3mjzKhR8Uef7UE2Z8R7/enI+Kr76eH/wA5r7g9Ash6esrEdarLJThJxQBajm55qRXweoqoJOKer8571LiBaDbeakSbPtVVZs9eKkWTK1nqtwsmWA+e9PV+KrIxU04TZPNFkyeVlpZMCnLJVdJf/wBVSB81NiQ1Ozj1bS7i1kwY7mNo2HqCMGvxC/aA+G8nwL+OPiLwy1xDcR6ZeOsMkUgYGMncmcdGCkAjsRX6+/tU/Fp/gn+z94p8SQrm502xc2//AF1b5U/8eIr8R9W1e517Uri9vJpLi7u5Wmmlc7mkdiSWJ9STmvaymhzqTe36n5j4iYil+6o29/V38u3zOk0zVSNozWYnxMl1TUDHG0McMEwKZXJJRs5J98VQtL3yztNcnceHNS03W5GtoGubeZyy7CMrnnBzXzvFWVYl0lLC3vfW259h4A4jhaOa1o8TRhK8Vye0+G99d9E7H0N4J8XNq0citt3RANuAxnJrtdK1b5RzXjXw2t5tJtGkuWCzzgDYDnYB6+9d/pWscLzmvhf7KrLDr6x8Xn+p894sYrIq3FOJnw5GMcNdWUFaF0lfl8r/AI3PSdJ1XCjn866XS9Wzt+avNdL1XcBzXR6XqvK18bmWVeR8JTqdGelaZqvI+auisr/zhhq820vVenNdLper4HXNfn2ZZXbU7adQ66iqWn6ksyAMaugbjxznpXzFSnKLszrjJNXR0nwfmmg+Juitb7vM+1J09M819rPJur5//Zd+ClzZX6eItUhaEKv+ixOMMc/xkfyr3oliK/orwzynEYPLpVMQre0d0n2tv8z9B4cwtSlh3KppzO6Q55MfjVeZ/fipGRmH9KiazkI+6Pzr9KPfkVpn+WqbkkVffTJnz8o59xTH0S4I4jX/AL6FEUZyRmzPj3qu0laT+HLwn/Vr/wB9ioz4WvG/5Zr/AN9iqukTZmW0tNac7q0j4Qvz0iU/8DFNPg3UD/yxX/vsf40uaJPIzPMpz96nRSktzV7/AIQrUT/yxX/v4v8AjTl8E6kuD5K/99ijmiHKz8tP+Cxjlv2otM/7A8f8zXzp4f6V+jH/AAU2/wCCePjD4+3Wm+LvCdkmoaxpkBtrmxWVVkuIs5BTJALD0718e6J+w18YoZ/Jf4a+MFcnbzpsgGfrjH4143Gkvb5fCNHVpWaR1cPxdLGSc9E3c+iP+CJrbf2jdc/7A5/9Dr9SlfFfGv8AwS7/AGHdc/Zyg1LxR4tiSz1zWIVt4bEOHa0iByd5HG4nsOlfYgbmvN4bwtShgIwqqz1dvU9HNqsKmJcoO6LAkwacr81X8ynpJmvc5TzHFFgPT1eq4fBpyvUkyj2LCtTleoRIM/8A16crgGgzJlkqRHwear+ZTkegLlkS56NUkc284qqsmDTxIVqbFcxaZg6MpwcjGDX4H/8ABSP4VaT8Cf2wvFWk6HqdpqFjPcfbNkD7jZNJ8zQv6MpJFftp+0d8SJPhL8A/F3iaHPn6NpU9zF7OFIX/AMeIr+dXxJ4ju/F2v3uqX00lxeahM9xNLI25nZjkkn8a+k4cw7lKc3tsfnPiFiqap0qFveu3fsv+CbGlavgj5q6XTNXwB81edWt0YH9q3dL1Xp81dmZZWmro/NKdQ9P0bWuNr8qa6LTrhYMGJVVTzxXmekavg43Z9s11Oi63t2jd/wDWr5fFYWnWpfVsT/27Lt5Py/I7YzPQ9L1Yhh81dNpWrZ2/NXnNjqGdpBre0zVuVGa/Lc8yOdCbhUX/AATtpVOp6ZpeqgBct1IH1J4FfRXwn+CXhLxTpUcmoPdHVmgaJLlLhlWHcQf9Xna2COpGcE818b654ik0ywt7hclYbhGf6c/1r2r4J/HEKIm87HT+KvwjxIyvMqOGp1sFJwTvqurXR/5dT9t8MchwGPoVq+KipyWln0TW/wDwTa8Z+FpvBfie80y4IaS1kK7h0cdmH1HNZda3xL8dQ+LvGMt1G25fLRCfUgAVkq28cc1w4H28sLTniFabSv6n59m1GlQxtWhRd4xk0vQ1PA0U0/jXSY7bd9oa8iEe3ru3jFfqhp7MtlCGzu2DPNfIP7Ev7Kt9Drlr4w8RWrW0Nv8AvNPtpBh5G7SEdgOwPXrX2Ar8V+/+HWT18JhJ166t7Rqyfbv8z6fh/C1KVJzqK3Nt6E29iODUgkYjniq6vg04vu61+iOJ9BzFgPT1eqyyY709ZvQ1JRYWTmnq/NVw9OV6ALAfNPD5qBJKcH5pcoFgPg09Jm21WEmD1pyyYNQ0BaWb1pfPHvUG+l3ClYD4kErfh61IGxVMNTllx0zX27jc7C5vpwkytVUnJ9/wqVZA3SlysCyj8U8Pg1WDACnB896QFlW5p6sR0qsHx3p6vQBaSQ561Isme/61TV8GpFlqZRuBZViDx3p6y4+9VdZcjt+VSK2efaod0FkcF+1f8K5vjd+zz4p8N2zD7XqFk32bP/PVcMg/76Ar8UNW0m60DVLixvYJbW8tJGimikXa8bqcEEeoNfvcH4r5z/be/Yg8B/GLwVrniq6sJtN8SabZS3IvbAiNrkopIWVcFX6dcA+9enluOVJ8k9mfC8Y8NTx8FiaDXNBO6fVf5n5K1Ys71oGqvRX0c4KSsz8VOq0vVRhee1dJpOrZA9q85s7027e1b+l6v935q+ZzLLE9Tpp1LHpWk6uR3rpNM1bOOa800rVcd66PStW2kfNX57meV7ndTqHpWmaxsXcWxtGa8d8V/tWajqviaa108WcOn2dwvl74y0jNG2dxII6kdPSu7stQ8+FkzjcuK+dfHHwa8ReHPGU7afYXGoWdzIXQw/Myk8kEf1FfJPJ6cuZyWp+8+BdThr+1qseJIwlFx9z2jtG99ddr2Prr9nf40XnxDhvYdQNu1xahZEeJNgZScEEe1e1eGdVzqVrz83mLt+ua+Y/2V/At/wCBNFuLzVR5V9qCqgg3AmFBz82P4ie3avsj9lP4OX3j7xHb6teW7R6LZOH3uMCdh0VfX3NfA1uHamJx0aGGjd3Xy7s5PEhZLiuLKsOF4pUPd0h8Kkvia8j7A0mVzpVqW4bylJ+uBVxJc1V8zgdsdB6U4PxX9IU6fLBQ7JI9mKtFIth6erVUWU5+9Uqy5ocWiiwH4pytUAk4p6yYqQ5UWEbAp2+q4fNSK/FBFrEyvinB81BvxTw9TyiLCSY71Ik/PXNVQ22nq+aB3LYmU1IGqmJMGnrKfWly32GvItq2OlOWSqqzYHvUweoaaKJ1enh6rq3FOV81IFlXp/mZNVxJTg1AFhGyKcrYqur04Pz1qbdhFgPTw3FQId3SnI2DUmbj2LAbNODVAsu6nh+aCDA+Mvw+h+Lvwl8ReFrhtkOvafLZlv7hZSAfwOD+Ffz0fGn4O658BfiVqnhfxBZTWOoaZM0ZV1wJFz8rqe6kYIIr+jhXxXk/7Vf7JHw+/ac8E3n/AAl3hy21K8sbWR7W8jPk3kBCkgLIvOMj7pyPavZyjMvq0nGS0Z8pxRw88ypqdN2nG+/Vdj+fWuq+C/ghviT8SdL0VpGigupQZ3HVIxyxHvjj8awfENiumeIb62jDLHb3DxqGOSAGIGfyrY+EXjkfDzx/Z6k/ywjMcjf3Qcc19DxFLFLKq8sCr1eR8vrbT5n5Zw/h8NVzSjRxrtTckpelz9XPB/7Ofww8e/Bn/hDW8P6faw+QEhvYowt3FIAdsnm/eYgkkgkg5NfnJ478OXHwz+IWseH7ht02kXclszf3trYB/Gvqv4V/tO6b4c0f+07zUoYbOFN5kaQYI9vU+1fHfxf+K4+Knxc17xAnyR6pdvMg9ieK/kvwMy/iFZhj6eYSnOg7O87u1RvW1+63R+z+L+DyvDUsO8IoxqbWjb4baXt+DOi0fWyhGTxXSWGo8hl6H0rzDS9XJK810+j65sxk1/QOIw8KkPq2K+Ho+sf+AfiUKnVHodrex31u0Myh45BtZT0NaPhfQ7fSbnzIbi62g5EZl+Uf1NcjYX+QrK2RW9pmqdPmr82z3J6uHvh5axeq6p+aPWwWYV6F3Qm430dm1dHpml6tgj5utdFpmp78DOc15rpWq5xzn6V9M/sVfssax8ZfFNnq2pWc1r4Ws3Esk0q7ReEHIRPUHuemK/Oa3D9TFVVQoxu3+Hmd+Cp1MRUVOmrt/wBXPv34NmYfC3w/9o3ed9gh35652CuoD7R61TtlW2jWOMBY41Cqo6ADpU3nDHWv3qhS5KUYPokvuR+vwp2govoiwsuacr1XV91PD46Vpyg4diyHpwbPeq6yj8akVqkzJPNYd/0qVJtwqBW5pS2anlK5iyr4pwaqq5H0+tSxy5JqSiwGp6yVXEmacrc0AWFeneZUAfNLmlZAfEbGhW5piPkfN+tOXHavt+U7CVXxT1kwag6mnbtv/wCulYCyk+Tz0p6yhvaqqyZFOD0twLivmnK1VY5Np9qkEuG7fnUcrAsh6esmRVdZN3NOD8UgLCvUgaqqtxUit70AWBLxUesabDr+j3VlcLuguomhkU91YYP86QNinhsd6nl6oUoqS5XsfjP+1v8Asv61+zD8UbzTb23lbR7iVn0y92/u7mIkkDPTeBwR149K8rr92fF3gnRfiFosmm67pdjq9hMPngu4VlQ/gR19xzXkF3/wTS+Cd9f/AGg+C4YznJjjvrhI/wDvkSYr3KWbRUbVE7+R+V5l4d1pVnPBzXK+jvp9x+QtT2l4bdh6V9Vft7/8E7NT+DHiO48ReC9Lur/wfdfO9vbq0smlHuCOWMfcNzjvXyeyFWKsCCOCCOlelTqU68LrY+AzDLcRgazoV42a+5+aOj0rV8kc10ulatkLXAaYsss6rGpbJrrvD+g6hqOp2tnaxme4upFiiRSPmYnAHPFfI51UwNCoqFapGMpbJs7sBkuY4qk6+HoylFbtJs7XStWwflNd18L9BvviF4v0/R9Pjea6vpVjUL2z1P0A5rd+Hf8AwTk+LHiTUUjvdHh0ODOHnvLuMhR/uoWY/lX29+y7+x7of7ONj9p87+1tfmTbLfSJtEY7rGvO0e/U/pXzGIyVVZ2ex9Bk/DOMxNVe2g4QW7en3Im+H/7DvgfwcLee4tbnVrpFBY3UxMe7v8i4HX1zXsmn2kGn2sdvbxRwwxjaiIu1VA7AVGr8U4SEV6+HwNCgrUYKPoj9awuCw+Hjy0IKPoWs5oWTFQLK2OtPR9y/Ma25TpsTLJTxJxUR6UZxU6oRYRyBUkcm41VV+KeHxQ43QFsSZNSLJiqiyHrTxNWfKxloSYFO3Z5qur8U8NkVJPLcnEmakD4qup5p26glqxYD5pyvUAbmnhuaXKIsLJmnJJg8VXDU5XpepXMWhPg1IkmRVNXqRZMd6nlT2Ath8mnI9Vo5ct81SB+KlxsO5ZBxTg2RVYPmpFfmpGWA+DTlbJquHp6vQBZDcZ4pwlqur04NzU8oFhXzTshxhhkHgg9DUAfmn7iKWxnKPY/F7/gqD/wT68Qfs6/FjVvFOj6fcah4H1u4e6juYIyw092OWilx93BPDHgivkXh19RX9LF3aQ6nayQ3EUU8My7XjkQMrj0IPBFeXa7+wf8ABfxNqjXt98M/Bs907bmcadGm4+4UAH8q+mwfEXs4KFWLbXVH5vmnATq13Wws1FPWz6elj+fdV2LtH3R2zxU0Fw0D5H5V+mX/AAU2/wCCRU2qXf8Awmnwh0O3VViC3/h6xiWP7o/1sCjAOR1Uc55Gelfm34k8G6x4N1GSz1fS9R0u6hO14bu2eF0PuGANfQ4XFUcTT5oW811Pg82ynGYKs6eITfZ6tP0Lel6thh81dLpWqZ281wljDJNOqxgkk11ul6JcGeKNGDPIwUDPcnFfK59jMvws1TxFRRctl/n2OzK+Hc0x1N1cLRlKMev+V9/kdno+smMr83HpXd/Dnw/qHxE8V6fo+kQSXWoalMsEMaDJLE4/IdSewFeyfDL/AIIxfFjxHPbSareeG9FsJlVzMbs3DhSM8Ii8nHYkV94/sf8A7AfhH9ky2+2W0kmueJJk2S6pdRhSgPVYk5CL+JJ9a8OvTpTpuhV96G68n5eXkexlfC+Or1V7aLhHq3+iLfwU/wCCffw5+GmiaZNd+H7fVNahhQ3FxdyPMry4G4hGO0c9sV7tawx2VukMMccMUYCoiLtVQOgAFRh+OtOVs1xUsPTpq1NJH6vh8JSoR5aUUvRFlWzTg/FQB+acHwKs6Swj81Is2Kqq9PD0AWw/y+1OElVlnbHWnrNxzRYlxuWEl55qUPgVWB4pySHP9KnlIcSyHzTgagV/WpA2BUkEgfFSJLuqFXxRuyKnlK5i0HxRvqvvY9+1PD8VJVz4kEnFOWSq4kyOtOV+a+4O+xZSU7ualDcfWqok9zThJx96gnlZayMYpM7agSTBxxUgdWpNCJA/4VIHquZVUUfaMVNmBcSXYP8A69PWfJ9KofbgOxpv9rLGeVZqXLcDWWTd3pwasc+IkT/lm/50f8JZGo/1Un51PKwNpXqRXxXPnxnCv/LGT8xR/wAJzCv/ACxk/MUuViujog+009XrmP8AhP4f+feX8xTh8Q4f+feb8xRysOZHUbsjB5HuK+Q/+CuPgDQNN/Zpk1a10XSbXVG1O2Q3cNnHHOQW5BcAMc/WvpYfEKE/8u835ivmf/grB4sj1r9ldoVhkVv7UtmyxHZq6cGmq8fU4sxjCeHlzJPQ/Ovw6uGWvSPg2P8Ai6fhv/sIwf8AoYrznw91WvR/g8cfFHw3/wBhGD/0MV+M8Zf8jaHqvzPquHPdwbUex+y4P+RThJmqxbj8adG5X3/Gv1ZWseDyssq2KeHqsku41Ir5FHKSWBJinh6rK+akV+akCyJcD71PSX+8arLJT1kyaLFFjd8uaVWzUSS49/ajzc9qzcOwuUsLJgU5WxUKtnHvTs4paoRZWTHQ08T4FVQ9OD0uVMC4r5pytmqqSkVIs+ahxa2AtB6crcVX3805HxUBy32LIkp4eq4b1NOWTmgjlaLAanB6r76cr+9Ty9hFnfxT45CF6/hiq4kzTlejXqO5aSXd14qQPkdapmfHrR9sAPelyoZeD1IHrNOrKP4T+dNbxBHGfut+dRysOZGsr4p4bNYjeKo0H+qk/MUx/GkcY/1Mn5ijlYcyOhV6cjc9a5k+PoR/ywm/76FJ/wALHhH/AC7y/wDfQo5GHMjqQ/PWnBsGuVHxKgA5tpv++hSj4l25/wCXab8xU+zfQnmidar+hr5n/wCCu9nDN+wX42maKJplS32uUBZf3ydD1Fe2D4mwD/l1m/76FfO//BVvx5HrH7C3jO3S3lRpBB8xYYH75K6sDTksRD1RzYrldKXofjb4fXmP867TQ2/4m9l/12T/ANCFcb4e/wCWddjoZxq1n7TJ/wChCvzvj/8A5GC9T6nhXTCWXY/oO8KSf8Uvpv8A16x/+gitEGsrwnID4W00+trH/wCgitDzPrX2VP4F6I+fqfG/Us7xUiTYXmqqvTleq5SeYtCUOKkD1VV/QmnxyYbk1LRRbR+KcH5qsJdx+9Tw3NTygWFfJp4fmq6yU8SUrMCwsuKkE1VVbNOD0gLiy5H9KcrYNVVfmpEl4+agTVyyJeeaeGxzVcSbh605ZCD3/Op5TOUSyr5p241AJMdeKPO96kjU+Iw9PDVBv5pVfNfcHqFkNThJgVXVqeHqeVgWFbj/ABpwb/dqsr5NSbzUgTM2000tzUfmY9Kaz4FBDQ52IHFQytzTmaq8pyc9qBDJH5qCRqJHqKRvloMxGOahkIB96cZKryS7jQJjmbAoDYFRgZFBJoIJlkyK+dv+Cnj4/ZqbH/QSt/8A0KvoQbhXiH/BQfwLqHj39m/UotNha4n0+aK9aNBlmRGy2B7DJ/Ct8PpVi33OfFpuhJLsfnv4eOStejfCH/kp3h3/ALCEH/oYrznw7wVr1z9mrwNqHxD+NnhzT9PhaSX7bHNIQOIkVgWY+gAFfi3F1OU83hGCu7r8z6zh9pYJt9j9dRLtPQVKGqmJOacj1+rch4ZaJpySkDjn+lV1lYVIkmR6UWaAsJLn61IG5qsrAj2p4O0fLU3J5SwH5pySYqusmT71IGJNHKSWBLzTlkxVdWpyvzUgWlfDVIsufvVVDkVIJOKCvUsfjSg4+tQLJ+FSCQbRnJrNw7CsTLLmnq/FQA5A20ob5qnVbiLCvmpUnBx+tVQ+KcG4o0YFxZM807fVMNxUsc2KiUbDuWVepAc1XV8jinB6gTimWA9OV8EVCr8U4NzQS4tEzNkVHuprPzTWeiwrDXO6qszc1NI/FVbiTrV7ClEhuH4xVWVs/SpJn3H/AOtVeQ4NNGY124qFmpztVeWTbVcpGo8tigH2qJpQPrSGb5fep5XuInDYFeB/8FOD/wAYVeMP92D/ANHJXuyyjPWvL/20fhbqHxq/Zl8VeH9JHmaldWwe3j/56sjB9v1OMD3rowrUa0ZPujOtFunJLsfjj4e6p+Fdhov/ACFbX/rqn8xXL2mk3Gg6nJZ3kMltdWrmOaKRdrRsOoIr1H9n74S6x8cPixovh/Q7WS6urq5jMhVcrBEGBeRj2UDPJ+lfmfHcXPMYxhrdn1fC7UMK3Lsfu34QOPCmm/8AXrF/6CK0lfNZ+kW/9naXb25+byIlj/IAVaST8q+yhG0En2R4VSN5NosA4qRX5qur4p2/iqMSwJCDTlfFVw/NODZo3Asq2aej7DVdXpyP3qeUrmLSSZFSCTiqfmVJHJ9fYVJRaWTFSA5qqj7qkDYFTygWFanbqrq1OV+akCyku2pPPOKrB8mnq2KALSSH8qd5v+cVVVs07d9PyoA+JVc9v1p4fJqqJMU6OTZX3FjsLYfNPVqqrLt71Isu+p5QLAenK+DVdZlHFOD5qbAWQ2aUY7ioVfApl1qUOnwNLPMkMSDLO7AAD61ErJXewXSV2WwsbDpS+Sn90fjXGXPx28M20zJ9v84jgmNGZfz6VheOfjXHqdstro8jbZB88u0qfoK+TzfjTKcvoTrTqqTj9mLTbfY8nE51gqMHJzTa6J6noGqeIdH0WTbdXFtG2fukgn8qZp/irQNWmEcNzauzdATg/rXgskjTOWZmZm5JJzTQcHqR9K/IpeNON9teOHjydru/37fgfMviyrzaU1b11PpMaZalc+TF+VB0mzZv9TD+IrwdPiLrMWmrarfSrCnAx978+tUE8Q6hHL5i3tyG658w/wCNe/W8aMErezw8n3u0rPy3v+B2S4so6Wps+iBo1n3t4f8Avml/sOzH/LvD+VeXfDn4x3UF7HZ6pJ50MhCrKfvL9fWvWAdy9fpX6Lw3xNg87w31jCN6aOL3T8/8z3svzCji6ftKXzXVDE0KxP8Ay7Rf980/+wdPlG1rWHnggrwacjfLTg+K+g1O7Q4DWf2Ofhd4g1SS9uvBGhPczNueRITHvPqQpArqfh58H/Cvwoikj8N6Dpuj+dxI1vCFd/q3U/ia2Q2RUwnBFc8sNT5/a8q5u9tfvKUmlyrYsiTFOSSoVk4p26tCSwHpyviqpnWJCzEBV5JJ6Vgaj8ZvC+jzmG41qy81eCqvvKn8M1z4jF0KEeavNRXm0jOpWp09akkvVnWLIcdaivvEFnpEe66ure3H/TSQL/OvL/iL+0RY22nCHQbmO6uJhzKoyIh9PWvHtS1S51i6ae6uJp5mOSzsSa/M+J/FDB5fU+r4KPtp9Xe0V89b/I8DMOJKNCXJRXO/XQ+q9O8Y6Xq8wW21Cznb+6kqk1qpJn6V8cxyNDIHR2Vl5BB6V19l8c/EVhoq2cd593gTMu6QD0ya8bLPGKhK6zCg49nF3v5WdrHJh+KoP+PC3pqfTSP7/rUiycV8nn4o+Ijceb/a97u/66HH5dK9A+F/7RVx9tjsdcZZI5CFS5AClT717eU+KmVYyusPVjKnfRN2a+dtjqw/EmGq1OSScb99j3ESYNPEnNVYZ1ljVgwKsMg+tSpJxX6Xa+qPoCyr5PWnb/eq6vTt9ICysnH/ANepFfce1VVkp6vg0FX7lzHFG7aOtV0lwOtSRz4HP6VHKKxMJKcHzUe7I45oWlqIsK3FPjlwOearB8U5XqdGBbjkLCnrJiqiS7WqQXGRUOD6AWQ245py/N6VCGzThJS1C1yXYp/hX8qX7LGx/wBWp/Cqh1i1gfa9xCjehcA15b8cv2l4fAzvpuj+Vdalj55Sd0cH+Jryc2zrB5dh3icVO0V8232SOPFYqjh4OpUloeurY25PzRx/lR/Ztq3/ACyib8K+Ite+KfiLxJctLd6xfuWOdqzMqj6AYFXfB/xt8TeC7pXtdUupI1PMU7mRGH0bP6V+cw8XME6vLKhJR73V/u/4J4EeKKPNZwdu/wDwD7S/sa0b/l3i/wC+aVdCs/8An1i/75r521b9t++ksI0sdHt4rjb88k0hZd3sBjj61k6X+2j4otboNc2+nXUOeY/LKH8CDXtVPEzI4TUVOT81F2R2y4hwKdrv7j6hXw/YZ+a0hJ7fLUqeH7Bh/wAetv8A981w3wb+P2l/FuBo40NnqMYzJbO2ePVT3Fd8JMV9lgcww+NoLEYWfNF7NHrUK9KtBVKTuhi+HLDP/HpB/wB805fDlhn/AI9YfwWpUn49aesoP/166nzG3Kjk/Ev7OXw/8a6ibzVvBfhjU7xhgz3WmxSyH6syk1seB/hX4Y+GkUieHfD+i6Gsv+s+wWcdvv8ArtAzWur1Isn41lKKcuZrUpOysicNUitxVdX5pyyc0wJ0fmnh6hD4oa5SEEsyqO5JxUtC0RaV8U4OMViap420vRdMuLy4vrWO3tUMkreYDtAr5a+Mv7Zmt+Kb+S18OySaRpqEqJV/183uT/CPYfnXzmfcUYHKaaniJXk9orVv/JHmY7MsPhY803r0S3PsMH/aH50qtmvzkk+IGvS3XntrWqtNnO83cmc/nXpvwk/bM8Q+BJlh1hpNe08DAWV8TJ9H7/jmvkMD4pYCrV5MRTdNd9/vS1/M8mjxJQlK1SLiu+59pKTTlb618f8AiL9vvxNfXLf2bp+m6fDngOGmY/U5A/StPwF/wUA1K3vEj8RaXb3Nux+aa0zHInvtJIP6V61PxGyOdX2XO15uLt/n+B0xz/BuXLd+ttD6wWXbT1mJPWsPwj4y0/xxoNvqWm3C3VncruR17eoPoR3Fawk4619pTlGpBVKbunqmup7MaikrrYtJLvOKkV6pq9SRyBf/ANdUaFpXyacsmDVdZAR6VIsgYUuUCwH5p3m+9Vw+aXzfpU8rA+JBJTkkquD704PX252FlZKkSY7utVg9KJMUAXd2acrcVTWT3qRZ/l5xgd6AJru+jsLSSaVgkUKF2YngADNfJvxS+O978S/EUvlzNDpULlbeFTgMP7zepP6V337Rv7UnhnTfDOq+H9PvmvtVuImgJtvmjgJ4O5+mcZ4Ga+ZdK1XgfNX57xpXnVgsPSl7vW35H5txhnalKOFw87r7Vn17M9I0rU+nNdNpWrcrXmel6tjb8xrpNL1jnlq/DcyyvfQ+Op1D0a0vFuE681NXL6Xq3yjniugsrxbhRzzXxGKwsqT8jtp1EywTj1/AVX03U4NYskubWTzreTO2RQdpwSD+oIr5f/bt+PmreFfF+l+G9NvLrTYPKNzcSW8pjeY5wq7hzgdce9cl+z38btXtPHujLJqmoXMMlwsUkUs7Ojo7/MNucdWJ+te3T4Wrywaxbdrq6Xkfu/CvgXj87yF53TxUIe7KSg022o30vsr2fofayOUcMvBU5Feh+H/j7LZQww3lmskcahTIjfNxxnFedjiiuHJeIswymbqYCpyuW+iadu6Z+MYPHV8NLmoStfc+jPDfiaz8UWAuLWZZF/iXoVPoa0V614f8G9bk0vxZHCrN5NwCrL79jXtqSbvrX9S8EcSvO8tWJqxtOLtK21+69T9FyjMPrdD2klqtGSk8UqvUeOaAcV9c0eoWI5io6077SI0ZmICqCSSelVw+TXlf7RX7SXhn4b+GNS0uTVkOuXFu6Q20A8yRGIwC2OF/Gsa1WNODlI58XjKeGpOrVaSXc8p/aB/advPGniO60nSrh7fRrVzETE2DdEcEk/3fQVwel6wQB82fxrzXTdXZjncfmOa6LSdWyetfhXEFGri6rq1m2/yXY/FcTmVXF1nVqu7f4HpWlankrt/Wugtbtbhf9qvOdJ1fJUf1rptK1b/a5r8zzDLWndIunUOmozVe0vBOo9a8A/bb/aN1T4XyaXoui3Umn3N9mae5jwJFUdFU9snqa8vL8rrYvELDU9/0Pq+FeHcRn2Z0srwslGU+r2SW7Z9B2t5FfReZDIk0eSu5G3LkHBGfY1IGKtkcEdDXxd8Gv2kfEOneIbFZNYurq1NxmS3cr5cm9vmyAOpznPWvs+N96Kf7wzWmbZVUwFRQk732Z9T4jeGWP4Pq0KeMqxqKtFyTjfSzs079T2LwX+0zDp2nWtnqFlJiFBGZ0k3E474P+NereG/Flj4s09bnT7lZ4m4ODyp9CO1fJNdn8DfFc3h7xtbwq7fZ7xvKkTsc9DX6Twf4k46GIp4LMGp03aKdrNdF6nz+VcQVlUjRr6x2v1R9LrJk88fjTleq6vvSnciv6D9T7px7FlXp6Pmqyy4609ZMUcpBZEnvT1lxVbfT1epAtLLgYp8cnPWqiyc1IsmaCrlrI/vCl3e9Vw+RT42x/Fip5QsWFanK2DUIkUmnFgO9TqSGoatDounT3l1MsNvboZJHY4CqOSa+M/jj+3FrXjfWriw8O3MmlaNGxRZIjtmuQO5bqAfQV6Z/wUI+Ltr4S+DU2k2+pWy6nqcyRtbrMPO8rqTtznHSvhfSdX+7zXxXFWKr8vsKLsra23PguKs6qU6iwlCVla7t+R6hZ+Kbq+m8ya6mlkY5LNIWJ/Ot7TtYMp+Zt3qSetea6Xq2dvNereCPgd4y8WeHzq+n6T52nJE0hJmCztj+7HjLAjnI9K/CM/jQwy58XUUU3ZOTtd9lfqfMYHD4rFycaEXNpXdruy7llHEi5FLWTZXzQP5cm5WU4ZTwQa1IpRKuRXy1ai4PyKjK46iiisCjb+HXi+bwL4zsNSjkZFt5QZNv8Sdx+VfWvhD9onwn4xnjht9ViiuJMARzqYiT6Anj9a+L6OhzyMehr7DhnjTGZNF0qMVKEndp3/B9D1Mvzarg1ywSafRn6EJJuHytkHkYpytzXhP7H/xUuvEdhc6HfzNNNYqJIHY5bZ02/hXuSvg1/RmRZvSzPBQxlHaW67Pqj9AwWLjiKKrR6lmOTBwTxUoaqYcA07fg16tkzqLitzTg/NVVl/2qdNdx28LSSSLHGg3MzHaqj1zUuIXscD+0x+0lpv7Ongn7dchbjUromOytN2DM/cn0UdzXwp47/ag8YfFvUnm1TWLlYGOUtYHMcEY9Ao6/U5NJ/wAFEPjFb/EP9oaaHT9Rt9Q03SLaO2ieCUSR7sbnwQcfeJHHpXkOlarkD5q/OuJ6levN04tqK6Lr6n5bn+dVa2KlShK0I6aPfzPTtK8QzA8zSYbr8x5resNQ88Yb864PwbDdeJNUt7KzikuLi4YIiKMk/wCfWvRfE3wi8VfDHS7S617T0tYbtmVJIJhPGMMQAWGMMQAcH1+tfi+cRw1KsqFWolUl8MW1d+i3OPD4XE1aTxEIOUI7uzaXqx9FU7G+3jaTmrma8GpTcHZkxlcKKKKzKPcP2R/2h9P+E8Woabr1xNHp1wVlgKxmTy5OjcD1GPyr6k8EfFLw/wDEa1Mmi6pbX2376I2HT6qcEflX511peEvFt/4I8QW+pabcSW91bOGVlPX2PqD3FfoXDfiBictpQwlaCnSj/wCBJf8AA7Hu5fnlTDxVKavFfefpGr/jT1fBrl/hb46j+IvgLTdYjXb9shDOv91xww/Ag10Kv+Vf0DRrQrU41aeqkk18z7mElKKlHZlkPn0p6S7PSqyviniTFXymnMWvO249advHqKrebuo3UrDufFIfHenK/rUNA+U19ud7RYEmO9OVsVCDmnB6nlJJg+e9fO/7fv7Qd18N/Ddl4b0uY299rqM9xKpw0UAOCAexY5GfQGvoRW5r4b/4Ki6PdaZ8VtA1Rlf7FeaeYEfHyh0kYkfXDg0ezc/dR8vxjiq2Hyyc6OjbSb7JvU8e0rVuB39zXS6Tq+dorzXStV5X5q2f+Evt9GhWS4k2qx2qAMs59hXx+bZeopznol3Px3LMHicbiIYTBwdSpN2UYq7b8keq6ZqfTmui0vVOOteQ+EfHsWqqoZmWRpWQfIVXbuO3r6rj8a7nStVz/FX51jsFTq3dNp+h72dcN5tklSFLNsPOi5q8eZNXW11ffU9L0jV8KOfpXR6Zq+AP515ppercLzXTaVq27HNfB5lle+h59Opocn+1Z+yt/wANCw2l/pt4llrFmMIzj5XB7H24H5fhWL+zD+xHqHw28V2+ueKNQs7qawbzLW0tQWQuOjux9OoA717TpeqYI+auhsb8TKAa8bFZ1mFHCfUrrk2vbW3a5+gZX4h59gctllOExDjRkmrdUnuk90mWulFFFfHnyZ03wla2j8XwtcSLHtB2Z7t2r2xX5r5uWRomDKSrLyCO1e3/AA41yTW/CtvLId0ijYxPfFfvvg9ntNwqZU42kryT790/Q+24VxkbSwrWu9+503m5NPWYcVWV6cH5r9zPsOU8T/bs/aVm+BHw6ht9Mk8vXNcYw279fIQD55PqOg9zXwDB4jm1K8e4uJpJriZi7u53MxPUk+tfQP8AwVw067tPGHhPUWWT7C1vNAG/hWTKnH1I/lXypperZHB6VjjMD7WmpH4nxljq1TMpUZ/DHRL9T0rS9U6fN+tdJpeqdK8vtvEsOn2/mzTJEq9z/Stjwn46h1MsomjDCUooBPzDAIPTjOf0r87zbB0oNqbSfqRlXDOc5hh3isDhalSEb3lGEpLTfVLotX2PW9K1XpzXSaVqpz96vNdM1QjHNdLpmq8D5jXweZZWedTqPZnpOl6r93mvKv2vv2aLn496baX2kzRxatYD5A/3XHoa6/SNV3Yro9L1bp81fGx9tl+I+s0PiXfbU+gyXOsVlmLhjcHLlqQd0/66Hzn+zX+xL4k0rxXb6l4ua0tLGxkEi20MhkkumHQHgBV/WvrgDAqrY3wmXbVqvn85zTEY6t7SukrbJbH0nFXG2a8SVoYjNJ8zgrRSVkl1svMK6j4O2sN14/sfPkjjWNt43HG4joK5enRyNC6srFWU5BHauTLcVHDYqniJx5lFp272PmqNRU6kajV7O59drJg8Gn+fg1x3we8VyeKPBdvLM26aH90zeuK6vzK/s3LsbTxmFp4qntNJo/WcPWjVpxqx2auWg5K0IWxUEc22nifnmurlaNiwsxB5qRXyKr7sinBtvTrU3E4lkNT1fbVQTGpUfIo5SCwJKeslVhJUitipAsB6+YP+Chv7bNx8BNNh8M+HZlXxHqsXmST8H7FEeMgf3j29K+mQ+BX5F/8ABRPWbx/2wPFAvTJ+7kRYQ3aPb8uPataVB1bpHyvGGaVcHgr0dHJ2v2Obl8YXniHU5b6+uZry7uG3STSuWdz6kmtrStX+Vea810rVhx81dJpWq/d6181meVvU/H4VnJ3b1PSNG8Qra6jZiQjbJOqnJ7dTX2t8C/jWII4FWQKqgAAHoK/PmeRtQsgsbBZkIeM56EV33wv+MuqeHdsc1pKXTjfvAX86/nzxQ4AxGcUoSwy5uW6aulZ99T9w8L+Jspy/DVqeOmoTbvd9Vbb/AIB77+0Vc2tr8X9Qks9ixXYW4ZV6BmGTWFperAhea4C48Z3PiXVZLy6l3zTHJz29q2dK1Xp81eZTyGphsDSw9Z3lGKTfex+c5ljKVfG1a1BWhKTaXkd9FKJVyKdWHperZA5rTbVreF4VklSN7h/LjUnmRsE4HvgE/hXz9fCyhKyM4SvoizRRRXKaHtn7FeiSTeKtR1D/AJYwwiLPqSc/0r6UDelfEPwz+It98NvE0F7aSsse4CePPyyp3BFfZ2h6vHrmk293H/q7iMSL9CM1/Q/hfmmHq5a8HT0nTd3536o+74cxFOeH9jHeO/zNIPTlkwagWSniTAr9NsfQj7u/h02zluLiRYYIEMkjscKigZJJ9AK/K39tz/goPrX7QPjO+0PRbubT/BtlK0MMMTbWv9px5khHUHsvQD35r9Af21b68sv2TfH0un+Z9rXR5tuz72MfN/47ur8Q9M1Xc3LNnvmuijgnVpuR+e8c5pVo8mFpuykrvz8j0nS9XI210ul6rwO9eZ6Vq+MZaum0rVduPmr5XMsr30Pz2nUPeP2cfH8eheMLqVmUSxKsanPTPJP8vyr63b4gWvjz4Sazpt4ySRy2bspJ+66jcp+oIFfnBaaveaNra31iPN3ACSNTgnHcV6zofx01K58NyWaxyWv2hdjlmG4juMCv5r4+8NcZjc3hj8Orq8Xe/wANrad/8z+geG+LMlw/DLw1WaVRRknG2sm+q9fwOp0/VcHG7pXQ6dqXnKM/zrzbS9XwB81dJpWq9Pmr0cyyxo/GqdTsdoDkUVm6fqm/AJzVy01CG9muI4pFeS1cJKoPMbFQwB+qkH6GvlqlGcW9DqjK6uTUE0UViUfd/wCzR4em8LfBfRLWbiRoTOR6b2LgfkRXeq9fL/7E/wAab2TWH8K6hcNNbtGZLIucmMjlkz6Y5A7Yr6cVsiv6m4TzLD43LKc8MrKK5Wnumj9MyuvTr4aMqfTT7idWp4eq4enq+DX0R3OLROGx3pd1RK+advoJPi2iiivtD1ApQ2KSigB4evin/gp98c4dT1Gy8C2sMErWTLe3k7KGeNyDsRT2+U5PrkD1r7TzivzB/bU0+6079pzxYLpWDTXQljLDqhRduPw4/CuzBxTnc+F8QMVUo5coU9puz9NzzeyvzC3NYvxL1ma0udPuAT5K7lY/3ScVoVIPLuYminRZY2GCGGRWebZVDGUJUnpdH5/wHxZPhvO6Obxhz+zeq8no7efYXwN4pkvbiCGNt0kzAKAe/rXt+mazzn1ryXwrYWOhtutbe3hZuCyjDEV2mk6rwvNfm8eF/qkZJu7Z+jeL3i9/rticM6VJ06dCLS5tZNyabvbZaaI9K0rVMgV0Wl6twOa820vVMEc10mmarwvzfhXyOZZXvofk0Kh6TpWq4K/NXSaXq2GHzfrXmul6vyvPFXte+Jum+AtLF5qd15EJYIgALPI3ooHJNfAZjlTk7RR6+X4fEYutHDYWDnOTsopXbfkj16w1BZk61crxX4f/ALSWh+JLuO2a5MdxNcPFERE6xlc/IWJ6Egj2zXrmnal5qYavhsxy6dCdmj3s24fzTKJxpZpQlSclePMmrrur72NCGFriVY1BZnOABXt3gTSDoPhy3t2H7zG5vrXG/BrRbS7imvHjD3EL7VJ6AV6IrV+9eE/CqwuG/tiq05VVaKXSN+vm7H1PDOW+zp/WpPWW3kiwH5pyvmq6tTlav2LlPqz4/wD+CsHxt0u08K2HgdbOC81S6db15mHNkinA2/7Tcj6Zr4TsL9oWxmvZv+Cii3i/tWa/9rDbSsRgz08vYMY9s5rw+veoYePsVFn89cVY6piczqSn9l2Xoip8S9fmtFsHGfJVzuPbOOKv+EPFjT+WqHLOQAB3NNdIr2Aw3CrJG3BDDOa0fCGhad4fuVlt4FWTszMW2fTPSvgOJOE3iq/touy0v8ux/QfhX9IDDcK8OzyitQlKa5uW1uV8y+1fVW66O57DpmrHcMtzgZ+uK6TTNU6c15npOqfMPfrXS6VquCOa+czHKrKx/O9TFOtVlWejk2/LV3PStL1X7vPNdHpeq8j5q830zVs45rotM1jhea/P8yyvc6KdToemaVq/+c10Gn6gJ12mvLJ/G1j4Z017zULqG0tYsbnkOAPYev0FSeCvj94f8QXjQLqdmkpnMUIDMRIMAhs4+XOcYPpXwOY5POzklsfTZXkOa4+k6+Cw86kI7uMW0rb6pdFuet0BWc7VGWPAFU7HUPMXDH2r074EeD7DxBdzXl0PNktGGxD90H1ry8lyGvmWPhgKTScur6LqZ4LCyxNVUYbs9F+Dfh6Tw14LgjlG2Sf96w9M11uaqoyovykcVIGPrX9fZbgIYHC08JT2gkl8j9Ww9FUqcaS6KxYD09WxVYSZp6ycV3GxZV6kSbHWqgfJp6vzSsmBb3Zp6S5qqJdnSpI5f71RytAWfO9qeH+Wq/mZ/ipVb5aQuUtK/Ffl9/wWE8UeF9X+PdjDo+5/EFjaiLVpEx5X+wv++B1r9NNRupLbTbiWP5pI4mZQO5AzX4X/ABd1678T/FLxBfXzvJd3N/M0hc853mvVymkpVHLsj8+8QcX7LCQoW+J/dYp6Xqm0ferpNM1Ykr8361wqttOa1NO1XaV9veurHZepq6PyOnUselaZq2QozXSaXquD96ud8DfCbxh4x8JXWvaX4c1a/wBFsAzXF7DAWihC4zk+2ah0vVsnrX5vjKGHrTnTozjKUHaSTTcX2aWz9T0/Z1KajKpFpS1V1a68j0zS9WyOtdHpeq4xzXmulapyvzV0umauc9a+HzLK99Dop1D0ay11baBpJGwqLk19Kfs0+LdL0fS4Va2t5ZJwGlaRQ+c/X2NfHWo3kl/odxHC37xk+UepHNdD8Gvjd/ZuyO4l8p4/lYMduDX4t4hcMYjF4D9xfRu9r/LY/ZvCeOBniK0sQ1zpLl5rbdbXPpH4/eD7Hw14uS40tVisdSj85Yh0ib+ID2rhKd4o+KDeMGs8NmO3jwOeuagtrpZ196+XyjB4qhgacMXfmS67+V/M+U4m+qLNKywduS+ltvO3kWba2e8uY4Y1LSSMFUDuTX2z4A02TQvB2m2kh/eW9uiN9cV41+zR8E7aS2t/El/JHcM3zW0Q6Rn1PvXuivt71/SXhjw3WweHlj6+jqpWX93u/U97hzL50YOvP7W3oWw+aeGqrHLk81J5n+1X6nZ9T6bR7mT8T/EOi+Gfhzrl94iaNdCt7KVr4uMqYdpDDHfI4x3Jr8D/ABvqmly+O9Wm0KO5i0WS7kayScgyLEWO0NjjOK/Vj/gsn4qvtA/Y8mt7NnSPU9Tgtrll/wCeeGbB+rKPyr8iVORX0+SYdeyc31PyPxBxl8TDDJfCr39To9L1TgV0el6rnHNefW101s/t6Vv6LqElzNHHGrSSSMFVVGWYnoAO9YZnlsbOXQ+Dpyu7I9G0jVMMvNdNpuqY/irm/Fnwr8XfCaKzk8TaBqmhx6gGNu13DsEoU4OD0/8ArEGo9L1baM5/WvzjEYehiaftsNJTi+sWmtPNHpyjUpS9nVTi+zVmelaXqmNvzV0uk6vwvNea6Xq2SDXR6Vq+MV8NmWV6bHRTqWZ6p4J1e2l8SWdvcndHIS7jPVR/iSBX1t4c/sD4leBm0a4tbWNfL/0eRECvC4XCtnrxwPpX56+IPElxoOsWWoR58lUMUhH8POa9s+Df7Qcdpbo3nhpFXIQHk1+AeJHCuOq1aVfCX0ScbX3vr/XY/oLw8p5VLI6s8Q43bfPe17dN/L8TZvrVrG9mgb70LtG31BxUVUR4gbUr2aZsbp5DIfqTmt3wjoD+MPEdjpsMkccl9MsKu5wqknvXdDC1vdpte87L5/8ADn47LllUcae19Pv0PSf2NvDk+s/GW3uowwh02J5pW7DKlQPxJ/SvsoPxXC/Bj4Q6f8H/AA2tnafvribD3Nyww0zf0A7Cu0D4r+m+C8hqZVlyo1n78nzPyb6fI/R8nwMsLh1Ce71ZZSTFP8zn0quH5pQ+T1r6ux6xZEnFG+oQ+O9PE3HQUuUD44ooor7I7AooooAOteE/tjfscw/tE2MOqaXLDY+JrBPLSSQYju06hHI6YOcNzjPp092oqoTcXzI48wy+hjaDw+IV4v8Aq6PyP+Jnwv1z4QeKZNG8QWZsb+NQ+zerhlOcMCpIIODXP19N/wDBULwNeaX8YNN14xs1jqlisKuB8qyRk5X64IP518yV7dOfNFSP5zzrALBY2pho3tF6X7FizvGgat7StUxj5q5mprS6aB/vHFcmLwcasTz4SseiaTquwjmuk0vVsHrXmul6x0zXTaVquNvzV8LmWV+R2U6h6Tpeqg7fmryT9sDVLy3k0W4UObOEsrEfdVj0J/LFdrpmqfd5rVvtOsfFemta6hDHcwuMFXGQa+JrYONKq3NaH3HA/FUuH85o5tGPN7N6ryejt59jwn4ZeIbjWNas7S13yXFxKqRqnJzmvvLSdU/dKC25uB9a81/Z/wD2XIrp5rvwvoNrFtYRyXLMFK57Ann8BX0x8Nv2dU0F47jWLhbqWM5WBB8gPuT1r5rFcI4vNKqWHg1D+Z6L/gn694lcd4rj2vhnhaDp0aMWlKVrtytf5K2ljsPg1pMumeF1kmBR7o+YAfTtXYq2DVJCECqBtVRgCpYpsV+25PllPL8FTwVLaCt/n+Jhg8MsPQjRj9lFoSDPWnxyZPrVYSLj3+lSI2B7V6HKdJ4B+3L+xj/w0dpUOraG1vb+JtNQogkO2O8j67Cex9DX53/EX4Ya/wDCXxC2l+ItLutKvlG4RzLjev8AeU9GHuK/ZBZetfBH/BWjwndW/wASPD+tbHazurNrYNj5VdWzj8Qf0r0sDXlf2ctj8z474fw/sJZlSTU7q9tn5nyRVi0vTA3NV6K9KcFJWZ+RpnTaVqvK/NXS6ZqvT5q86tbxoDW/pWr88nHpXzOY5Zp5HTTqHpel6twvzV0elaqDt+avNtL1XO3mui0rVfm61+fZlle+h2wqHLftfeILq30zR9u77GkpMmPu7sYGa4TwJ4vkuriCOLc0juoRV6k5GK931bSNP8a6S1lqMMdxBJ1Vq2fgH+yZZnW3vPDWhXGpXVuR+8di62+fTccL9a+YxeFhKkqcItz2sluf1J4U+OVHhrIp5TKhKdT3uVRStLmXX9d9D2Lw9q0gsbYSH96IkD/XaM19Hfs36PLaeGpr2ZWX7Uw8vPdR3rgvhN+ypfLcR3XiKSOGJfm+yxtuZvZm6D8M177Y2kWn2scMMYjhjUKqgYCgVvwXwVWw+N/tPFLlsnyrrd9WfnGR5ZiJYmWPxUeXmbaXq7/cWllBqRZTjrVcNg0CTmv1k+xLiTj6VJvqmsnPWnpNg9c1PKBbD808PVZJQ3sakD81OoFhXzT1bFVlfBpyyUAWd+KlSbiqoenLJmk43AuLJ5i/oRX5e/8ABRj9hnW/hd8QNS8YaDYzah4X1SQ3ExgQs1hIeWDgdFz0PSv04SQinTBbmNkkjSRHGCrDIIrfC15UJ80TxM9yOlmlD2NR2a1T7M/BOtLwdpa654s02zkbZHdXCRufQE8/pXov7cHhxvCv7U3jC1NrHaR/bmkjjjjCIEbkYA4x9K8ss72XTL2G6g4mt5BIh9xX0WJ9pVws1R0k4u3k2tPxPwilRp4fHxp4nWMZJS9E9fwP19/Zr+Iun+EvDOn6RZRww2NrCIViVRtIxg8e9fFH7f3gjS/hp+0vqUejxxWun6tEl+kMYwsRcZYAdhnNU/hJ+2tpfh7TI5L+aeK4iX5oRGzMx9j0ryf43fHm8+OfxJudcu1MKsqwwRk58uNeAM+tfyD4T+GvEOV8VYnHYyEo0pRkpuV7Tk3dNd+rufvHilnmSYnKKNHBTjKd04qP2Y21v29DU0zVuFwa6TSdXHy/NXmulapjHOa6TS9T+781fu2ZZXa5+E06lz0jS9TycZrc037LJdrM0MBmHRyg3fnXn+l6t05rpNK1Umvz7MMvlG/KdlOpqekaZq3Sul0rVOBhvwrz3w0t5rMyRWdtcXUjHAWKMuSfwr6V/Z4/ZL1bV7631TxNC1hYxEOtq/8ArZ/TcP4R9ea+MlwvicbVVKhG9+vRerPay3B18VNQoxb8+iPff2dtOm0n4U6as2VaZTKAewbkV3e7FU7RVsoVjjULHGAqgcYAqxnfX71l2BWDwtPDR15Ul9x+wYej7GlGmuisSh896eHx3qurc04Pmu25scP+1L8BbP8Aaa+CGteEbqRbeS+i320zDcIJ15R/png+xNfiv8dP2evFn7OXjOfRPFWk3FhNGx8qYqTBdJ2eN+jA+1fvEsnNeK/8FFvCv/CYfse+M0js4bq6tbPz4i0Qdo9rqWK5HB2g8ivTy3HOjL2fRs+P4s4dpY6i8SnacE/ml0PxRr6C/wCCeOlWEPxTuNcv44pn0lFFssg3BZGz8+PUAcfWvn0cCus+DvxSk+FviZrhvMazuQBKF6qR0Nc/iLleNzHh3E4PL7+0nG2m7XVLzaPz/gPEYGhnlCrmFlTT3eyfRv5n6yfFCTSv2gP2d/EWg6kkMzNZST2kjjLW86KWR1PY5GPoSK/LOxv/ACJWQtyrEV7R4n/b5ttK+HN9Y6HLNcalqEDW4fYVSAMMFiT3wTgDvXzhpusl2yW3Mxyc1+GeBfAOcZLgMVDMYShTnNOEZbp2952eyf47n3Hi5m2WYvH0vqM1OUY+846rfRX6s9K0vWOVro9L1fkc15vpeq/dro9L1XG35q/R8yyvfQ/LadQ9I0+/WZNr7WRuCrDINb/h17fTlxbwx24brsULn6155pmre9dHpGrHI5zXwOZZc0mlsdtOo9j0rStXwOtenfs92s3iT4saDa2+5m+1pIxA+6qncxP4A15f8Mvht4m+I+oR2+j6PfXhcgeYIiI19y5+Ufia+5f2Wv2ZY/glp7X2pSR3evXabXZOUtl67F9fc96+fy3hGvjMZCSjaEWm29tHfTzPp8jy2tiasZJWinds9piNS7+apq/4VKk2Ov51+5+z7H6qWlkxTleq4fFPElQMsB8DrSg1CJM0eZ70AfItFFFfYHYFFFFABRRRQBznxT+FGh/GTwlNouvWa3dnN8ykHbJCw6MjdVYV8gePv+CWGvWuoyN4b13TbyzZsxx3u6KVB6EqpB+vFfcVFbU604aRPEzbh3A5i1LFQ1XVaM/NL4zfsPeNPgh4J/t7Uv7PvLOOQRzCykaRrcHozZUfLnjPuK8cr9itR0631ixmtbqGO4t7hDHLFIu5ZFPBBHvXzX8Tv+CYnhHxTqE15oOp33h1pCWNuEFxAD/sgkMv0yRXZRxiekz8+zzw9qRftMs1XWLevyZ8HW1yYG9q3dI1Q9RVTxH4XHh7xlqmkmXzhpt3La+Zt2+ZscrnHbOOlb2jWUcFoEVRjvXyfF3EmHyyCvBzl2209Tl4b8PcbmM2qs1TS+bv8jR0zVfmXntXp3wd+GOvfFnVo7fS7OVocgS3TgrDCPUt/TrXtX7EPwg8LeKvhGupaloWm318l7IgmnhDsAAuBzX0ZYafBpVqsFrDFbwx8LHGgVV+gFcmFwdHMKEMVtGSvbqe9h/DmdGvy4qsmk9orf79jM+GPgC0+GPhG10q1O7yRmWTvK56sa6INioA9PSTivoadGMIqENEj9Ao0Y0oKnTVktETrJk05DmoN9ORsUGhOr5qSOYjiqwfmnq+KALUcu4/dz71y/xj+Deh/HLwXcaHr1t51rN80bqdslu46Op7EV0Ky809ZMDtVRk07ozrUYVYOnVV4vRpn59/Ej/glh450HVpP+EbutL13T2JMfmT/Z51HowYbc+4avN/ij+xP8RPg94Kk1/XNJhh0+FwkhhuVmePPRmC5wvvX6oCXiodV0q18Q6TcWN7DHdWd0hjlikXcrqeoIrqjjqi3PicV4e5bUUnRcot7a6J/d+p+LtTWt00De1fdPxY/wCCT+k+INUmu/CWvNoiykt9ju4jPChP91gQwHsc18W+OvAs3gPx7qmg3E8c82lXLW0ksYIVyO4zz+ddssTSdNzlstz85xHB+aUKqpuF7uyd1Zk2lasQB1ro9K1jGKydC0+GGyxtz6k19ffsH/s4eCvih8PL7Ute0VNQvLe8MaO80igLjOCFYCvzKjxHhMxx0sBTg01ezdtbfkfZS8L8wp4aGI9rDXda6fPqeK/DLwtq3xH16HTdHs5ry6mIGFX5UHqx6Ae5r9BP2ffhDD8GfAcNhlZr6b97dyj+J/Qew6VteD/Ami/D/T/sui6ZZ6bb90gjC7vqep/GtlZDmvcwmV06E/a/aPpOH+GIZd+9qS5qj69F6FlZCR/KpFm9aq+bxUm/I/xr0D6losJJu+tP61VDjFPikwPagixYxt70u7FRJKGNOGM1PKBMH4qQTbse1Vs88U4SYNSBbWTcKkVsVTEnFOWb0qeUC4GpyyYqqku41MJM1NmBYWTJpyvVcNmnB+KAPmX/AIKAfsCf8NLRx+IvDT29r4stI/LeOVtkd/GOgJxww7E8etfnz4w/ZP8AiR4E1BrbUvBXiKORTt3R2TzRt9HQFT+Br9o1kxUqTkV34fMKlJcu6Pj844LwePquum4Se9tn8j8LfFvgDXPAM0MeuaPqWkyXKeZEt5bPC0i+oDAZFY4OK/Zj9qz9lLw/+1b4G/s3VN1nqFrl7C/jXMls/uP4lPcV+evxZ/4JdfFD4YxXt3Da6drmlWSPM11a3SIRGoJJKOQw4HQZr18PmEKqtJ2fY/O864NxmCnehF1Id1v80eAadqJRgCa6LS9VIxzXLWdk1zNtztwcGuqsNFjjtVG47u5NfK8UZ5l2XtRxDd32V7eptkXBOb5lFzowUUl9p2v5I6PStY5Xmu/+FPhTVvif4ptdH0a1kury6YKAo4Qd2J7AetfQX7N3/BMrwr8RfhpoPiTVNe1xv7UtkuJLWARooJ7BsE4r6w+D3wB8KfAvSmtfDmlx2ZkH7yZiZJpf95zyfp0rxqmX0sTFVIv3Xr8j1sDwPjva8uMtGKetndv0L3wQ+FVp8IPh5pujxJG09vGPOlCjMkh5Y5+tdkJKrJJlaeJPm/SvTp0Y04qMNkfqFGjClBU6asloWUenpJjpVYScU9JOao2uW0myfT8aXfubrVYSUqvU8oaFoGo9RsLfWdOuLO7iW4trqNoZo3GVkRgQVI9CCRQJ6erhhU8rWqJlG6sz8tv2xf8Agkx4x8AeL77Vvh7p8nibw1dSNKlpAwN5Y5Odmw43qOxXJ9RXzYP2afiIb9rX/hBfF32hTgp/ZM+R/wCO1+7qsyGpBOSNvavYo51VhFRlFM+ExvAGCrVHUpTcL9N0fz1XNtJZXMkM0bxSxMVdHGGUjqCPWkimMTZFfqB+3D/wSZt/jb4nuvFngO8s9H1y8Jku7C5BW1vH7urDPlse4xgnnivgn9oP9kHx7+y+LN/GOkR6fBqErw2s0dzHMk7KATjaSehHUCvcoY6jXWj17H53mXDGYYOo4um5R6NapnG6XqnPWul0nVsEZauV0HSDcXCs7fL6DvXrf7NnwWs/jP8AG3w/4Xury40+21icwvPCoZ4wEZuAeO1fC51xDldLFrBSbcpdUtL9j3cv4AzrE4V4uEEkujdnbuUdL1bn71fV3/BPL9mq++MHj+18R6layJ4Z0WQS75E+W8mXlY1z94A8ntxjvXuHwu/4JK/DfwLqMd1qlzrPiZozuWK7lWGH8VjAJ+hOK+ntB0Wy8M6Tb2On2tvZWVqgjihhQJHGo7ACuCrltKdTmex7mScG1oVFWxzVlryrW/qaFtBHZxhIo440A4VVAAqYNVdZcCnB67bWP0LbQsK9SLJmqwanCTBqbW2C5ZEnNSCfNVfMpytxR6lepcSTNO31UEmDTt7epqeW4z5Soqm7Nn7zfnUM8rA/eb86+tsdfMaVFY0szAfeb86qzXEmOJH/ADppBzHR0Vyr3MgP+sk/76NQPdzAf62T/vo0cpPtDsaK4tryYj/XS/8AfZqM3sw/5bSf99GqUA9odxTZf9W30NcP/aE3/PST/vs02bUJvKb97J0P8ZoUVcmVbQ/Nf4ltn4xeJ/8AsLXX/o1qvadxEtZfjo5+KviHPJ/tK45/7atWppv+pWvy/wATt0XwdrJv1Puj9gL/AJIT/wBv0v8AJa9urxH9gL/khP8A2/S/yWvbHODX13DH/Iqof4Ttx38eXqOoziopWIXrUBdj/E3517xx8xeVuKcr4NZU8rD+JvzqB5nH8TfnTsJyN4OCaerVyr3UiN9+T/vqomvpv+esn/fRpezI5jsgc04NXEPfzf8APST/AL6NM+2zf89pP++jR7MHKx3gOKkSXaa8/wD7Qm/57S/99mj7fN/z2l/77NTyti9oj0QS7q/Jn9os5/aL8Yf9hST+dfpMt/Nj/XSf99mvzR+OeT8dvFBY7idRk/nTqRaw1X0PMzGV50vUbpPFr+Ffdn/BNNtvwh1T/sIH/wBBr4S0o5tfwr7r/wCCbTbfg/qn/YQP/oIr8S4V/wCSifpL8j7jFf8AIvj8j6SV8U4PVdZM9qeGxX7NY+dLCyU4PUCvTt+aXKBYWSnb91V1kqQPip5WBYSTDccfWnCVs9arq9OSWkTylpJN1OAxVMy7TwTR9pYdDQSXs7V60K/zVntdMP4qjkv5V/iqeUDXD1LHJtNc62r3Cf8ALT9BUTa3cqf9Z+go5Rcx1Xnf7Jp6SVx58RXSjiYj8BUbeKLxR/rj+Q/wqfZ3DmR24fmnq+TXC/8ACXXw/wCWp/If4Uf8Jdff89v/AB0UvZsXMjvFkya5z40vn4QeJ/8AsF3H/otqx18X34P+ux+Arnvi74rvZvhV4kVp8q2mzgjA/wCeZrSlTfPH1RnVmuR+jPyJ01cXkv8Avt/OustP9WtcnpX/AB8P/vH+ddZZ8otfmHiZ/vHzPU4N/hn61/seNj9mjwb/ANg2P+Vel7+fWvLf2PZiv7NHg/npp0Y/SvSxMcda+4y2P+yU3/dX5HPif4svVlsSFfenJJuNU/tDY+9TGuGX+L8a7LM55WNNWpyt6VkG/kH8VRSarOg/1mKOQk30kwaeJM1yza5cL0kP4gVE3iK7TpL+gpezZPMdkr4FOEmw5riT4pvl6Tf+Oioz4wvgf9d/46Kfs2Vzo75Z9wpwYFuteet4vv8AfxNx/uj/AAp3/CZ36t/x8f8AjoqfZE+0R6GH4+9+FfBn/BdRy3gT4f8A/X/df+gR19Zf8Jrf/wDPwf8AvkV8Vf8ABZvW7rV/Bfgf7RJ5my+uMDAGPkSuvL6dsRF+v5HDmVS+Ha9PzR8R+G/vL9K99/YJbb+1/wCB/wDr9b/0U9eBeG/vr9K99/YMOP2u/BP/AF+t/wCinr8b4g/5HlP/ABL8z7PJ/wDkXy9P0P1/WbjpUiTbv/r1UWTFOEn61+oOK6HzhcD05X96qrMR71IsmajlaD1LWcU4Pmq4fFOWTA/+vUkuPYsB6cr1CHpwkoJsWFenCX3quJPeneZS5QPlF+h/Gq9x/SrjWrH0qKSwkf8Au/nX1dzsKUvSqc3Q1qtpUjD+H86ry6HO/wDd/OhA0zKkqGToa1X8O3B7L/31UT+F7o/88/8AvqqTVyeVmWelRP8AdrXPhS6x/wAs/wDvqoz4QvCP+Wf/AH1VJpBysyabL/qm+hrY/wCEOvP+mf8A31QfB14R/wAs/wDvqpT6mTg2rH5f+PFaP4r+IlYFSNTuOCP+mjVqaef3K19YfHf/AIJ5yfEnxdNr2iaha6XfXbbrqGZS0Mrf3wRypPfg5rD8Mf8ABNrXVvol1PxBpkVqCDIbeN5JCO4GcD8TX5/x3lOLzCSWFhzbHTw3H6pJ+22PVf2BYmj+A6llZQ19KQSOvC17Y/3ayfAngnT/AIc+FLPRtLi8qzsU2IDyzHqWJ7knmtcjIr6rJ8HLCYKnh57xST9ToxVRVKkprqQyciopf6VYeLIqJrZm9K9SJzalW4+6PpVeTpV6Wxkcfw/nUTaXIR/D+dArGZPyaqucCtaTRJyeNn51C3h24I/h/OquieVmW780zdWk3hi6b/nn/wB9Uz/hFbv/AKZ/99UC5WZ4fA60m4+tX28J3Z7R/wDfVH/CJ3n/AEz/AO+qpSRDi+xRWT1r83fjgSfjr4ozn/kIP1r9Mk8I3gP/ACz/AO+q+d/2kP8Agn3qfxH8YS+IPDd1p9reXWDdW1w5RJGHG5WAOD6gis68l7CcFu0cOLw85yhKPRnyppP/AB6/hX3P/wAE4G2/B7UvfUD+PyivFfDf/BOfx011HDeXOg2sLHDyi5aQqPZQvJr7A+DHwqsfgx4DtNDsWaRYcvNMww08h6sR2+lflPDOQ42lnE8ZWg4wSe/W/Y+uxOKpvBxpJ66HaRS8cmnLJn7p+oqqJMU4MMV+oHilxZMjn/8AXTlfmq6SgrzTxwO9TygWQ3NKr1AHB707dxUgWA1O31XV+akD80WAm3U0vxTQ2aaS2OlTygEj5/nUM0nFSMjEfdJ4qF4JP+ebUcpnYgd8ConapntJm6RtUbWFwRxC1CsZ2ZVklwPX8ah8zmrD6TdM/EMn5U1tGvP+feX8qLBIrmXA6UeZUx0W8I4t5fyo/sO8x/x7Sf8AfNUZ2ZEZMmue+LTj/hV/iHn/AJh0/wD6Aa6ddCvB/wAu0n5VBrHg241vSLqzuLSZoLuJoX+XqrDB/nVQspJsipFuLSPx/wBJz9pk/wB4/wA66yzOEWvRvif+wJ8RPh340uo9P8N6lrWkySs9tdWcXm5QnIDKOVI9xWp8NP2IfiR47123s5PDOpaRbs4Et1fxeRHCvc/Ny30Ga/L/ABAwtbFYmKoRcrvoj2eFZKhTftXY/QX9kJ8/s2+D+3/Evj/lXpW6ue+Hfg23+HfgfS9DtSWh0u2S3Vv720YzW4rYr7jA05U8PCnLdJL8DmrSUqjku5IXxTWkpu/FNb5u1dRgxssirVeeUMBUssLPn5W9qiazlb/lm1BJXkkxUDvwasvp85P+qf8AKoG0y4P/ACxk/KglxZXd89Kikf5qsy6RdMOLeT8qjOi3n/PvL+VUidSASZP+FNL5arH9iXn/AD7zflQNAvif+PWb8qOgnHQhD18b/wDBYVs+DvBP/X7cf+gJX2gNAvv+fWX/AL5rxX9uj9kXWP2lfhZb22lw+XrWjTm6s1k+VJ8rhoye2eME8ZFbYWrGFVSkcmMpynScY7n5leHOCv0r3z9g19v7XPgn/r9b/wBFPXJWn7F3xX0O8aG48AeJt8Z2kpZtIp+jLkEe4NfVH/BPb9hfxV4V+KFp408YadJotvpSsbKznIFxPKyldxUfdVQT15JPTivyTN8DXr55B04tpNNu2lk+59hllaFLL2pvW2x99K2RTkbBqus20Y6+lShty1+juJ8+Sq+KcG4qEE+lKHNL1AtRzfLTxKD3qoGzT1fIqeRAXFfFOVqqpNj3qRZQahxaH6ljeKXzfc1Er0u4VIuVdD5oooor6g7AooooAKKKKACiiigAooooAKKKKACiiigAooooAKKKKACiiigAooooAKKKKAFVsU8HNR0A4oFykoODT1kyKgDc08Nmk1cXKThs05WxUCvzTg3NTYksKcU5ZPmquHyaeGpAWY5NlP8AOCnj/wCtVZXpyvigC4JQTTleqyS5apAeepqeUCcPUiviq6Ng07ODSsBYVsmniSq4Oaep5qXG4E6SECnibnpVdWp4bNS0BY80Gno5A4qsGxT1ORSCxaWTK80E7l4qupwKerYoMydc5pyyc1H5mPvcU8NxU8oEglyeg/KnrMfpVfPNOVqkC0JuP8KkRxVMNT1epcbgWw+KeHzVaKTJ5qQNilysdiwsnNSK+KrBs09WxSETo9PR8Hiq4anB80AXFmBp+/JqoHqSN9tZuPYCwDls96kWUZxVdZd1OHPt+FLVbha5YRs08OM1WSpI5M/WluS1YsK/FOVsCoEkyO/408NzStYksK3NPVsmqwbinh6Q0y0JzmpFIbmqivkU5XqeUejLXQU7cVqBZcn5ql6ip5bEjg9SCSq/3TUgbmpv3AnWU+tP8/2quGozQ4pgf//Z;" vertex="1" parent="1">
          <mxGeometry x="90" y="-2340" width="602" height="336" as="geometry" />
        </mxCell>
        <mxCell id="M5O5Atzd3mQ9mtBAptJ8-4" value="사진 출처 : Uniry Learn" style="rounded=0;whiteSpace=wrap;html=1;" vertex="1" parent="1">
          <mxGeometry x="99" y="-2000" width="590" height="30" as="geometry" />
        </mxCell>
        <mxCell id="M5O5Atzd3mQ9mtBAptJ8-5" value="가장 상위의 Tree Prefabs에서 나뭇잎의 모양을 변경하면&lt;br&gt;&amp;nbsp;Variants한 자식들의 나뭇잎 모양 또한 함께 변한다" style="rounded=0;whiteSpace=wrap;html=1;" vertex="1" parent="1">
          <mxGeometry x="176" y="-1950" width="430" height="60" as="geometry" />
        </mxCell>
        <mxCell id="M5O5Atzd3mQ9mtBAptJ8-6" value="" style="shape=image;verticalLabelPosition=bottom;labelBackgroundColor=default;verticalAlign=top;aspect=fixed;imageAspect=0;image=data:image/jpeg,/9j/4AAQSkZJRgABAQEAYABgAAD/4QAiRXhpZgAATU0AKgAAAAgAAQESAAMAAAABAAEAAAAAAAD/2wBDAAIBAQIBAQICAgICAgICAwUDAwMDAwYEBAMFBwYHBwcGBwcICQsJCAgKCAcHCg0KCgsMDAwMBwkODw0MDgsMDAz/2wBDAQICAgMDAwYDAwYMCAcIDAwMDAwMDAwMDAwMDAwMDAwMDAwMDAwMDAwMDAwMDAwMDAwMDAwMDAwMDAwMDAwMDAz/wAARCAFQAlsDASIAAhEBAxEB/8QAHwAAAQUBAQEBAQEAAAAAAAAAAAECAwQFBgcICQoL/8QAtRAAAgEDAwIEAwUFBAQAAAF9AQIDAAQRBRIhMUEGE1FhByJxFDKBkaEII0KxwRVS0fAkM2JyggkKFhcYGRolJicoKSo0NTY3ODk6Q0RFRkdISUpTVFVWV1hZWmNkZWZnaGlqc3R1dnd4eXqDhIWGh4iJipKTlJWWl5iZmqKjpKWmp6ipqrKztLW2t7i5usLDxMXGx8jJytLT1NXW19jZ2uHi4+Tl5ufo6erx8vP09fb3+Pn6/8QAHwEAAwEBAQEBAQEBAQAAAAAAAAECAwQFBgcICQoL/8QAtREAAgECBAQDBAcFBAQAAQJ3AAECAxEEBSExBhJBUQdhcRMiMoEIFEKRobHBCSMzUvAVYnLRChYkNOEl8RcYGRomJygpKjU2Nzg5OkNERUZHSElKU1RVVldYWVpjZGVmZ2hpanN0dXZ3eHl6goOEhYaHiImKkpOUlZaXmJmaoqOkpaanqKmqsrO0tba3uLm6wsPExcbHyMnK0tPU1dbX2Nna4uPk5ebn6Onq8vP09fb3+Pn6/9oADAMBAAIRAxEAPwD9HAcU5WyagD05ZOa8GzRmWVkK1Ikm761VD05ZM0aMouK+Kcrc1VWUj1qRJN5qHEZZD08NzVdXxTlfNQMsK1SA5FVg9PD0AWFfaKcr81XEm6nCXFJq4FgPzTw2KgV6d070rMzlEsZpytkVAr8U8PUkuLRMDinK/H9ahD5FOD8UEljzKcrcVXR+KkV/r+FS4lcxZjl3dcU8NVNX4qWN8NmpHctg5p2+q6zD1/SpA9D1GWA+KcrVXV6cJM1HKBYVqdUCyYFPWXBpAXEk/lTg3NUxJzUkcuKALUbYFSA5FVxJg0ofeBUtGbiWVenZxVdX208SZ71JFmidDxTw+0VUmvobKLdNNHEvq7BR+tcL8c/2jNE+B/hD+0LiSO9uZ8ra2sTgtO317AdzXLisZQw9OVWvJRjHVmVStCnFzm7JHoyy59qkV891/Ovzd+J/7X/jn4nX8jSaxcaXYsTstLJjCiD3I+ZvxNcnoPxi8VeGL9bmx8RaxbzKc5F05B+oJwfxr84reJ2DjU5adKUo97pfgeDU4mpKVowbXc/VENinjmviTwX/AMFMdc0Twi1rq2i2+satHgRXQl8lHH+2oHX6YrGuP+ClXxAe8LxW+gQw54i+zM3H1L5r1ZeIWTKClzSu+ltV6nV/rBg7J3f3H3sr09WxXzB8BP8AgopY+OtYt9J8UWMej3lwwjiu4GLW8jHgBgeVz9SK+mElV1DK2QwyCO9fTZXnGEzCl7XCT5l17r1R6WFxlLER56TuWFbNSK2BVfzKcknNehynUWAeKkjlycf1qur5NOD1NgLW7NO5AFVVf0qZJQfwqOUCwkm6pA/NVhJT1l2j1pE8pYByKcrc1WWXJqQNigknV8GpA1V1bNOD0AWo5OcVIDiqiyZp6yc96zlDsBcByKcrVVSXJ7VL5mKjVAT9aB0qINmnh6NwHh8Cno+DxUSkUbsNS9QLiHI7fhS1VVsDr1pyS7KnlAtK2adUCzbjTwcVIElFND804HNABRRRQAUUUUAFFFFABRRRQB8eh+KcGzVcSU9WzX2B1crJw9PDYFQB6cG4oJLCvinB6rh+akD81OqC5OshA4NSxybqqrJinB6NGVct7jT1kyKqpMRUkb7xWbiP1LCPipA9V99OV8VIywr08Pmq6yYp/mUATCTFSK/FVweKd5lKwiwr5p6vVdXp6NnpU2ZHKWA+KcH4qv5lOV8CkQ4tFgMacj4qANmnq9AiwsmKkWcj3qqrU4Pmp5SuYuLMG9vrTg+ehqoj9qfHJt5qRltX5p6vzVZJs9akD8UWGWA+BT91V1enB6iwFgPzT1kI6Gq6yZNPV6QFpJd3tXyX+3L/AMFC3+DusSeEfCDQya8q/wCmXrAOtjnoqjoX+vAr6O+JfxG0n4YeDb7VtX1Kx0yG3hdke5nWJWcKSACxGST2Ffin4q8dTeMvG2q6tcTNNNqF3JOzk5zuYkfpXj5zWqwo8lJ2b6nyfFGbzwtONKi7Sl96R6brHxd1/wAd6k11rWs6hqVxIcs1xOz/AJDOB9BVvTtceUKrSMyg8AsTivM9K1bBX5q6TStW5FfjebZfKd3O7Pz+OIlJ3buehWt0Lhfepq5vTNX+7W9a3a3Ke9fDYnCypSOyE7k1FFFchoKrFGDKcMpyCO1fb/7OX7cvhJfh5o+l+JtWks9YtYhBLJLC5jbHAO8A9vWvh+ivcyPP8TlVZ1sPZ3VmnsztwOPq4WfNT69GfrToPiKx8T6bHeabeW99aTDKSwSB1YfUVeV6/Or9jX4833wl+J9nYvPI+i6vKsFxAzHarHhXA7EGv0QEoYZHIPIr944Z4ip5vhnVS5ZR0a/y8mfc5ZmEcXT5rWa3RYVs04NzUCvgU9Hr6Sx6RYVqcj4quHp6yZqeUCdZMHrUyy7j6VU3U8SVNgLQbcev5U/ft71UV/0qZZcjmp5RWLCPuWnK9V93FORtvpUk8rLKtmnq1V1ly1SCTj1oETLJmpEbiq+6nCSgC0k396pA/NVA/FOSTBqHBdALgfNPD5NVfP4qRJOaizQE2c96dnBqINmn7uKnQCQPTll296iB4pc0agWEmyOakV8iqqvxT1lx0NTbsBZVqdmoRMDj3/SnA1IElFNVqdmgAooooAKKKKAPjESrTw9VBJTlk96+05Ox2FxX5pweqsUm44qUNioejDRllW5pwfmq6vTg9FieUsK9PEmarBqkB4pWJLAf3pyybfWq4enBqnVBcsrKf71S+cAaqq+acHpaMq5aWTcKkV81UR9vIqSOUsamUexRaWTNPVveqyvTw9QBYVs05H21XVqkElAE6OKerc+9V1bNODnNLlEWA9OEnFQB8HtTlfJpWE4plgPinq3NVw+KcpxUmco2LAanB6gDZp/mYoJLCOCv8qkSbHuKqq1OWQ1PKVzFxZgfanK9VVfApyy46VI7lsPXm37Wn7S+l/spfBHVPFuoKs0luvlWdtu2m6nbhF/Pr7V6Ek396vzv/wCDgnVtQtfh98P4o2kGmyX85mA+6ZAny5/DNdGFoe1qqn3PKzzGzwmBqV4bpafPQ+Nfjb+1V4u/aX8Zza14p1Wa6Z2JgtVci3s17LGnQD36nvWLperY2/NXmmlavwvb8a6XS9WyFqMyys/D/rM6knOo7t73PSdM1Tla6LS9Y5H+NecaVq3A5rotL1XOOa/Pczys6adQ9K0vVenNdJpOp4715ppWq4A+b9a6XS9X4HNfn2Z5X5HfSqHo1reLcL71NXMaVqoJX5ua37O8E689f518NisJKnLQ7YTuWKKKK4jU6r4H+GJvGHxa0CwtxmSS8jYn+6FO4n9K/UC1/dxKv90AV+TmmancaNfw3VpNJb3EDB45I22shHQg1+hf7IPxsuPjP8Kobi+bdqent9mum/56EdG/EV+seGOOoRnVwj0nKzXZpdPU+o4bxEIylSfxPU9eWT3pweq4fNORsH2r9i5T67mLCyZNPD5qujU/fUlFhH/CnK/FVw2BTlegC0r8UqvVcPxT1kqeUCwkmG4qRZfWqokwaeHqbAW1k9+vvTlcg9aqqeKekp/wqeUVi0knqaesmBVdH56ClDY9BUk2LQfmnq+KrCb/AOuak38UCJw+RUiSH1qsr08PzRuBaEwx71IHqmr08Nmo9mgLgenK9VVnwP5GnxylqjVAWVINKKhDcU4N8tToBMH5pwkJ71CvI96dnFFmBYSXnmpA+e/61UDGnxuamwFpW5p2arpL/eNSBs1IElFND0u6gD4k8zmnpJUStuXcadu79q+3s0dhMsmack22q+7b708ScelLyYFtJc05W/GqofIp0cu3p+VTydgLiyc08SVUWf1qRZMioaa3DR7ljfup6yYNQK/NOElInl7FjzKcr1XWTipA9HqSTCTNOR+ahD05ZMVNn0AsCfJqRZ/X9Kqh808PgUtOpRcV6erZqnHJhv5VKswPWp5ewXLPmU4S1XSTj1pyvk1BRZV+aeH4quHpwkoAsI/FOWSoVfmnB6VgJ1kxT0l4qvuxThJU2JcSysnNPD1WV+Ker+lIzcbFgNzTg+Krh6esnFBJOsmK+O/+C3HivwZpn7IMuneJfMk1nULpToUcJHmLcLyX5/gC9fyr7AVuK/IL/gvX4sv9U/am0fSpmkFhpukRvboT8u5ySxH5CvSyfDqrioq+2p87xVjHh8tm7X5vd18z4l03UDEQMn866PS9Wzj5jXH1csdQaJ1yelfX43AxqK6Pw2nOx6PpWrYwN1dHpWrYIy1eb6XrHArpNK1XIHNfB5llfkd1Ooek6ZqvA+auj0nVcjrXm+l6rtxzXR6XqmAvzV+fZnlZ2U6h6TpOrbiPmrpdM1T7vzV5ppmqcjmuk0vVuANxr88zLK9WehTqHo1leiVBn86tVyular8o+at+xvxKuD+FfDYvBypu62OynUuW6+1/+Ccfhi40X4X6lqUysseqXWYQR1VRgn86+dv2W/gEvx38aSQ3F3Hb6fp4WW5UH97KpPRfr61+gHhrQbPwpottp1hAlvZ2cYjjjQcKBX6P4b5BVlW/tSppFXUfN7P5I+u4dwE3P6zLbZGuGp4bIqujELTlkyK/ZT61xaJy2RSxyFe1RB+KUPzSsFywtx+FSCQEVWD4p3mY6UuUakWlfinB81WWbcaerbakosq9OEmDVcPxTt/FAFgSZp6tiqytzUitmp5QLBlyoFSJNgCqqvTxJt9anlAthhThLj1qqj4NSCbB9vap5QsWlkz/APWpwl3dKrq2VpyNg9aknlLKtk08PVZZfp709ZM9DQSWFfJpweq6tT1bFFgLSz49KkV8j/69VFfmnK9RyAXBJg09ZM1USXFSiTA61FmgLAfijdiog+BTlep3AkWTIqQPmod/FGcUAWhP7U7zQaqq9O3mpsgPidZcU5Zuf/r1XV8U4SZr7o7bltJg/WlU5FVQ3FSCTA61Ljce+xYBxTxJg1BHJkbW/Ong5PrUcrRJOJOKek2P8KrbtppytS30YFsTCpFfAqmkm2niX/aqeTsBaV8VIHzVQTN7VIkm6pcWg0LSycU4PmqwepFbipJ5Swr8U5XquHwKer5NHKSTq9O8z3qANivNvin+1Fovw4uns7dW1XUE4eKJtqRH0ZvX2Ga87MsywuX0fb4yajHz6+i6mOIxNOhDnquyPVEfB4/lUnn18ut+3Lrn2jcui6aIs/cLuWx9f/rV6N8L/wBrbQ/HEn2fUlXRbzGR5smYn+jcY/Gvnsv47yXGVfY06tn05k0n83ocNDPMHVnyRlr56HsCS7hxT1kry7Xf2rvBWh3BiGoyXjLwTbwl1H48D8q0/Bn7R3hHxtcrb2uqJDctgLFcKYix9ieP1r1I8QZXOr7CGIg5duZHZHMMM5ciqK/qegq9PWTHeqyyZ5z1/WnCTmvWOwsb6kV8Cq4eniSgCdZKeH4qur5p++lYVixv4pyvVcPmnocjqM0uUlx7E6yYr4q/4K+/sB6t+1D4U0/xf4Qt/tfijw5E0ctko/eahbnnCf7anoO/SvtEPinB/etsLiJ0KiqQ3R5+Y5bSxlB4evs/w8z+a3XNBvvDGrTWGpWd1p99asUmguIjHJEw6hlIyDVWv0i/4OCPCH2bVvAesQ2MMcc6zwTXCQhWkfggMwGTxnGa/N2v0LBYn6xRVW1rn4LnGXPA4ueFvfl6/iWrG+aBsZrodK1bOPmrlKsWd+0DjmsMZg1UjocEKlj0bS9VPHzfrXS6Xq+NuTXmml6xnFdNpWqblFfC5nle+h2U6h6VperZK/NXR6Xq/vXmmk6tgr81dJpmqcjmvzzMsr30O6nUPStL1TG35q6TStU6fNXm+j6g87KqK0jNwFUZNe+fs+fsjeOPjTqFu0Wk3Wl6SzAy395EYkVe+0HBY/QY96+FxmR1a8/Z0ottnqYOnVrT5KUW2fRX/BNDRri71/XtU2t9ljhSANjhmJzj8K+xEf5q434OfCnS/gt4ItdD0pP3UIzLKw+edz1ZvrXWhq/UOHcpeXYGGGlutX6s/Wcqwbw2GjSlv1LXnj3p6vxmqgkqRZTxzivcPRLIl2mpFkz1qqJsDmnq+V5/Wp5SHBFlXxTw4quCR/FT1fI/2qViOVosBwacj4FVxJg09XzSJLCSc0/zeaqhsmnq+B1qWio6llXp4kxVdZMivn/9pL/goL4f+COpS6PpUC+ItchO2VEl2wWzejtg5PsPzFdODwNfF1PZYePM/wCtzzs2znBZZQ+s46ooR8935Jbtn0Ur5p4kr86L/wD4KjfEi5vjJbw+H7WHPEIs2fj6l816v8BP+Co9n4k1SLTfHGn22j+b8q6jbFjAD/toclR7gmvbxHCOZUqftHFS8k7s+NwHipw/iq6oKo4t7OSsvv6fM+wxJkU9JNwr5t8b/wDBTn4c+E71obBtT15lOC9rBtjP0ZyufwFT/Dz/AIKYfDnxrqEdreyah4fllbar3sQ8nJ9WQnH1OBXmy4fzHk9p7GVvT9D3P9dshdb6usVDm9dPv2/E+jA+akSbA9ao2GpQ6nZx3FtNHcW8yh45I2DK4PQgjrU4avIlFrRn1EZJq62LaSg96erYPFVVfGKcJmz1qOUZa80q3NSLLk1VWbcafuqSbFoPzTlkqtG5J9qkByKCSwslO31XVuKcHzQBaSbA9aljmqoj04S4NQ49gLm+nK1VVmOetSxzA1Di0BP5lOBAqFX3DtTt1ID4hDU9ZKqGXAx/KpEmz9favubXO3lZaEmKcHyarq3NOD4NIRZWTNPWT3xVdZMU7fk0h3LSz+tSE1UR6eJPc1LjcejLCtinB+Kh87Ap68gVHK0STB+Kcr1Bux604PxSuBaSXH3vzqRJQelU1kqRG54pciAj8R+KLDwjotxqOpXUVnZ2qb5ZZDhVFfNvj3/gogZNQkt/C+mxtApIW7u85f3CDGPxP4CuD/4KQ/Gu5u/HVp4Pt5mjs7CJbm5UH/WyN90H6AZ/GvnvS9Xxjmvz/ibOsZTm6GEfKlu+rPz/AD7iSrDEPC4Z8qju+tz6bn/bR8Ya5plxbSXFnGtwpTfFDtdM+hzxXGR3f2wmRmLMxySTya870vV+RzXS6VqxyvIr8Uzx4zFPmxM3Jx2u72PnJ46rXadWTlbudDRUdtcrcLTpJVhjZnZVVRlmJwAPWvk3F35WWve0Q7FAJUgjII5BHavKbr9r/wAHx+Ixaw6h9otY/MWaVIHYl1+7s4wwPIz9K9G8L+J7HxjodvqGnzC4tbgZVgMEeoI7EeldFfA16CUqsXG572ZcKZzl2Hji8dhZ06cnZSlFpXtdK7621Prr9kX4rXHjPwzPpWoTNNdaZjy5Hb5njPQH6V7NHLzya/PS0vp9Pl8y3mlhf+9GxU/pXp3wm/ah1zwRqUMOo3Uup6WzBXSY7pIx6qx5/A8V+ucK+JFGhh6eBzGLutOff0ut9F1O/LOIYQhGjiE9Op9geaMfep6vxWbpOsQa7plvd20gkguEDow7g81cSX1r9ojyyipR2Z9jGV1dFpXxTleq6ycZ7U5ZMUrWKuWFenB+agWSnK/NICyshanK3NQb8U9XyKVgPNf2u/2WdD/a9+Dt54V1otA7HzrK7RcvZzj7rj1HYjuK/Hn49f8ABMT4xfAfXLiGbwjqXiDS42Pk6lo8LXcMq9iVTLofZgPxr90vMz3NOVua9LA5pWwq5Y6x7M+ZzzhfC5lJVJ3jPuv1P51Nd+BPjbwxoE+q6l4P8TadptqQJbu60yaGGMnpl2UAVynWv6QPiD4F0n4qeDdR8P65ax6hpeqQNBcQyDIdT/I+hr8tf2mP+CFvjTwrr1xefDW+s/EmiysWjsruYW97bD+7lvkcD1yD7V9Dgc9p1Xy1rRf4H5/nXBGIwsVUwl6i66ar5HwjaXhgbnpW9pOrZA+amfE/4Ta/8G/Ht94Z8Sae2m61pzBbi3Z1fyyRkcqSDx6GneHtDj8jMh3H+VcfEebYHAUPbV3v0WrZwZHwjmmZVfZUYctustF/mdNpWr+9dNoupNNLHGis8jkAKoyWPYAV7T/wTk/YD0P9sZfET6tr+q6OuhvEEWzjjbzgwyclwcfhX6Gfs7f8E2vhf+zrqcWpWOm3OtaxDgpfapKJmiPqiABFPuFz718bKphcdSVehe0u6PbjwLmdKs6Vfljbd3v9xyX/AATB/ZOuvhR4Im8VeJLEQ6xrqL9mt5k/eWsHUEg9Gbrj0r66jb5aqLLtPFOEvHFFKjGlHlifpGX4OnhKMaFPZfiXFbFOV6qxy4apVmHrWh3FlWzTlbNVxJmnK/PWp5QLAODT1fJqDzM9zTlb8qkCyJiDUqPnpVNXwKkEuw0AWvMx2pyS8VXSf1/SpBNz61PKTKNyr4s8Zab4E8O3eratdw2On2MZlnnlbCoo/mfbqa+H/jb/AMFaNU1DVZ7PwHp9vZ2MbFVvr1PMmm/2lT7qj65NR/8ABX/44XVpqOh+B7WVorWSL+0LtQceackID7DBP418T2d7gCv0DhnIcNOksTiVzN7Loj8j434kxtKrLB4GXIlu1u369D6Mf/goF8VdRinSXxRIY7hDGwW1hXaDwcEJkfUGvMTfNfzNJK7SSSEszMclieprlbS+wa1rG5k2FmiuI1WQx5kiZAWHXGQM/hX6Dh6eCo2pQUYOWy0Tdu3c/Bs5eYYv38ROVRR7ttK/5GxQVzUNtceYtTVrODg7M+WfYQLikZc06iouwsj7I/4JhftDyWs994J1nUFWzSM3WnNPIFEXIDRgnscggfWvtqKdZ41ZGV1PQg5zX4tsuTXpHwK/ao8XfALXIZtN1Ke407cPP0+eQvBKvfAP3TjuMV8NnvCLxVWWJw0km/s20b9fM/aOC/FSOW4Wnl2PpuUI6KaeqT7p9F67H6vhyDTw+TXJ/CD4o2Pxj+HWl+ItNLfZ9SiEmxvvRN0ZT7ggiun34r8wqUpQk4SVmj+j6FenWpxrUneMkmn3T2J1fmpVm2j1/GqqvTxJWVjUtCXP8VSIc+tUw/NSJMVFTygWlkI//XTll96rrKCafmpJ5SyrYNOD5NV1k4pwly3egksK/FPWSoFanLJigCykh607z29qrrJxSmTnrU8qA+J0kzTg/wA1Uw/FOVq+25Ox6Bc844/+tTo589areeM96erbueaWvUOVFrfTkc4quWK/NSxy5PNK1yXFotJJg09ZKrCTJ609X4pWZJYEuaer4qur08PikO5aWf1qTvVNJMinh+anlHoWBJjrXy3+2F/wUfs/g3rE/hnwiltqXiGH5bq5k+a3sW/u4B+d/boO+ele0ftJfEWb4WfAfxZ4gh/1+l6bNPF7OEO39a/GGHxLNql/LdXEzzXFw5llkY5Z2JyST7k0pUJyg3E+I4wz6rgYxoYd2lLVvsvI9f8AFnxY1j4o+K7jW9dvDfaleEebKVC5A4AAAwABVnTdT+7zXmml6sePmrptL1gYX5q+IzTLW229z8w9vKcuebu31Z6Rpmq52/NXSaVrHA3GvNtL1XcODXR6XqmQOa/Pczyvc66VXsel6XqvTmsr48y3l98F/EMen7vtklm6Jt+9yO1Zuk6pyOa6Kw1BZ4vLf5lYbSDyCK+HqYV4fERr8t+Vp272Z62AxjoV4V0ruLT+53Pzb8I+LmtZVjkzHJCdrq3BQjgg196fsZ290vwYjuLlHjjvLp5rcMMbo8AZHsSD+VWG/ZW+H+teJv7WuPD9nNebt53D5WPqw7/jmvToII7WBI4o0jjjUKiIoVUA6AAdBXZxRxBhsZTVLDxae7v+SP3/AMQvGxcS5BTyWnRcfeUpNtOzirJR+/cdRRQDg18OfgZ9lfszyTH4N6T5+7dtbbu/u7jiu/D15J+zP8Ybfxx4ZTSWhjtL7S4wvlp92VBxuH9a9QMjf3jX9b8N4ijWyyhPDz5oqKV/NKzufqGX1ISw8HTd1ZF1WzUqS7RzWW07DozfnUMt1Iq8O4/Gvd5W9zu9TcjkyakEtcrNqMq/8tX/AO+qqyarcdppR/wKp9kT7Q7YSY4qRJOa4B9Zuh/y8Tf99VC2u3QyPtM//fZo9ixe0PRw1OD8V5n/AG9eD/l6uP8Av4aP7fvP+fq4/wC/ho9iw9qj09X3CnB8V5cPEF7/AM/Vx/38NOXX74/8vVx/39NL2Nxe1R+Rv/BVs/8AGfvjf/rpF/6AK8f0P/j3Nenf8FK55Ln9t7xe8jtI7PFlmOSfkFeY6Gf9H/CvF8RNMJTX91HVwnriJ+rP0g/4ISHFr4+/66W//oJr9Dt2K/O//ghS2LPx9/10t/5Gv0JVs1ycN/8AIup/P8zoziN8XP5fkidXyakD4qvvpyyHFe4eWWFfBpyzMOlQB805XwKnlHcsiTnnn8KmR93Sqay7fxp3mcUrFXLitzTw2KppIfWpVlBNIZaVsinb+arhqcJMmp5QLCvXxj/wUI/4Knw/s9a3N4N8Ei1vvFUYxe3co8yDTSf4Qv8AFJ7Hgd819UfFrxdJ4G+FviPWoV3TaTplxdxj1ZI2YfqK/ni1v4gXfjTxbqOrX00lxeahcvPNI5JZmZiTmvpOG8rp4mpKpW1Uenc+M4wzqrgqUaVDSU769kux7T4y+OPiL4xeKH1jxNrF5rGpSjBmnfO1eyqOiqPQYFWNP1ISgfNXk+ja1t2811mja5yvP61+hxjGC5Y6I/JaknUblN3b7nsnwcnsbvx1brfrHLb26+a0b/dY9ACK+ydS/sX40/DK40m8ghaSGBnspAAGt5Avy7T2zgAj0r85B4tm8KeJIdQUsbWVBG5H8BHTNe7fDv8AaZh0/RJGt7gzTiMqiqc4JHGa/jLxs4d4rx/GeGxeW+0/duHsXG9o6q700Wt+a/Tc/oHgalw9S4TrRxLheSl7S9rvtvrttbqYyTm3uHjJ5jYqfwOKv21zvFczFqbT3DSMfmdix981p2l5gcV/dmHk6lKMavxWV/XqfxPmGA5Ztw2NvNFV7a5DCpg4JrOdKUXY8N6aMdQ33aKCMiswP0U/4Jk291bfs2RNPu8ua+neDP8Aczjj/gQNfRQevj3/AIJxftTprVjbfD3VI4be4s4WbTZkXaJkXlkYf3h1z35719eK1fiPEFCrSx9T2qtd3Xof2ZwHjMNiMjofVZcyjFRfdNbp/p5FhWpyyYNVxJzUivXin2BYD05WquslOD80rAWFlKntUiylTVVXqRHxUOIFoSKxqQPzVMPmpFm6VPKBb8zinJJk1USX1qbdzU2sTyljeaUPUCyED1pfNz/D+tArM+It/vT1kqsHqRXr7g7ywHxUglY96qrJTxJQBZjlz1qRXxVUSU5Hwc1Lh2AtK2ypEm3e1VxKDTt28Vnqtwtcsh808PVWN9o/pThNxRZMnlZaElPWTAqsk27+tSB81OpJh/F/wJB8U/hdr3h25YLDrFjLas39zcpGfwr8PfEOkXHgXxfqWjXUsMtxplzJavJDIHjcoxBKsOCDiv1l/wCCkfxuu/gp+y1rV1pskkGpaqy6bbSocNEZMhmHuF3Y96/HppC53c565Jr3crw/PSk5bM/J/EPE0niKVKK9+K1fk9kdZZa79miaRj8salj+FZmj/Ey41a+gnDQRrE5aNdmcAgjHv171mxXXmQPE3/LRStcnpvh3VtJ1Lyo7d7iLd8jow6ds5NfJcWZVi3FSwt+t7H6d9HvE8ILEYiPE0KcpO3L7W3Lbra+l+/dH0h4N8T/2tZGQ7Q0TBSR0ORnNdhpeqsAPm/WvIvAKPo2l7JpFaaRvMfaflU+n4V2+lavjHOa+Nq5VVWHiqy962p+ceIWKyirxLjKmQpRwzm+RR0jb+6v5b7eR6Vpmr5C/N/8AWrpdK1bkfNXmumarwDmui0rVskV8TmWV+R8tSqHpml6ryPm/Wt6zvRcD/arznStV+7zXSaXq+AOfxzX5/mWW2d0d1OpY6qiqtlfrOoGeauQwtcSrHGrO7HCqoySa+alTknys6oyT2PQv2W55ofjDp/k7trK4kx/dx3r61Z8149+zF8GZ/BNpJrGpRmO+u02xREfNCnqfc164SxFf0z4d5TiMBlSjiVZzblZ9E7W/zP0fIMLOjhV7TRt3sOd+cVWnkyOvFSvE7D/69QvZSkfdH5192ezIq3D/AC+tVZCSKvPpc7jhf/HhUcmiXJHyxr/30KaSM2jNnkwageQAVpP4bvCf9Wv/AH2KY3hW9b/lmo/4GKrmSJ5WZZm+ammZt1aTeENQbpCp/wC2gpp8Gagf+WK/99j/ABo5ok8rM4SkH71PjlJ+tXv+EK1I/wDLFf8Av4v+NPXwVqSHPkr/AN9ijmiHKz8d/wDgpA279tjxd/vxf+gCvNtD/wCPevuD/gpH/wAE2PHXjz4nSePPBukya59vjVNQsbd1NwjqMB0XPzAjqByPSvnXw1+wv8YrqeO3X4b+Lo5JG2jzdPeNR9WYAD6k187x5/tGFgqCcnZLQ7+GYujiJe001Z9i/wDBC9ttn48/66W/8jX6DrJ7180f8E3f2QL/APZT+F95/brw/wDCQa9Ks93HE29bZQMLHu6EjuRxX0irc1GRYedHAU6dVWdvzOjMakamIlKGxYWSnLJVcPzUivmvV5WcDimTh6er8VXV6cr81JMo9iwG4pyvUIkGf/r05XxQZk6vxUkcm3/Gq3mU9XpWC5YWU461LHJvNVUkpyybTU2L5hviPRrfxN4evtNu132uoQSW0y+qOpVv0Nfzr/tKeAbX4IftB+KvDNjqdpq1npOoSww3Ns+9HXccDI7jofcV+3n/AAUc+N158Bv2NfGniDT5JItQFp9jtpVOGieU7Nw9wCTX8/VzdSXtxJNNI0s0rF3djlmY8kmvs+Fac1GdS+mx+ZeIGIg50qKXvK7v5M7DRtbzt+aur0XW8Y+avK7C/a2kFdNo+tZx81fZRlc/O4vuetaRrAkUKxDK3Y85rqdHvI1iAjVUHoowK8o0bWwcbWzjrzXW6Lrf3fm+lPVaot2asz0WzvcjHetSyva5HTNV8wDmtizvOeK66NZp2Z4mYZepK8TstDb+0L+C3VgrTOEUn3r6S8Jfss+E/E/hGdre6vIvEE0CBbk3DNCXXOB5ZO1Qc4JHPA9K+PNR8Vv4b1TT7n/lmrsCfQ8f/Xr6F+CvxyVI4mNxhcAk5r+R/pKcbcV4DMsJQyKtOjCmlP3ftyvtLuktOV6a6rY/bvB/w3yPMMnxGMzKnGpObcdfsRtuuze9/I4jVdNm0XVLizuF2zW0jRuvoQcGoK0fHviaLxP451S+i/1dzcM6nHXJqhbwSXk8cUKNJLKwREUZZieAAK/rDJMRiMTlmHxeLhyVJ04Sku0nFNr5M/k3N8JTw2PrYag+aMZyjF90m0n8z0T9kKG6n/aT8Ji03+at6CdvZADu/wDHc1+pcb8Hmvlb9gb9ki8+GJbxd4kg+z6tdRbLO1f71rG3Vm9GPTHYfWvqZX4r834uzClisYlS1UVa/c/pvwtyHFZZlTlik4yqPmUX0VtL+bJlkbipA5NV1fmnF9x5r5PlP03mLAfJp4eqyyY71IsuelSUWFkpyvVcPmnrJxQBYD05WzUCSU4PU8oFhXqQTk1VWTmnrJzUtAWVm9acLiq4bFBelYD4lEpGM/8A66kR6ph8U9ZcdM19u4nYW99P8zIqqk+TUiuG6VNmgLKSVIH5qsGApQ+aALSt/nNOVyO9Vw+O9OV6ALUcnJzUiye/61UElPWXBqHACwJNpwDUomx1quJcjqKckoJ4qdUFrnhf/BSX4L33xu/Zc1a10uNrjUtJkTUoIUGWm8vO5R7lS2B61+QLI0TFWVlZTggjBBr99c7lwf1718af8FJP2IfAh+FXiL4h6fYzaP4g0+MTyiyYLb3jFgCZI8EZ5zuXB9c16+W45Q/dS6vQ/O+NOGZ4pfXqD1iveT6pdV5n5qVcsdQaJsH86p0V71SmpqzPx867TNVBIwa6TStWyF5rzexvzAwz+ddFpercrzXy2ZZYndnVTqHpWk6ucLzXR6Zq2cYNeaaVquFHNdJpOqkFec1+fZlle+h3U6lz0RPE0el6fNdTN+7gQu2D2FeL/wDDWWs694gjuLb+z7e3tpme2QxFmUEFfmOfm4OeeM1313jW9FubQtgXEZj/ADFfN918HfFPhrxNJa2ul3V9Bv8A3UkOCNvbOen16V8nLJ6coybWv6H9FeAtThR4rER4ljTk7R5PaO0ba81r6X2v5H218BPircfEHwvJcXnk/a7WURO0a7VcEZBx2PWvbfhDqjN4/wBH8v5pPtKbcd+a+Zv2dPCNx8PPBfk3rK2oXsgmmVG3LFxgLn1HevtD9jv4M317qsPibVLdobO3G60WQYMzf3seg9a+Hw/DtTFZnCnh1tJNvoknufL8YRyvF8WYj/VyKWG5048vwpaXt5XvY+pN5GPpUokB6Gqhl3GnB6/o7lTR9MWw9PVsCqqynPWpFlBqZRaD1LIfFPVsVXD05ZKkOVFhZMdKdv5quGyakV+KLEWZMr4p4eoFfninB+anlEWUkwOtPSfn1qqj4qRX5o9R37lpZQxqQNmqayYNSLKfWp5b7DLStjpTxJVZJckVIH5qGmUWA9OD1XV+acr5pAWlkwad5mariSnBqALCnK04Ntqur5p6vjvU2FYnV6kVs1XD05XxUmfKWAxJp26oVenK/NBB5b+3B8CJP2l/2XfFng+2IF9qFp5lnk4BnjO9B+JGPxr+ffxd4T1LwJ4lvdH1aznsNS06VoLiCZCjxupwQQa/pcV8CvmT/gpB+xb8OvjZ8GPE/izWPDsZ8UaHpc11bajZN5Fw7IhKq5HEi8dGBPoRX0GR5osNL2U1pJ/cz4/irh946P1ik7SivvR+Fleofsm/DCD4u/Fqy03UJJI9Kh/f3ZQ7WZB/CD2yeM+ma8vPBr0L9mz4kx/Djx75s0iwxXaCMuegIOR/OvT42rZhSyLFTyu/tuR8rW6fdeaWx8HwjhcJiM4oUcc7U3JXvt6PybP1A8efsr/D744fBCbRdO0TT9F1bTbcyaZeWUSwyiRUAAcj/WK20A7snvX5u211JpOozWsp/eW8hjYe4OK+xfCf7XGm/DXwhNq1/fRpHDGWjTf80rY4UDuTXwpf+Mm8QeJL6+b5WvJ3mK+m5if61+D/AEZ5cQ04Y/D5pOc6CknBzbdpO/Ok3rZ6N9n6n6P4w4LLsPiKDwiiqjT5lG2ytZux6Zo2uYK8+1dXpureYFryTRdbJK/NXXaLrPzL83Ff1RsfjGj3O/ntodYtDDcLvRvzH0q74Y0xdD/1N1dMv9134H5Cue0rVllA+atuzvfesqmBweJnCeKpRm46pySdvNXMZYjG4elOlhKsoRn8STav62OssrwjGDXS+ArmZvGGkfZyfP8AtkPl467t4xj8a4OzvCCPevr3/gn7+yPqniTxXZ+MvEVjNZ6Pp5E1jFOu1ryT+F9p/gHXJ6nFepmGaUcPhZVKz0tou77HyGX8L4nMMdTw+Gi73V30Svuz720ws9hB5h+by1z9cVaEm0CqsUu3ipPOGOtfgstT+wuTSxYEmaer81WVs08SY6VPKRyMsq/NODcVXVw1SI2BUkkgmYGpUk3d/wAPSoFalLZqeUrmLIfinBs96rKWDd/zp6S5GfepKLIfmnrJVcPTlagCwslO8yq6tmnbqAPiTvSj5e9RrICKcDkV9vynYSK+KkWTaagHJpd22psBaWb+9TllB9qqrJTg9S1cC4r05WqvC+DT/N25qeVgWVbNOD5FVw/FODUgLCvzUgbiqytxT1agC0suTXP/ABd+Hdn8Xfhnrfhu+Yrb6xavbMw5KbgQD+B5raDc04P70rWfMtyKlONSDpz2as/Q/EP44/A/X/2fviBeeH/EFnJb3Fu58mXafLuo88SIe4I/LpXH1+5vxC+FPhn4t6P/AGf4m0PTdctOyXcIfYfVT1U+4Iryr/h2b8EzdtN/whqZb+D7fc7B9B5le5TzeKj+8TuflGO8OsR7VvC1I8vS97r7kfkPVizvmgevev20/wBhDxD+zZ4wvL3TbG71PwbdSNJa3sMZk+ygnPly4yVI6BjwR3zXz7ivTjKnWhdapnwOMwNfCVnRrxakv60Oo0rVuOtdNperfd5rz/Ro5rmYIgOPU9q7nwD4F1zxz4os9F0e0kv9Rvm8uCFGCmRvQFiB+tfF5tUwNOssNOpFTeyvqepg8lzKvQ+s0aEpQXVJnVaVqu3oa9T/AGdvh3efGf4kafotv5vlTOGuZE/5YxD7zf8A660vhT/wTW+J3inUIxq1na+G7PI3y3Nwkrgd8IhJJ+pFfdH7Ov7NWg/s5+HDa6aGur+4A+1X8oHmTkdgP4V9h+tfN1sjjVqLn26n0mR8M4nEVVLEwcYLe+jfkkRfD/8AY48C/D66juI9Ol1C5jIZZL2Uy4P+7wv6V6vAqRoqqoVVGAAMAVXD8U7fXs4fB0KEeWjFR9Efq2HwtChHkoxUV5Is549aVZMVCJGA609WDL8xGa1cexvYmElPEnFQmgHaakRaWUgU+OTPWqqvkU8PzQ4p7AWw+TT0k4qqshWpBKCaz5Wh3LKyYNLu5qAPxTw2RUk8pYDZpweq6tmnh+aCWrE4bNOWSoFbmn76XL2EWBJmnxyYqsHp4el6lcxZWepVkqmr09ZMdDU8qewFsPT0fiqscmfvVLvNS42HcsA4p6tVZXzT1fmpGWFkwaerVX309XxQBOpwvX9aeJKrh6crVNuxPKiwr5qvr+i23ijQb7TbyPzLXUIJLaZD/EjqVYfkTUit81OD4oV07mcqd9D8Ff28f2FvFH7HfxQ1CG6sbi68K3c7SabqsaFoJIySQjN0Vx0INeBsuV56V/S5rugaf4q0uax1OytdRs7gbZYLmFZY5B6FWBBrym5/4J4fA281JryT4W+DWuGbcSLFVXP+6Pl/SvrMLxMowUa0W33R+cY/gKUqrnhaiUX0d9Pmfz9mVmRVLMyr0BOcVLZ3jW79eP5V97/8FL/+CR+ufD7xdeeMvhdodxq3he+JmudJsIt8+lt32Rjlo+42glemO9fBWqaNeaJdvb3lrdWc0Z2tHPE0bqfQggGvpMHjKVaCnSa9D4XMsuxWFrOniE799bP0Z0Gj6yQR81dXo+t8j5hXnWiWU93cKsatjPJPavQfAHw+1Txp4u0vRdN8ua/1a4jtbdXfYrSOQqgseByetc2K4jyzC1lh8TWUZPZP+tDtwPDeaYui8RhqEpRXW35dzsdG1vG35v8A61etfs5fDfUfjz8UNH8N6bC8j3sy+fIBkQRA/O59MDP44FekfCb/AIIsfFLWdSjHiTUfD/h2yBG9kuPtcuPZUAU/iwr9A/2Wv2QPCP7KPhhrPQ4pLvUroD7ZqlyAZ7kjtxwq+ij8c9awzDP8PRg1RlzS6WPWyfhLF4iqpYmPJBb33fkkSfDH9iL4Z/C2aG4sPDVrcXsOCLi8drlgw7gOSAfoK9ejIRdq4A7Adqrq+OlPD1+e4itVrS5qsm35s/V8Lg6GGjyUIKK8lYsq2advqur4pwk4rnOksJJg1Ik3HP51WV6eHIoAtLJinCTaarrO1PWfigmUbllZM1IHxVUNzUiOanlM3FlgNmlBqBZM96eHwKkkmEmKkSTcKgV8CnBsmp5SuYsB8Ub6gLMT1pS5z3/OpKufEvmE/WnI5qusnvT1kya+4O+xZjl55qTORiqokwO9P35/iNBPKyyTmjO2oI5c9dtSAhhSsIkV+aeHyar+YAP/AK9H2nbU2AuJNsGP61Ik2T6Vn/bgOxpv9sKh+4zVPLcDWEme9ODVjnxJGn/LOT86Q+LY1/5ZSfnS5WBuB8inh8Cuf/4TOIf8sZPzFIfHcKf8sZD+Io5WK6OjWTFSK+frXMDx/CD/AMe8v5ilHxDh/wCfeb8xS5WHMjppAs8bJIqyIwwVYZBFfBP/AAWW8B6H4X8NeDbzS9G0vTbq8v5VnltLWOF5gIycMVA3c+tfaQ+IUJH/AB7zfmK+Lv8Agsh4jTXvB3glUjkTy9QmY7iP+eRrrwKarL5/kedmkKc8O+ZJ7fmj4s8OjGK94/YVGP2q/Bv/AF+D+Rrwfw9/DXvH7DJx+1T4N/6/B/I1+K59/wAj2n/iX5n2OT6ZfJLsfrApwM07fVXNSI+B6/jX6xoz57lZZVsU9X5qqkm4VIHzRYksCSpFbFVg+TT1kqQLQlOfvU9Jcr81VVkp6yZpWK0LBbC05WzUKTf8CoE2fp9ajkFYsCSno2Kg3fN604Nip16iLKyEdDT1myaqh6cH5/8Ar0cqYF0NTlbiqqTYqRJdxxWbi0BZ308Niq27nrT0epDlvsWFkp4eq6v705ZKCLNFhWp6vmqwenq/PWp5ewizv4p0crAVX8zNPWSj1Kv3LSS7uuBTw+e9UvtABpRehD0P51LSAvh6er81mnV1B+6fzpp8RIh+4351PKw5kayyYFSbqw28Vxp/yyk/MUx/Gscf/LGT8xRysOZHQh6crVzJ8fwr/wAsJvzFJ/wseEf8u83/AH0KORhzI6kPmnK+DXKj4lwAc203/fQpw+Jdv/z7Tf8AfQqfZslyizrA+a+G/wDgvLYW3/DKuk3H2a3+0NrsIMvljeR5cnG7rX1yPidAB/x6zf8AfQr4w/4Li+M49f8A2VdJhWGSMrrsLZYg/wDLOSu/K4yWKh6nDj+V0JH5deHTtdfevZP2T+f2lvAX/YctP/Rq1414f+8tex/spEj9pLwFjr/bdp/6NWvzLjT/AJHEfVfofYcO/wC4v0P3nR+Kk3YqukvFOEma+5sfNyvcsB6kWbC85zVVXwKer89aXKHMWlcGnh6qiTH8RqSKTB5NSUWlfIpyvzVdZdx605XqeUCyr5pyvUCyU5XpWAsJLipPP9qrBqcr0gLYkyOtOR8VVV/Spkm+XniiwnG5OsvrT9+KriTdjvTlc+/51PKZuJaV6N1QiXHtThJkdakg+Ig9OVuag34pytmvuD1CwGwKdvqBWp4fFTygWA2fSnK+P7tVlfJp4YmpCxNu5ppbmmNJ9PypjPighocz1XkanFuKgl6EmgTGSNmoJGzSu/NQyNmgzEY5NROwXPvRI/FQu+aCZDmbAo3bajxQSTQSTCTNfIf/AAVnfHhTwf8A9f0v/os19cZIr5d/4Kj+BdQ8TfCzRtVs4Wmt9EvC90FGTGjqV3H2Bx+ddGF0qJvz/I5Mcm6EkvL8z4v8PHG2vdv2Hz/xlP4N/wCv0fyNeE+Hui19F/8ABPnwPf8Ai39pfQ7q1hZrXRnN3dS4+WNQOMn1JwK/E86hKefU1FX95fmfZZS0suk32P1AWbB6CpQaprJinq+a/WnFHgFkmnrKQvr71WErD/69ShwR1qbNAWElBNPV+arq3FODFelTe5PL2LCvmnpJiq6SZNPDEmjlJLCy09XqsDinq/NSBZjk2txUiy7h81VRIRUm+lYrfcs80oO2q6yfhUglXA61HKKxMHzUgeoC27FAb5qm9hFkPjmpFnBNVVfFOBwKLJgXA+eacHqoG4FSxzcc1nKLQ7llXyaeDVdXyOKcHqRNJlgNT1bBqBXzTg/NBFmSE00txTWfmozJ/nNCiFgkO6qsxqWaXaaqXD5HvV7CkkR3D89aqyucU6R+agkcimZjJG4qNmzRKdzVG5p8pApak3YqNpQDSNNjpS5Xe4idHJr5D/4LOvn9mXTP+w1F/wCgPX1sso9a+d/+Cn3wZ1f40/syXEWhwtd3ui3aaiYIxl5Y1VgwUdyAc49jXXgbRrxcu5z4uLdJpH5WeHuXWvZf2Ujj9pTwH/2HLT/0ateO+HU8ufaylXjJVlIwQa+kP+CfHwY1j4wftPeF/wCzbaR7PQ72LUL+4x+7t4423cnpliAAOvPtX5ZxdTlPOYxgru6/Q+yyCSjgG5dj9rUfNPVsmoYm7GlVz3r7i1tz51xvqWA2Ker81XDYNO8zigzLAenK9V1kqQNuoAsK2adG5HSqwbpT1ep5SuYtpJkU8SVVD/8A1xTkfHf86kotq9PB4qurZFOD8VPKBYVqfuqur09HqQLCS7ak88n0qqHp6tgUAW1k/TineZVVXzThMQO1AHxKjk/TNOEoBqqHp8cmOP1r7ix2FsPzTg/FVVlC1J5oIqLAWA9OWTBqusymnh80rdwLAOaUbf7tQh8CodS1210S1ae8uIreFeS0jBRWdSUYLmk7JdWTKSiry0ReCRntS+RH/Eq4964qT49eGUm2LeNJzjckbEVzPj74vt4hY2umSNHa4+ZwNrSf/Wr43POOspy7DSre0VSS0UYu7b/Rd2eTis8wVGm5Kak+yPSNQ8VaHpM3l3F1aqw6rncR+VSaX4g0PW5NttPayt2XOD+VfP5JY8ksfU06ORoZFZWZWU5BB6V+VR8acb7a8sPHk7Xd7ev/AAD5v/Wyrza01b11PpE6XanrDH+VJ/ZNmT/qYfyrwm7+I2tXlosLX0ojUbfl+Un6mqFv4l1G0k3x310rZzkSH/GvfreNGBU0qWHm11baT+7U7JcWUb6U3Y+hxotmf+XeH/vmlGiWf/PvD/3zXn3wu+Ls2qXken6kQ8snyxS/3j6GvST0/pX6VkHEGFzjCLF4Nu2zT3T7M+gwONpYqn7Wlt+QxdCsc5+zRf8AfNFx4Y0u/t5IZrK2likUq6OgZWHcEHipA9PWTiva1OzQ86uP2KvhTdXjTt4F0NZJDuby42jBP0UgfkK7jwJ8O9A+GemGx8P6Pp+j2rHLJbQhN59Sep/GtBX5qYTCuf6rTU/aKK5u9tSuZ8vKnp2LAkxT45M1AJOP607dWhJYD05XqnNeR2kLSSyLGijJZjgD8a5+6+N/hSwmMUmt2TOvB2NvwfqM1zYjG4fDq9eaj6tIyqV6VP8AiSS9WdgJD61X1DxRp+jf8fV7a2/tJKF/nXkfxQ/aDjmi+xeH7hW3j57lew9F/wAa8pubqW9naSaWSSRjlmZiSa/LeJPFTC4Gs8NgaftZLeV7R+Xc+ex3E1KjLkoLmffofWWl+J9P1p/9FvrW49o5Vb+VaQk/Gvju0upbC4WaGWSKRTlWVsEV103x58SS6ZHbLeeX5YwZVQeY/wBTXn5d4w4aUH9eouMltyu6f32sYYfium0/bws/LU+mFl461IsnFfJ9v8UvEVtceYur3m7OeZCw/I8V6l8I/wBoGTXbyPTdY2rcScRTgYDn0Ir3sk8TsrzCusNOLpyk7LmtZv1Wx14TiLDV5+zacW9rnsCtiniTmqyyhqesnFfo/Ke8WUfJ604NVdXwacHqQLSyH16U9X3HtVVJM09ZMGixRbxkcUu/b3qukpC9akSbI5rNxFYmEnNOD1DnPSnbsGlsIsK/FSJNhaqiSnI+KVkwLiucdacsmKqxzbTT1uOKhwYFn7xp4ANQBsU7zQBzUhy3JvLRvvKD+FILWFj/AKtfyqo2vWcTbWurcP8A3TIM14J+0D+2LJ4fv5tH8L+VJPEds16fnVD3CDofqa7sFluIxVT2dKPz6I+d4g4my/J8M8TjJ6bJLVt9kj6H+w279Y4/xFH9lWp/5YxN+FfnrrPxM8SeIbtri81zU5pGOeblwB+AOK6T4c/tMeLPh3fxsupXGoWYI32105kVh7E8g/SvfqcIV1C8Kib7H5lhfG7LqldQrYeUYfzXTa9V/wAE+5/7Fs2/5d4vyp40CyI/49Y/yr5Z8Uf8FAdUugF0fRbWzXby9y5lbPsBgfzqj4e/b58UWF2p1Cx02+t8/Mqo0TY9jk/qK4Y8L5hy81l6X1PoZ+LXDcavs1Uk/NRdv8/wPrYaDY/8+kH/AHzUiaBp7/8ALpB/3yK4/wCDXxx0f40aKbrT2aG4hwJ7WQjzIT/Ue4rtVl2mvBrUalKbp1FZo/QcDjsPjKEcThZKUJaprqMXw5YE/wDHpB/3zTh4d08D/j1h/wC+amE9PWUEVh7yOuyOM1j9l/4b+I9RkvL7wL4Tu7yU5eebSoWkc+pYrk/jXT+DPAeh/D7TzZ6Fo+maNascmKytkgQn1IUDJq+r1IslZ8q5uZrXuUnpZE+/Penhvlqur04PTAnD808P+FQK/H/16Sa7jt03SOsajqWOAKXLd6EysldlxTx9KcHz9PeuU8afFbQ/AXhi61a+v7f7LarkiNwzOeygA9Sa+OPjD+2x4s+It/NDpd1LoOl5ISK2bbK49Wcc5+mBXr5bkOKxr9xWit2z4ninjrK8kgvby55vaMbN+reyR97KQP4l/OnBuK/Lu3+I/iO0u/tEevawkwO7eL2TOfzr2j4Sf8FA/EHgqwktfENufESKn7iUuI5lbsGbHzD3xmvWxXBuJhHmoyUn22Pj8q8ZsqxFX2eLpypL+b4l87ar7j7eVjTvM3NXw7rf/BRnxpfXbNY2Oj2EOeE8ppW/Elv6V13ws/4KQyS38Nr4s0qFIZGCm8s8/u/dkJOR9D+FcVXhTMIQ5+VPyT1Pawvitw7WrKj7SUbu13Fpff8A5n1wkuzpxThMxrN0XXrXxBplvfWc0dxa3KCSKVDlXU8girhk3HNfNyg07M/RoVIyipRd0y1HJvqRXqmDjvUsT7f/ANdQaFkHNPSTFVw6+opyyZ+lLlAsq/NO35quHzTvNqeVgfEYkzTlk4qAHFOD19udhZSQ561JHLzz+dVVenCSgC4GBPY04PxzVUSYHXFLNfR29u0szrHHGCzMxwFA6nNAbasi8U+Jbfwh4dvNSu2229nEZW98dvxr5J8Z/GHUviTrkl1eTMtvu/cwKfkiXsPr711n7Un7T/h3xN4VuPDuiXcl9cSSqJp4l/chVOSA38XTtx714Xpmq8D5q/NeNK08RahTl7iWturPy7i7OlWrLD4ed4Lez0b/AOAekaXqnA710ul6vt215tperbSvzV0emawD3r8SzPK99D5anUPQ7e5W4TINSVzml6rwvP41u2t0LhfevicThZUn5HdCdx11dR2NtJNK2yKFS7tjhVHUmi1uUvbaOaJt8Myh43A+V1PIIr45/bB/aJ1pPjJJoNnqF5pthpMSrst5jH5ztnLNjr6AHjrWx+yR8YNUu/iRp+nz6he3lteRm3aOaYyKAEOwgHpjA6dq92rwtXp4NYqT6Xt5H7vl3gXj8Xw1LiKOKgrU3U9nZ3aSva+17a/gfW1ndvYXcc0Zw8bBhXpOi/tB7pVW+swq9PMjbOPwrzIdKK58j4ozLKJN4Cpyp6tWTTt3TPxjBZjiMK70ZWv06H0jo2s2+uWKXFrKssMg4Iq4teRfAfXZLfVprNmYwyLuVf7pFetK+7jvX9UcI5+s5yyGNkrS2kul1vbye5+kZZjvreHVW1n19SXP4U4PUR65oDYr6Vo9AsJMQOv503UdXg0fTJ7q5kWOG3jMkjN0AAyajD+teB/tdftLeGdP8Cap4ZsdWW61u5URNFbgusQz8wZhwDjtnNc2KrKlSc30Whw5hj6eEoSq1GlZO1+r7Hm/xe/aP1L4q67NHFPJbaNG5WC3RsBwOjN6k9fasHTNX+UfNXmmmaqcL81dHpWrYr8Fz3C1cTUdWs22+5+MVsdUxFR1azu2elaRqfK9K3re5W4XivPdI1bcBzzXSaVq3T5q/N8wy1xd0jenU0OipskixIzMwVVGST0AqO2ulnT3r5d/bH/ae1jwr8QoPDejX02mQW8IkuZIsB52b+Ekj7oHbvXDleU1sdX9hT6K79D7TgzhPE8SZnHLMJKMW023LZJeh9SW9zHdwrJE6yRyAMrqcqwPcGrFndPZXUc0bFXjYMCPavkn9mn9oLXJ/G2l6deapc3llcEWvkSY2ID0KgDgj2r6yFGZZfVwFdQb13TPW8Q/DzHcH46lgsZUjUc4KalG9t2ra9U0e3eGf2obOcxQ6jZyWw2hTKr7xn1I4Nen6NrtrrtjHc2c6XEMnIZW4r5Cr0v9m7xXNYeJW01nY290pYKeisK/WOC/EjG1sZDAZjaUZ6KVrNPpe26PNyfP6060aGI1T0T6nv6yZ6/L+NPD8VWDbhTslSK/dvU+05S0r4p6PVYS+vFPWSjl7ElkSe9PEtVgacr8VIFoSZXGfwqRH3H5jVRJKeslFii0GXP3qUNg1X38U+KTH8XFQ4hYsK+acsm09ah3Bm4NO7VOpJT8X+M7HwH4ZvNW1KZYbSzjMjse+OgHuelfEvxh/bL8TfFHVLiGzu5tH0bcRHBbsUd19XYcn6dK9A/4KO/Fm1h8N6X4dstRt5ZppzJeQxTBnQKPlDAdOc9a+TrO9yODX2XD+BpKHt6sbt7X6H4/4gZxiZ1PqWGm4wS1s92/NdDsINcuJn8xriZpM5JLnJq/a3u/OWyT1PrXK2V2WIVeWbgAV6Vafs9+NF8Iya82kbtLSNZMpMGnAOclo8ZUDrn3r6HMOKMoyt0qeZV4UXVkowUmlzSfRH4jU4bzDHKpPC05VPZq8mk3Zd2ZStuFLVK1u+dp/KrgbIr2KlJx1Wx8XKLi7MWjrRmisSTtv2fPiiPhJ8SbXUZpJF09wY7pUG4sh9u+DivsTwJ+0L4R+Is6w6brEDXT9IJgYZD9AwGfwr4FIyKIna2mWSNmjeM7lZThgfY14uZ5DQxsvaSbjK1rr9T9C4R8RsfkNL6rCCqUr3s7313s+n3H6YLJkdaer4rxr9j74v3PxK8CSW2oSNLqGksInkPWVCPlJ9+34V7Aj+9fmmLws8PWlRnuj+rMlzajmWCp46h8M1f07r5MtRyc/M1SBqpq4Bp6yYNctkz1C2rU5Xx3qsJiKi1TWbXRrGS5uriG2t4RukllcIiD1JPAqeR3sgcrK7PKv2tf2tbX9nfRI7WzWG98RagpNvAx+WBenmP7Z6DvXw942+O3ir4o6i1zrWt312WORF5pWJPZUHygfhVL9qv4qR/E79oTxFqNveLd2S3JgtZEfchiT5V2npg4z+NcZaXvIr9NyHAUcNRUnH33u2fz5xtmmLx+InCM2qcXZJPR26vvc6611OR12mR2B5ILcVoW9x5i1leA/DOpePNbi07SoPtF1N91S21V92bsPeul8a/C7xH8J57WHxDp/wBjmuolkUxyCaEkgZVXHDEdDXqS4nyeOYRySriILEzXNGnzJTa7pH5XjOG8fLCSzGNKTpRdnKzsn2uVaMVBBdbhip816lSm4s+Uaa3DpSFc0tFZgfT37Hf7W2h/DrwI+g+Kb64txbTk2cnktIqxtyQcZIAbPbvX1N4L+IOi/ETS/tuh6nZ6lb9C0L52n0I6g+xFfl0Vya6j4P8AxV1P4OeOLPV9OmkVY3AuIQ3yXEeeVYfTp6GvlM24XpYhyr0W1N626H7Bwj4rYrL4UsBjYKdGOl1fmSv9zt+R+m4kxTlkwKy/DfiGHxP4es9Rtz+4voUmjP8AssAR/OrytkV+Zyi0+V7n9NU6ilFTg7p6r0ZYDbjUiS7fSqqviniTFRymnMW1m5p29f8AZ/OqvmZFOD/5xU6lXPicPTg9Q04PzX3B3WJhJTlfFQg4pwfip5SScSZr5L/4KE/tC3VjrMPgfTZzDD5S3Goshw0m77kf0xyR3yK+r1bmvzr/AOCgelXXhv8Aad1Ke4VxDqdvBcW7kfKyhAhA+jKamVF1IuJ8bxzi61DLv3WnM0m/L/gnJ6VqwVV55rpNJ1fcRXm2l6sP71ap8bW2jGMTylWk+4qruJ98elfGZtl8YRc56I/K8ny7GZjiY4LAU5VKktoxTbfyR6xpeqY710Wl6pwuTXkvgzxsmr21tuZluJIwzrtKruxyBmu20vVePvV+eY7Awqpum015Hr5xkOZ5LXWGzWhKjNpSSkrNp7NX6HpOlarnbzXS6Zq+Nv615nper8r81dNpWrbsc18FmWV76HJTqaHmf7Un7GNx8aPE8ev6BfQWepFdkqTf6uUdef8AH36V0H7KP7I1x8FtQbWdevre+1byzFBFbg+TbBhgnJ5ZiOPQZr1DStU5Xmt6zvRcL7142PzzMPqv1KTXKtL21t2uffYfxCz6nlLyWniGqDVrdbfy33t5fIsDiiiivkz5M7n4Gvaxa7M0kirOy7Y1P8XrXrSOQetfOFpdyWNyk0TMkkZBBHavevDGqtq2g21w33pEBP171/RnhDntOtg5ZZy2lT96/dN9fNH3nC+MjOk8NbWOvrc2BJzwzGpBMB/jVVZMGnLJnr09q/ZD6rlPmb/goh+1Fd/DPTbXwnotw1vqWrRmW7nQ/NDD0Cg9ixzz6A18XabrDO+5m3MxySea9N/4Ke2V3o/7TAurhZPs19p8Rt2P3SFLBgPof514ZpWrZC8/rXNj8B7SCkz8K4ox9atmVSFTaLsl2X/BPStJ1U5XJ/Wuk0vVORXlqeKbfSoleedI8nAz1J9gK3fB/jOPV7eIrLH5rg5QE8YJHBx7Zr86zXB0oy5ZNJ9jfA8M5zi8I8fhcLUnSV25qEnGy3d0rWXV9D1nStVwRzXSaVquAOa810rVcEZJrpNM1TP8X618HmWV76HnU6h6VpWq5K814N+19+yTqfxd1+HxB4dkh/tFE2SxSHCyD6/1r1HStX+7XTaXqmcfNXyNGpXy2v8AWMPa+1ns0fTcPcQ4zJ8ZHH4CfLOPzT8n5Hh37Jn7IOteA9fi17xZJbRzWvNrZQP5h3dndsDp2Ar6XFV7O8E61Yr5nNsxr42u61fR9lsj1+KOLsy4ixaxuZz5pJcqsrJJdEvUK9A/Z0tYZfHHmySRo8MZ8tSeXJ9K8/qaxvpdNu454XaOSNgysD0rTI8whgcfSxc48yg07Hh4OuqNeNVq9mfXCSben5U4T81g+BfEP/CS+FrO8b/WSxjd9a2PMr+ysLXp4ijGvT2kk16PU/WadRTipx2epbD0I7EcVAkxApyzZPNXZossLN61KGqvupd20/LS3J5S0GyKcshU1VWbnmpFk/Ojl7ElhXqRH5qsr5NPD8VIFkSV8X/8FEP27r7wL4gl8B+FLprW8RAdTvo2/eR5/wCWSHscdT1r7JaQiNsdccV+Jn7QXiC+l/aD8XHUDIbw6pMJN/3vvHH6V7WR4eFWs5T+yfGcbZpXwuFjCi7c7s35HR6d4kkvJ2lmkeWSQ7ndmyzE9ye9dVo+sCQD5q8j0bW8Fea6zRda6fNX2Vj8gvfVnq3g/wASQ6b4v0zzsbTIX5/2elfaXwW+N6z26Ru6tGy7WU9GB4Ir88L+SfUoIZrWQLdWzbkycbvUV6H8NPjLq2iW6q9nLFIoxudht/Dmv5R8evC3O+KM0oYjAxc4pKK10g73b8vXyP3Xw04oyPK8orUsZJQndt3WslbRLv6HefFG3t9F+Jes29rtFsl0/l4PABOcVStLsEVzUmsy6neyXEztJLMxZmJ6k1oWl9n0r+uOH6NXDZdQwmJlzzhCMZPu0km/mz+S+IMHTq4qrWox5Yyk2l2Td0joo2BXinVn2l3uAqz/AGhELqOHzF86VS6pn5mAxkj6ZH51314xh7zaS83Y+R9jPm5Um35E9B6UA5orIyPqD9gPw9LaeHtY1J+IrqVYo/faOf519EBq+F/2dvjFffCvxxbKJmOl30ix3MJPykE4DD0Ir7ginWaJHU5VwCD7V+a8SYWpTxbqT2lqj+tPCjNsLisljhaF1KjpJPzbd15MtB6cJPeoVkzTg9fO2P0wp+N/G2n/AA68IalrmrTLb6fpcDXE7k9FUZ49z0Hua/JX9qD9uDxF+1B4zuGmuJLHw3DIRZabE+I1XPDP/ec+p6dsV9xf8FbNQvrH9iPxE1kZAGubZLgp/wA8jIM59s7a/IrRtbyB81fXcN4Om4OvLV7eh+a8dZlWjVhhIu0bXfmet6LrWAvzV1Gm6l5qj5v1ryfRtcyF+aut0XW8Y+avqk7H507NWZ9Cfsy/EeLw/f3kiuqytN5fuAvH88n8a+ifjF4vs/iD+z/qCXG1p7HZc27k8q4IBx9QSK+AdI1TUPDOuNdWcbXFtcNvZFb5lbvxXqTfF3Utd8Lrp7q9rDIR5ilsl8euK/j7PPCLiHGeI1HPqafLGtGp7S+ijFp23vsrW6n73LizIIcEzwF1z+zcOS2rk+v363LllejaOv51qW94JK5Wzvc454rWsrvLda/uGE41FZn8X47L3HVI3Ac0VVtLrfxmn2WoRahE0kMiyRrI0RK9nUlWX6ggg1y1IqElFtXe3d+h43s52btotyen21s95dQwxqWkmcIqjuScCmUcg8EqRyCO1SKLSkmz9NfhdoUnhb4daHpsrbpLGyihY+4QA10IfAr5w/YM+Od9450K88OatcPc3mkosltNI253hzjaT32nHPoR6V9ErJmvxfM8JUw+JnTq73v95/cHDOaYXMsso4rCfDZKz3VtGn6FgNzTg9Vw/NSK+K889xxaJg3HWnb6hV+KdvoJPi2iiivtD1ApwbFNooAeHzX57f8ABRr45w/Er4rR6BZQwfZfC5aJrgKPMlmbG8bv7q4Ax6gn0r9BX+4fpX5JfFvT7rSvil4it71WW6j1K4Em4ck+Y3P49a7cFFOTbPznxGxdWlhKdGHwzbv8uhlWGoeWwBNcz461ybTvFMMrE+TJEFU9gRnIrZzg1I8MGpReVdRRzJ6OMiuPOsmjjaEqe1z5nw144fCud0825OdJOLXWz3s+5pfDTxM99q1rHG27awdsH7qjrXsWl6x0968p8LQWuiRbbWCGBW+9sGCfrXYaVqmcc1+ef6t/VKbi9W3c+r8WvFN8a5pSxkaTpwpQ5Ip6yau22/m9EelaZqeQvNdFpeq/drzfSdUwVrotM1TO3mvjsyyvRn5lCetz0vSdVwR81dHpWrYbqa820rV8svPFS+I/i/pPw9igbU7rymuDiKNULu2OpwOw9a+AzDKXLSKPcyvA4vH4iOEwVN1KktoxV2/kj2azvlnQc1YryH4W/H/SfGz2dqtxs1GaPLJ5bLGWGcqpPXpmvVLG/E6Lk818Pj8vnh5uMkexmuSZjlVZYbM6MqU2rpSTV09mr9DR03T5NVvo7eJSzyMAAK910Cx/srSbe3X/AJZIAfrXJfCLRLRNFW9WMNcuSrMecfSuzV+K/o3wt4VWX4L+0KrTnWSat0jul69z7LhzLfYUfbyes19yLAfmnK+RVcNTtx2+9fqfKfSHwP8A8FWvjbpfizxnp3hKzs4JbzQT51ze4+dGcf6pT6YwTn2r5P0/UGjbGa6z9ptbxf2gfF324P8AaP7Tmzu643fL/wCO4rhc4r6CGGj7JQP5vz7HVMVj6tafdr5LRGb8QfEc1l4ktGb/AFPl7VPbOa6bwB4okutQtY4z8zSKePTPNZdxaW+rweTdRrKh9a3PBmmWPh5j9lhVHYYLsSzY9MmvznPuEXXxX1hPTT107H9KcC/SGw+RcIyyKVCUqqjKEbW5HzX1l166qzueuaZq2ZDg9WzXSaZqeMc15rpWqYYV0mlattr53Msr01R/NsanM7npOl6t935q6PStW+781eb6XqpwOa6TTNW27eetfn+ZZXudlOoelaVq3FdBZXq3Cdea8n1D4i6X4Ns0uNUvrezidtimQn5z6AAEn8qvfDr426L4wa3hh1C1W9mLfuFYtnDEDDYxkgZx15r4HMconZzSPpsBkOa4nDPGYbDznSje8lFtJLfW1tOvY9SqS1tpLy5jijUtJIwUAd6o2V+s68nmvYvgJ4N0+5sf7UkHm3SOVXd0j+lc3DfDlbNswjgabS6tvolv8wy7ByxdZUof0j0LwHozeG/CtnZt9+NBu+prZDcVWSQA4FSBsnrX9e4XDww9GNCG0UkvRI/VadNQioLpoWFfNSK+KqiT3p4eugssq/FSRzdjVUPk05X5pOKYFzfTg245qqJcd6kWbjmo5WgLHn1Ju4qsHz3p4JApXJ5SwZMLzX49/wDBSjxV4V8QftX65ceFxIdpEeoOMeVLcrw5TH6n1r9VPjhrt14c+Dnia+tN32q102eSLHUMEOD+FfhXqF5JqN/NcTMWmnkaRyepYnJr3sjpe9Koumh+ceIOKcaVPDW3u7+htaNrPTmus0fWsY5/KvNoZ2hbIrb0jWjxlsfjX1MZX0Py6MrHrWja1gr834V1mj62JFFcfpHwn8YD4fjxT/wjmrf8I6MH+0fIPkYJx1+o607Rta6fN/8AXrnwuOw2J5nhqkZ8r5ZcrTs1unbZrszoq4epTt7WLjdXV1a67nqFjfbgMGtS0vOa4fRtZBA+auis77eF5r0KNa255eMwUakbo6i31JYfL3HAZgv58V9bfs+azoOn+GU0uWxs7i3nQrN5kYYybsZyTz/+qviPxFdTHRi9vkyQuJMDuBXbfBz47rZeSJZxHtwCCe9fyr9KTB55mNHCUMA5qkrv3L6zurXt1XT5n7V4E5RlEKeLr4rl9rovetpC2tr9H1PRPjf4Jt/APxGvbKyObFyJrfJ+6jcgfh0rk6vePviC/jrxG10x+REEae4FZ6PvH1r+jeAaOaR4awX9sX+sezjz33vbr5238z+W+NKODhnmKjl38Hnly22tfp5dvI0/B2iTeJPFmn2NurPLcTqoA7c8n8K/QXSYjaadDC3WNAv5CvFv2W/gDZ+DNMt/EN5JHealeRh4SvK26n09z617QJT/AHq8biTHxxNZU6e0dL+Z/Q/hRwrXyrASxWJ0nWs7do9L+bvctq2TTlbNVYpcnk1IJOetfM2a3P1XRnm/7Z3ifwn4V/Zm8Wz+NtzaBLZNBLHHjzZXbiNUz/HuwR6Yz2r8Jk1KOG9k8jzFgLnYHPzBc8Zr9Kv+C8Piu+tPhv4J0iFnXT76+nnnA6O6KoUH6bm/OvzGr7Lh+lyUOe+7Px3jrF+0xyopfAt+99TsNG1n7vNdZo2t8r81eV2V+1u45rsvA8F94s1q003Tbaa9vr2QQwQRDc8rk4AAr6CVWEYuc2kkrtvRJdz4yHM3yxV2enaNruAvORXVaZqwlA+auF8UeCPEXwo1aGw8S6PqGh300SzpDdxGNmRuhq9omufd+as8LiaOIpRr4eanCWqlFpp+jWjNa1GcJOnVi01unoz0azva1bO85FcdpmreYBmtyzvMhea9KjWtoeHj8Apq6PSPhFPY3XjSFb9VlhgUSMjfdY54B/ImvqXxromh/GD4W3Uf2W3g1KxheezniQKwYDcVOOobHPvzXwNP4suPCXixbn/l3uFUZ7AjtXungH9oYW3h2YQ3HmTNEUCA9yMc1/EvjVgOLsXx/hsVlcp81Nw9io35bXXNtpq781+m5/RfAuU8N0uBqv1vk95SdVytfm6eeita3XY54cHFLmqtte+YfxrrvhD8OJfi54+sdDhuYbQ3RJaWTkKqjJwO5wDgV/clW9Kn7Srsld/qfxNRwlSviI4eiryk7Jd29j2f/gnX4XuLjxvrWsbWFrbWv2Xd2Z3YNj8Av6ivr9Gwtcn8Kvhrpnwl8IW+j6XHthi+aSRvvzOert7n9K6cPzX4/nGOWLxUq0dtl6I/s7gnh6WS5TTwVR3nq5drvovTYsrJj3FOEmKrh6cr5NeXY+sLG+jfUIfFOL5NTysnlR8c0UUV9kdwUUUUABr5l/bM/YWk+MeqN4m8LNb2+vMgW6tZDsjvsDAYN0V8cc8HA6da+mqKunUcHeJ5+aZXh8fQeHxKuvxT7o/IHxf4R1HwH4lu9H1a1az1GxfZNCxBKHGeoyO/as2vav2/fA134Q/aU1i4njb7PrQS9t5MfK4KhWA+jKf0rxWvbhLmimfzjmWE+q4qph/5W1qWrG+MTAZrotK1Xp81cnVmyvWgblq8/GYGNRXRywlY9H0nVsfxV0WlattxzXm2k6vuxzXS6Vq2CPmr4XMsq8jtp1D0rTNUzj5q8G/aq1i8sfiTZ3Em/wCytbiOJv4QQckfr+lepaXquCPmq7rXhvS/HNl9n1S1huo/RhXxdTBwpTfOtGj9E8OeM3wznVPNeTnSTTXWz7eZ5f8As865c618Q9Hhtt7MtwkrFediKcsT+Ffa2lal5zIF5ZjwB1NcL8Af2WZv7IFz4c0W0sbO4Yq1yXCs+PUn5iB7cV9JfDL4EW/hCSO61CcX14nKqFxHGfx6n3r5yrwXi80rr2cHGn/M9NP1P0nxG4uxfHmZ0cZSounRpwUYuW7V7t/jokdl8OtJk0bwrbwzfLKw3sD2zzW+h21UD/8A6qfHNiv3PL8HTwmGp4Wl8MEkvkjTD0VRpRpR2irFoSD1p6PnvVcyqe9SK2BXVymx8q/t2/sIXnxi1VvFnhBIW1vZtvLJmCfbAOjKTxvHTB618G+LfCGqeA9fuNL1ixudN1C1OJbedCjp+H9a/Z4Pwa/NH/gpb4SuvD/7TV7ezI/2fVraKaFyODgbSM+2B+depga8pPkkflPHnD+Ho0/7QopqTdpLpr18j59q1ZX5hbBqrRXdUpqasz8tTsdVpGrfd5xXTaZqvC/NXnFlftAw+tdDpOr+9fL5lld1sdVOoelaXrH3ea6PStW3HrXm2l6p93mui0rVcEYb9a/PsyyvyO6FQ85/a08SXVt420tn3fY1hKx/3d2efxqH4LeKLi/8YaRHa7mma5jKhe3NereJfCGk/ETTVtdUt0njzkE9R+Ndp+zt+ya1oXvPC+g3F0zN5bXkr7tnqoZjhfwr5jHYONSmqdOLc7Wskf1R4f8AjrSybheWRRw8p1lGUYqKXK+a+r69ddNT1bTtW3SnB6mvpz4HaNJovgeFp1ZJLg+Zg9QD0rz34P8A7LsmiTxX3iCSKaSPDJaxHcoP+0e/0Fe3RBURV27QowAOgr0+BuDKuBxMsxxS5ZWtFdVfds/M+G8orUpPFYhWb2XqTiUEf/Wp6zEe9Vw2KVZK/UT7AtrKGqQPVNJMd6kSbB9anlAtLJzUgfHeqqSgn3qQPzU+oFgPkVIjYqsr4pyyUAWRJtNSLPxzVUPzTxJmk0mA/U7CHW9LuLO4VZLe6jaKRD/ErAgj8jX5C/tu/sSeIf2avHt9eQWNxe+EryZpLO/hjLRwhjny5P7rDpz1r9eUkNRaxYQa1pNxbXEMNxHMjK0ciBkbI7g8V14HFSw89NUzwOIMhpZnRUZvllHZ/ofgbXZfAHw3a+Lfi3o1lfbWs2mEkyno6rzj8az/AIu6LJ4e+KPiCymhEElvqEyGMLtC4c8YrP8ACXiafwd4htdRt/8AWW75xnqO4r3M6o4ivltalg3apKElF9pNaH4xlP1ejmVL65rTjNc3onqfst8GviXpt54fXR5re3k0uSD7O9syjyzGRjbjpjFfnB+0n4YtfhX+0B4m0WxYCxtbxjbgH7qHkD8M11/w/wD28NG8J6J9pkkuZrqNPlt1jO5mx0z0/HNfP/jn4tXnxO8d6lr2oN/pOpTmUr/c9B+FfzP9HvgPPsizvHYnHRlToVI2alf3p817pPeyvr5n7H4uZzlGKw2Hp4KcZzTv7uto22fbpod3ouu52/NXW6NreVX5vzryPR9b4XDV1mja7wPmr+tHHsfhe56jZX6uvy81oadDbxTeYsEKyN/GEAb864vR9bzt5ro7G/DqDuralUs9TjxWF51eOh1lrehRya19NneeaONMszsFUDvmsDwzompeJLqOHT7G8vppDhVhhZyfyFfUH7NP7I95pWp2+ueKY1iaAiS3sSdxDdmftx6V0YjNqOGpudRr06s8TB8GY3NMTGjh4O19ZNaJd7nvvws0uTQvh9o9pNkTQWyKwPriuiV8CoI5Ao2/yp28Zr8mrSc5ufdt/ef1lg8MsPQhQjtFJfcrFhXz3p6S7KrK/NOD1lvudB4v/wAFAP2T/wDhrz4FTaNZyQ2+v6bL9s0ySXhTIBgxk9gw4z2IFfjL8Svhb4g+D/iu50XxJpV5pGpWrFXhuIyufdT0YHsRwa/oFSSvkz/gsv4QGu/slS6hFYwTXGmajA7z+UGlijO5ThsZAyVzj2r28ozCVKSoPWLf3Hw/GHD9LEUpY6LtOC180j8ja+u/+CYdvp/hXUNQ8R3SRyX7SfZrZ2GTCgA3Y9CScZHYV8iV6R+z/wDHBvhbqLW900i2Mz+ZvUZ8tvcehrxPFrJcwzXhnEYHLb88rXS3cb6pevbqfN+G+Ly/D55Sq5i0oq9m9lK2jZ+lX7a8Gl/Gr9k/WJrhIW1Tw6g1CyuCvzx7SA6g9cMpOR6gV+cej61tK/NXp3xt/bph134V3XhnQ5Jp21RRHdTlSqpHkEqM8knGPTGa8D0fW92Oa+R+jrwrm+Q8P1cJmicYyqOVOMt0mlfR7JvZfPqep4qZll+LzdTwElK0bSa2bv362R61o2t/d+b/AOtXWaTq6yAc15Jo+tH5fmGa63Rdbxt+av6A2PzXc9IjkjuodkirJG3VWGRWlpRisYgkMaRLnOEXaK5HSdY3D71b1hc+YVx1roo1rO7PKx2D542jt2Ops7zOPWva/wBiTRrjXvjzpskKt5dhHJPMwHCjaVGfqWFeYfCv4HeLfirqSQ6To948RI3XMsZjgQepc8fgMmvu39m79nqy+AfhdoRIt5q15hru624yeyL3CjP49a4c9zyjRwsqKalOStb16s6eD+B8VjMzpYqUXGlTak5PS9tbLueqIcCniSqiyD8fWpFmyen61+UcvY/p0tLJinBuKrh8GnrJzUDLO/HejNQiTNO8z3oA+Q6KKK+wOwKKKKACiiigDh/jp+z94d/aB8Mf2frlu3mQ5a2uojtmtmPdT6eoPBr5J8Wf8EsvFljft/Y2taLqFruOw3BeCQDtkBWH5Gvu6jNbU8ROCsjwc14Zy/MZ+0xMPe7p2Z+YPx8/ZF8V/s8aXY32sLZ3VnfMUM1mzSJA46K5KjBPbtwa8tr9gPFXhTTfG+g3Gl6tZw32n3abJYZVyrj/AD3r5e+Kf/BMDw20N7qOg69qGkxxRtKLWaIXKDAJwrZVgPrmu2ji09J7n53nvh/Xpz9pl3vQ7N6r/M+KLK8MD1v6VqpUr1+uKwtOslup9rdAcV19hZxx2qrtG0CviuL+KMPlrUHTcm3r0sg4c8OcZmKcqlRU+3VtmjpWrfN3r2L4EfBHXPi/qcXk28lrpSsPOvJFKxgdwv8Aeb2Fe8/ss/Bfwnf/AAc8P6rP4f0ufUZoSzzyW6uzEO3PIr2mCFLWJY41WONBhVUYCj2FFHLaOMpwxEtpJO3qe3gfDx0a3+11VJJ7Jb/NkPhXw9a+ENAtdNsl8uC1QIo9fc+561pB8VXD08PxXvxpqKUY7I/Qo01CKjFWSJ1kzT1ORVbdinhsClYZYD5qRJjjFVg+acsmKALccufT3z3rz79on9m3QP2j/CP9m6xG8N1bkvZ3sX+ttmPp6g9wetdyJcmpFl4/hqoycXdGOIw9LEU3RrLmi90z86/Gv/BLr4kaDqUi6T/ZGuWef3cqXQgcj3V8YP0Jrzf4z/smeOPgHodnqXiTTYbezvHMavBOswjb0crwue1frB5qn1rM8beCtK+JHhe60fWrOK/068QpJE46/T0I7EdK7I46afvHw2M8PMBOEnh3KMul3dX+69j8aasWd60De1faPxQ/4JM25nubzwt4o+x2qq0gtNQgMnlgc4EinJ/EfjXxlJpBt9WuLV2B+zytExHcqSD/ACrorYqiqMqs9lufn1ThHNadZUZU9Xs7qxt6VquCtdJpWrj5aytLsIY7FV2cV9wfsdfsu+AvGnwZ0rWtW8Pw32ozM++SSaTa2G4+Xdt/SvzXB8QYXNcVPCUoOLjd3dtUrf5n2dfwux9CjCsq0Hfda6P9TwH4L/DXW/jBr8djo9rJIMjzZiCIoF7lm6fhX6EfCvwBZ/C7wVZ6Pa/Mtuv7xz1kc9Wq14c8Naf4Q01bPS7G1sLWP7sUEYRR+ArSD5r3MHlsMPJzXxPqfU8P8OU8ti5N803u+3ki0JN33fypwm9aqh+ak3/SvQPomiyj7ulKTVbeMVJFLgc/hQSTj5TS78VGku7/APVTlwKnlAlElSCbLA1X3YNOWTmpAto+VHvT1aqYkxUiTECp5ewy0Gp6yYqtHJuNSB6mzEWFkzTlkquGyKcHoA+Mf+Cgn/BNe++L3iOfxp4DS2/ti4G6/wBOdxH9rYfxxk8Bj3BxmvhvxB+zD8RPC+pNa33gfxVDOrbdo02VwfoVBB/A1+2wkqRJ9teph81q048jVz43NOCcHjKzrQk4N721T+R+Dfirwhq3gjVDY6zpt9pN4qhzBdwNDIAeh2sAeazkco2RX6/fto/sMaH+1vosNwLhdH8TWCFbW+Cbkdf7ki919+or8+PjX/wTl+J3wN0a+1bUtNsbzRdPXfLe2l4jIFzjO0kP3HGK9nC5hTqpXdn2Pz3OOE8Zgqj9lFzh0a/VdDx3StX8tgua6vRtaxt+auM0rSWu5l+baueTiu00/wAPw/ukDMuSATmvJzjjTLcrqRo4pu8uyvb1OrJ+Bc2zGlKrRikl/M7X9P8AgnWaPrnC/NXrX7P/AMNdW+NnjG10vS4JHUsDcT4+S3j7sT/L1NfQHwt/4JU+DTpmn6lqWva/qEdxCkzW48uBeQDjcATj6Yr6d+Gfws8P/CLQF03w9ptvptouNwTLNIfVmPLH6mu3EZ9RdP8A2fVv5HpZbwJinVUsbaMV0Tu2angvwlY+B/DllpllEkcNnCsQwoBbA6mtnzMVXWSnq9fKybb5pH6lTpxhFQgrJFlZM09JNp4qsJM09JKk0v3LaTZ/2fxo3bm45qsJPSnpJg1LiGhYU4rJ+IHgbS/il4J1Tw7rVut1per27W9xGe6kdQexBwQexArSWb1pwIbpUq8XdESgpRcZLRn5DftPf8EpviR8GfE93N4b0m68YeGmcvb3FgvmXESdlkiHzZHqoINeGS/s8ePoIrmR/BPixI7NGkmdtKnVYlUZJYleABzk1++AamzhbqBoZlWSORSrKwyCDwQRXuUs+qxilOKfmfB4rgDCVJudGo4p9N0fzvnOeakt7loHzmv0Y/a//wCCM114m8VXniD4X3ljCt85ll0W8k8pImPJ8mTptP8AdbGPWvh/46fs0+Mv2bvEdrpXjDSf7KvLyIzwL58cyyoCV3AoSOo719Bh8wo1VeEte3U/Psdw7j8LPknTbXRrVMyNF1nOPmP511eja3nbzXJeF/DyyS75m4x90V73+xZ+y/YftL/GUeGbzVLzSbY2ct151siyPlCoxhuMHdXh1uPMqpY5ZfOT5+6Wl+x7+F8Pc5q4T65GKt2bs7d/61Oe0TW8Yy1fbv8AwTd/Zvu9d1ZfHGuWbR6bbKV02OZP+PlyCDJg/wAIGQD3J9q9G+D/APwS6+GvwuvYry8XUvE91CQyHUZR5Kkf9M0AB/4FkV9JWsMdnbxxRRpFFEoVEQbVUDoAO1VmWeRqQ9lh+vU9vIeDalCqsRjbXW0Vrr5lqILGuFUKo6AdqkD1XWXApwevlXrufoHkWA9SB+Krh6csmDU6oLlhZcGpRNzVQPTw1HqUW0fIp2+qiyYNPEzAVPIM+UaKpl2z95sfWq8srA/eb86+ssdfMalFYs8zAfeb86qzXMn/AD0b86pRDnR0lFcm9zIP+Wkn/fRqF7ubH+tk/wC+jRyk+0OyorinvJtv+ul/76NRm9mX/ltJ/wB9GqUA9odzWb4y/wCRT1P/AK9ZP/QTXL/2hN/z0k/77NZ/i2+mbwvqH72T/j3f+M/3TVU4rmRlVre4/Q/MnRTm6P8AvV11p/qfwrkNE/4+W+tdfaf6n8K/H/Ez+OvU7eDfgP0O/ZP/AOTffDf/AF7t/wChtXoled/sn/8AJvvhv/r3b/0Nq9Cb71fo+S/7hR/wr8isU/3svVjqM4qGVyF6moWc+rfnXpnPzF4PmnK9ZM0rA/ebr61DJO4/ib86diXLQ3kfIqQNzXJvdyKf9ZJ/31UZvps/62T/AL6NL2ZPMdkrU5Wya4d7+b/nrJ9dxpv26Yf8tpP++jR7MOY70NipEm2n6159/aE2P9dL/wB9ml+3zZ/10v8A32anlYvaJbnc61JnRbz/AK4P/I1+Pmp8+LtS/wCvyb/0M1+ourX0x0m6/fSf6l/4z6Gvy4vRjxRf/wDX1L/6EazxkWsDVPLxkk8TS+f6HR2H/Huv1r9Fv2FGx+zfo3+/L/6FX502H/Huv4V+iX7Dblf2cNF/35P/AEKvx3gf/kc1f8L/ADR91mX+5w+X5HsyvgU4PgVXWTPtT1ev2Cx84WFfFOD1Ar8U4PU8oFhZOacHyarrJzUgfHelZgWEkx7VIs2OtVQ9SLKtInlLCvvFLjB9qqGVg33jR9oYHhqCS9naKVH5rOa6cH71Ry6hKo+9+NTygbAepIpNprnW1i4X/lp+gqFtbuV/5afoKOUXMdYJc9jT0euObxHdqOJiPwFRt4pvF/5bH8AP8Kn2bYOS6ncCTaaeslcF/wAJZfZ/1x/IU7/hLr89Jv0FL2bFzI75XzXkP7fL5/ZG8aD/AKch/wChrXQr4u1Bf+W//joryz9trxNeXf7L3i6OSbdG1oMjaP7wrfD037WPqjnxU17GS8mfl34eJEo+grstP4mh/wB5f51x+gpmRWz1rsLP78X+8P51+T+JH+/xPe4S/wB3fofsv8PZP+KH0f8A68ov/QBW0HzXPfD+X/ihtH/684v/AEAVtGY4r9Fw8f3UfRfkebU+JloSEe9PSTd0qj57Z+9SNcsp4bFa8rM5WNIPTlbisdr+QD71RS6tcL/y0xRyEnQpJinLJmuVfXbhTxJ+YFRt4ivE6S/oKXs2TzHZK9OEuzoa4g+Kr4f8tv8Ax0UxvF98T/r8f8BH+FP2bK9ojvknx1pwPo1efL4vvgT/AKQ3/fIoXxnqAf8A4+Gx/uip9kT7RHoatgda/M3/AILinf8AHHwXn/oDP/6OevvL/hNdQ7XB/wC+R/hX54/8Fi9ZuNX+MPhJrh97JpTgcdB5rV25bStWv5P8jz8yqXo281+Z8x+Gxhfwr60/4JLtj9q0f9gi4/8AQo6+SvDh+WvrP/gk38v7Vw566RcD9Y6/Gsb/AMlJBf3kfcYH/kVy9D9RFmx71IktU1bFPExxX6e4dj5kuB6VX96qpMQfWpVfNRZoN9yyGwacr8VXDetPV8VJLj2Jw+aer8VAHpwfFBOxYD4p3m+9V1lp3mVNuwHyi/3arz/fq21qxHaopLCR/wC7+dfWXOwozciqk33a1X0qRh/D+dV5dCnc8bfzoQnFmVJ/SoH6VrN4cuWPRf8Avqo28LXR/wCef/fVVFq4uVmU/wB2on6VsN4UuiP+Wf8A31UbeELwj/ln/wB9VV1YXKzJqh4pUv4av1UZJt3AA/3TXS/8Idef9M/++qRvBl2w/wCWX/fVKMrO5lOm5RaPyp0TK3beu6uvtP8AVD6V9LfE/wD4Jq3Wt+LrjVPDeqWOnw3khlktLhWKRsTk7GXt7EcetT+A/wDgnBqEGsQNr+u2RsI2BkjtI2Mko9MtgLn15r8144yXGZjXX1WF1ffojv4bawkWq2h7l+ylG0X7P3hoMrKfs5OCO29q9BfpUGj6Rb6BpNtY2cSw2tpGsUUa9EVRgCrJG6vu8Dh3Qw8KL15Ul9yCtLnm5LqQyc1DL3qw8RNRtau3pXYjCzKlz96q8tXpbCRz/D+dRPpUrD+H86AsZc/JNV3OK1ZNDuGzjZ+dQv4cuCP4fzqrk8rMt3ppbitFvC90R/yz/wC+qb/wit3/ANM/++qBcrM/d8tJvbPU1oHwpeY6R/8AfVIPCd4T/wAs/wDvqmmiHFmXqcv/ABK7n/rk/wDI1+Yd4f8Aip9Q/wCvqXr/ALxr9Ul8IXZGGEZB6gtXy98Z/wDgm7res+NLrVvCt1pa299IZZLS5lMZic8ttYAggnnBxXPjfews6cd2tDixGHnKtCotk9T5ysP+PZfwr9Dv2IW2fs46J2+aQ/8Aj1fOvgz/AIJzeMLrUoY9WvtHsbMEebJFM00mO+1do5+pr7I8C+ELL4f+E7HR9PXy7SwiESZ6n1J9yea/MuD8jxmHzCrisRBxi00r9btP9D63MMVTnh4U4u7OgSUbOacsmR8p4qqJKeGFfph4pbEmfanq3NVhKGHPFSB9o71LiBYDU5X4qBW3U7dUgThqdvzUCPzT1agCZmprPxTc5qM7ivSp5RMWR/0qCaT/AD61K6MwPysc1C8En/PNqfKQ0QO+BULnNWJLOcn/AFbflUT2Fww4hakrGepUklqPfVg6PdE8QSflTG0e8z/x7yflT0FJEBmx2pyuuetSHRLw/wDLvL/3zR/Yd5/z7Sf980eZFmRGXca8w/bNcf8ADNHioZ4+yj/0IV6suh3g/wCXaT8qwvib8J5fid4B1bQbm3mSHUrdoS+37hPQ/gcVpRkozUn3Ma0ZSpuK7H5LeHTmUV2Fj/rY/wDeH867DX/2E/if4A8RTWp8J6rqVujERXVlF50Uq9j8vT6HFegfAr9g/wAeePPGFiur6HeaDpEUqvc3F6vlkoDkqqn5iT09K/LOO8DXxWPgsPFyu1sj6DhmcaOHftdD9GPh3LjwLo//AF5xf+gitveKo6bZx6ZYQ28Q2xwIsaj2AwP5VZDYr9AoxcYKL6I8+o7ybRJvpryU3fimtlu1aGbGyShR1qvcSBj+FSSwM/RWqJ7KZv8Alm1BJWkfmoXf5etWJNPnbP7l/wAqhbS7k/8ALGX8qCXFkDNk8dKhaTJq1JpN2T8tvN+AqI6Ledreb8qpEtMhD5ppfLVY/sS8/wCfeb8qBoF9n/j1m/KiViZJkKvk18A/8Fdz/wAXe8K/9gpv/RrV+gw0G+P/AC6y/wDfNfNv/BQr9ijxF+0Jo+l614ds3n1vQ0eI2jEL9riY5wpPG4HPB65rfB1owqXk+jOPGUpTp2iuqPz58NnivrD/AIJRAj9qlccY0q4/mleNaL+xp8VbOfypPh/4oVs4P+hNjP16V9tf8E3P2L9e+C2tXvi7xZbrp+pXVt9ls7EuGkhRiCzvgkAnAAHUc5r8lrZfiKvEKqRi+VO7fSx9lha0IZbyyettj7FDZFOR8VCs2FqTORxX6LJdT58kV8U4MMVCC3pTg9L1AtJKNtOWQE9aqhqer5qORdALavTlaqqT496lSQN0qXFoPUsBqUNmoQ9LuFSHKj5oooor6g7AooooAKKKKACiiigAooooAKKKKACiiigAooooAKKKKACiiigAooooAKKKKAHK2KcDmo6AcUCsTK2DTxJkVAHxTlak1cXKThs04NgVArZNPDYNRYknVqer81XDZNPDc0AWY5MDBp4mw3FVVenB6ALgkyacr8VVifaf61KrZ6Gp5QLAfNPD1XRucU4Ng0rAWFenCTH1qEHNORsVLVwLCyEf4U5ZuarqcU8NmptYCwJAw96kV2C1VVsU8HNILFoSfLzTlcEetVgcCnxtzQZlgdfloSSoxIO/Bp2eKnlAmEuT2/KnCaq4ODTlapAtLNxUit+tUw3FSK9LlGWxJg09XqtE+4c1IGxUaoROklSB8VXBzTlbFAFhX4p6PtNVg+KerZoAtrKDTw+Kqq2adHLzWbh2AtK3NPEqmq6yBqcOf/1VNrbhZFhWp6yVWU8e3p61IsmR/Si1ybNFgNxTlbFQrJxTg3NTsSWFbFSK9Vg+KeHoHcsrPzUgAI+tVA+RUiPj61PKPRlgkbhinb6gWU4p+2pcWiSYNThJUK8CnK3NICwszetSCZcVVB4pwfApOKYH/9k=;" vertex="1" parent="1">
          <mxGeometry x="92" y="-1841" width="603" height="336" as="geometry" />
        </mxCell>
        <mxCell id="M5O5Atzd3mQ9mtBAptJ8-7" value="사진 출처 : Uniry Learn" style="rounded=0;whiteSpace=wrap;html=1;" vertex="1" parent="1">
          <mxGeometry x="102" y="-1500" width="590" height="30" as="geometry" />
        </mxCell>
        <mxCell id="M5O5Atzd3mQ9mtBAptJ8-8" value="Tree Prefabs를 Variants한 Tangerines Tree Prefabs에서&lt;br&gt;Tangeriness Tree Prefabs의 나뭇잎 색상을 변경해주면&amp;nbsp;&amp;nbsp;&lt;br&gt;Tangeriness Tree Prefabs를 이용한 모든 나뭇잎의 색상이 변경 된다" style="rounded=0;whiteSpace=wrap;html=1;" vertex="1" parent="1">
          <mxGeometry x="165.5" y="-1440" width="430" height="60" as="geometry" />
        </mxCell>
        <mxCell id="M5O5Atzd3mQ9mtBAptJ8-9" value="이렇게 Prefabs 전체를 수정하려 한다면 TreePrefabs을 이용하면 되고,&lt;br&gt;사과나무, 귤나무처럼 일부만 수정하려 한다면 Variants한 prefabs에서 원하는 것을 택해 바꿔주면 된다.&lt;br&gt;&lt;br&gt;Ps. 알게 된 것&lt;br&gt;Prefabs을 자주 사용하고 있었지만 Variants의 개념은 알지 못했던 것 같다.&lt;br&gt;게임 제작 중 몬스터로 예를 들면 MainPrefabs에 몬스터라는 객체들의 공통점을 두고&lt;br&gt;여러가지 종류의 몬스터들을 Variants를 추가하고 각각의 이미지와 몬스터 속성과 특색을 구분해서 한다면&lt;br&gt;더욱 효율적이고 깔끔하게 제작할 수 있을 것 같다." style="rounded=0;whiteSpace=wrap;html=1;" vertex="1" parent="1">
          <mxGeometry x="20" y="-1330" width="720" height="200" as="geometry" />
        </mxCell>
        <mxCell id="M5O5Atzd3mQ9mtBAptJ8-10" value="&lt;font style=&quot;font-size: 22px;&quot;&gt;Unity_Prefab_Variants&lt;/font&gt;" style="rounded=0;whiteSpace=wrap;html=1;" vertex="1" parent="1">
          <mxGeometry x="220" y="-3050" width="300" height="50" as="geometry" />
        </mxCell>
      </root>
    </mxGraphModel>
  </diagram>
</mxfile>
